<svg xmlns="http://www.w3.org/2000/svg" xmlns:xlink="http://www.w3.org/1999/xlink" viewBox="0 0 473.92 153.01"><defs><style>.cls-1{fill:none;}.cls-2{clip-path:url(#clip-path);}.cls-3{fill:#d3d3d3;}.cls-4{fill:#29aee4;}.cls-13,.cls-15,.cls-17,.cls-5,.cls-6{isolation:isolate;font-family:OpenSans-Regular, Open Sans;}.cls-5{font-size:13.08px;}.cls-6{font-size:9.15px;}.cls-7{clip-path:url(#clip-path-5);}.cls-8{fill:#0c8136;}.cls-9{clip-path:url(#clip-path-9);}.cls-10{fill:#e22172;}.cls-11{clip-path:url(#clip-path-14);}.cls-12{fill:#f4a018;}.cls-13{font-size:10.11px;}.cls-14{clip-path:url(#clip-path-19);}.cls-15{font-size:12.13px;}.cls-16{clip-path:url(#clip-path-20);}.cls-17{font-size:8.09px;}</style><clipPath id="clip-path" transform="translate(-11.34 -8.65)"><rect class="cls-1" x="11.34" y="36.64" width="114.61" height="112.03"/></clipPath><clipPath id="clip-path-5" transform="translate(-11.34 -8.65)"><rect class="cls-1" x="131.11" y="36.64" width="114.61" height="112.03"/></clipPath><clipPath id="clip-path-9" transform="translate(-11.34 -8.65)"><rect class="cls-1" x="250.87" y="36.64" width="114.61" height="112.03"/></clipPath><clipPath id="clip-path-14" transform="translate(-11.34 -8.65)"><rect class="cls-1" x="370.64" y="36.64" width="114.61" height="112.03"/></clipPath><clipPath id="clip-path-19" transform="translate(-11.34 -8.65)"><polygon class="cls-1" points="0 0 499.81 8.65 514.5 211.08 11.45 188.96 0 0"/></clipPath><clipPath id="clip-path-20" transform="translate(-11.34 -8.65)"><polygon class="cls-1" points="11.34 8.65 494.31 9.83 499.81 169.82 11.45 166.83 11.34 8.65"/></clipPath></defs><g id="Capa_2" data-name="Capa 2"><g id="Capa_1-2" data-name="Capa 1"><g class="cls-2"><polygon class="cls-3" points="80.23 84.01 81.86 84.01 83.51 84.01 85.14 84.01 86.78 84.01 88.42 84.01 90.05 84.01 91.69 84.01 93.33 84.01 94.96 84.01 96.61 84.01 98.24 84.01 99.88 84.01 101.52 84.01 103.15 84.01 103.12 82.47 103.05 80.94 102.92 79.42 102.73 77.9 102.48 76.39 102.19 74.89 101.85 73.39 101.45 71.91 101.01 70.45 100.51 69 99.95 67.56 99.35 66.15 98.71 64.76 98.02 63.39 97.27 62.04 96.48 60.72 95.64 59.43 94.76 58.16 93.83 56.93 92.87 55.73 91.86 54.55 90.81 53.42 89.72 52.32 88.6 51.25 87.44 50.23 86.24 49.25 85.01 48.3 83.74 47.39 82.46 46.53 81.13 45.72 79.78 44.95 78.4 44.22 77 43.54 75.57 42.9 74.13 42.32 72.66 41.78 71.17 41.29 69.68 40.85 68.16 40.47 66.63 40.13 65.1 39.84 63.55 39.6 61.99 39.43 60.43 39.29 58.87 39.22 57.31 39.19 55.74 39.22 54.18 39.29 52.62 39.43 51.07 39.6 49.52 39.84 47.98 40.13 46.45 40.47 44.94 40.85 43.44 41.29 41.96 41.78 40.49 42.32 39.04 42.9 37.62 43.54 36.21 44.22 34.84 44.95 33.48 45.72 32.16 46.53 30.87 47.39 29.6 48.3 28.38 49.25 27.18 50.23 26.02 51.25 24.89 52.32 23.8 53.42 22.75 54.55 21.74 55.73 20.78 56.93 19.85 58.16 18.98 59.43 18.14 60.72 17.35 62.04 16.61 63.39 15.9 64.76 15.26 66.15 14.66 67.56 14.11 69 13.61 70.45 13.16 71.91 12.77 73.39 12.42 74.89 12.13 76.39 11.89 77.9 11.7 79.42 11.57 80.94 11.49 82.47 11.46 84.01 13.1 84.01 14.73 84.01 16.37 84.01 18.01 84.01 19.65 84.01 21.29 84.01 22.93 84.01 24.56 84.01 26.2 84.01 27.83 84.01 29.47 84.01 31.11 84.01 32.75 84.01 34.39 84.01 34.43 82.47 34.59 80.95 34.87 79.45 35.23 77.96 35.7 76.5 36.29 75.07 36.95 73.69 37.73 72.36 38.58 71.08 39.52 69.86 40.56 68.71 41.66 67.63 42.84 66.63 44.09 65.7 45.4 64.86 46.76 64.11 48.17 63.45 49.63 62.89 51.13 62.43 52.65 62.07 54.19 61.81 55.74 61.65 57.31 61.6 58.87 61.65 60.42 61.81 61.98 62.07 63.49 62.43 64.98 62.89 66.44 63.45 67.85 64.11 69.22 64.86 70.52 65.7 71.77 66.63 72.95 67.63 74.06 68.71 75.09 69.86 76.03 71.08 76.89 72.36 77.66 73.69 78.34 75.07 78.91 76.5 79.38 77.96 79.75 79.45 80.02 80.95 80.18 82.47 80.23 84.01"/></g><g class="cls-2"><polygon class="cls-4" points="55.01 61.71 54.84 60.12 54.68 58.53 54.51 56.93 54.35 55.34 54.18 53.75 54.02 52.16 53.85 50.56 53.69 48.97 53.52 47.38 53.36 45.79 53.19 44.19 53.03 42.6 52.86 41.01 52.7 39.42 51.14 39.6 49.59 39.84 48.05 40.11 46.53 40.45 45.01 40.84 43.51 41.27 42.02 41.76 40.55 42.29 39.1 42.88 37.68 43.51 36.27 44.19 34.88 44.92 33.53 45.69 32.21 46.51 30.91 47.36 29.65 48.26 28.42 49.21 27.21 50.19 26.05 51.22 24.92 52.29 23.83 53.39 22.78 54.52 21.77 55.7 20.8 56.9 19.87 58.13 18.99 59.4 18.15 60.7 17.36 62.01 16.61 63.36 15.92 64.73 15.27 66.13 14.67 67.55 14.11 68.98 13.62 70.43 13.16 71.9 12.77 73.38 12.42 74.87 12.13 76.38 11.89 77.89 11.71 79.41 11.57 80.94 11.49 82.47 11.46 84.01 13.1 84.01 14.73 84.01 16.37 84.01 18.01 84.01 19.65 84.01 21.29 84.01 22.93 84.01 24.56 84.01 26.2 84.01 27.83 84.01 29.47 84.01 31.11 84.01 32.75 84.01 34.39 84.01 34.44 82.43 34.61 80.87 34.88 79.33 35.28 77.81 35.78 76.32 36.38 74.87 37.09 73.45 37.88 72.1 38.79 70.8 39.77 69.57 40.86 68.4 42.01 67.31 43.23 66.31 44.54 65.39 45.91 64.57 47.33 63.83 48.79 63.2 50.3 62.67 51.84 62.24 53.41 61.92 55.01 61.71"/></g><g class="cls-2"><text class="cls-5" transform="translate(34.73 88.67) scale(1.02 1)">46.80%</text></g><g class="cls-2"><text class="cls-6" transform="translate(37.03 120.88) scale(1.02 1)">Hombres</text></g><g class="cls-7"><polygon class="cls-3" points="199.99 84.01 201.63 84.01 203.28 84.01 204.91 84.01 206.55 84.01 208.18 84.01 209.82 84.01 211.46 84.01 213.09 84.01 214.73 84.01 216.38 84.01 218.01 84.01 219.65 84.01 221.28 84.01 222.92 84.01 222.89 82.47 222.82 80.94 222.68 79.42 222.5 77.9 222.25 76.39 221.96 74.89 221.61 73.39 221.22 71.91 220.78 70.45 220.28 69 219.72 67.56 219.12 66.15 218.48 64.76 217.78 63.39 217.03 62.04 216.24 60.72 215.41 59.43 214.53 58.16 213.6 56.93 212.64 55.73 211.63 54.55 210.58 53.42 209.49 52.32 208.36 51.25 207.21 50.23 206 49.25 204.78 48.3 203.51 47.39 202.22 46.53 200.9 45.72 199.54 44.95 198.17 44.22 196.77 43.54 195.34 42.9 193.89 42.32 192.43 41.78 190.94 41.29 189.44 40.85 187.93 40.47 186.4 40.13 184.87 39.84 183.31 39.6 181.76 39.43 180.2 39.29 178.64 39.22 177.08 39.19 175.51 39.22 173.95 39.29 172.39 39.43 170.84 39.6 169.28 39.84 167.75 40.13 166.22 40.47 164.71 40.85 163.21 41.29 161.72 41.78 160.26 42.32 158.81 42.9 157.39 43.54 155.98 44.22 154.61 44.95 153.25 45.72 151.93 46.53 150.64 47.39 149.37 48.3 148.15 49.25 146.94 50.23 145.79 51.25 144.66 52.32 143.57 53.42 142.52 54.55 141.51 55.73 140.55 56.93 139.62 58.16 138.74 59.43 137.91 60.72 137.12 62.04 136.37 63.39 135.67 64.76 135.03 66.15 134.43 67.56 133.87 69 133.37 70.45 132.93 71.91 132.54 73.39 132.19 74.89 131.9 76.39 131.65 77.9 131.47 79.42 131.33 80.94 131.26 82.47 131.23 84.01 132.87 84.01 134.5 84.01 136.14 84.01 137.77 84.01 139.42 84.01 141.06 84.01 142.69 84.01 144.33 84.01 145.96 84.01 147.6 84.01 149.24 84.01 150.87 84.01 152.52 84.01 154.15 84.01 154.2 82.47 154.36 80.95 154.63 79.45 155 77.96 155.47 76.5 156.05 75.07 156.72 73.69 157.49 72.36 158.35 71.08 159.29 69.86 160.32 68.71 161.43 67.63 162.61 66.63 163.86 65.7 165.16 64.86 166.53 64.11 167.94 63.45 169.4 62.89 170.89 62.43 172.41 62.07 173.96 61.81 175.51 61.65 177.08 61.6 178.64 61.65 180.19 61.81 181.73 62.07 183.26 62.43 184.75 62.89 186.21 63.45 187.62 64.11 188.98 64.86 190.29 65.7 191.54 66.63 192.72 67.63 193.83 68.71 194.86 69.86 195.8 71.08 196.66 72.36 197.43 73.69 198.09 75.07 198.68 76.5 199.15 77.96 199.51 79.45 199.79 80.95 199.95 82.47 199.99 84.01"/></g><g class="cls-7"><polygon class="cls-8" points="166.3 64.23 165.53 62.81 164.76 61.4 163.99 59.99 163.22 58.58 162.45 57.16 161.69 55.75 160.91 54.34 160.14 52.92 159.37 51.52 158.6 50.1 157.83 48.69 157.07 47.28 156.3 45.86 155.53 44.45 154.13 45.21 152.75 46.01 151.42 46.87 150.11 47.77 148.83 48.7 147.59 49.69 146.38 50.72 145.21 51.78 144.08 52.89 142.99 54.03 141.94 55.21 140.93 56.42 139.97 57.67 139.06 58.96 138.19 60.27 137.36 61.61 136.59 62.98 135.87 64.36 135.19 65.79 134.57 67.22 133.99 68.69 133.47 70.16 133.01 71.65 132.59 73.17 132.23 74.69 131.93 76.22 131.67 77.77 131.48 79.32 131.34 80.88 131.26 82.44 131.23 84.01 132.87 84.01 134.5 84.01 136.14 84.01 137.77 84.01 139.42 84.01 141.06 84.01 142.69 84.01 144.33 84.01 145.96 84.01 147.6 84.01 149.24 84.01 150.87 84.01 152.52 84.01 154.15 84.01 154.21 82.39 154.39 80.78 154.69 79.19 155.09 77.63 155.62 76.1 156.26 74.61 157.01 73.17 157.86 71.78 158.81 70.46 159.85 69.21 160.99 68.04 162.21 66.95 163.5 65.95 164.87 65.04 166.3 64.23"/></g><g class="cls-7"><text class="cls-5" transform="translate(154.49 88.67) scale(1.02 1)">34.42%</text></g><g class="cls-7"><text class="cls-6" transform="translate(159.39 120.88) scale(1.02 1)">Mujeres</text></g><g class="cls-9"><polygon class="cls-3" points="319.76 84.01 321.4 84.01 323.04 84.01 324.68 84.01 326.31 84.01 327.95 84.01 329.59 84.01 331.22 84.01 332.86 84.01 334.5 84.01 336.14 84.01 337.78 84.01 339.41 84.01 341.05 84.01 342.69 84.01 342.66 82.47 342.58 80.94 342.45 79.42 342.26 77.9 342.02 76.39 341.73 74.89 341.38 73.39 340.98 71.91 340.54 70.45 340.04 69 339.49 67.56 338.89 66.15 338.25 64.76 337.54 63.39 336.8 62.04 336.01 60.72 335.17 59.43 334.3 58.16 333.37 56.93 332.41 55.73 331.39 54.55 330.35 53.42 329.26 52.32 328.13 51.25 326.97 50.23 325.77 49.25 324.55 48.3 323.28 47.39 321.99 46.53 320.66 45.72 319.31 44.95 317.94 44.22 316.53 43.54 315.11 42.9 313.66 42.32 312.19 41.78 310.71 41.29 309.21 40.85 307.7 40.47 306.17 40.13 304.63 39.84 303.08 39.6 301.53 39.43 299.97 39.29 298.41 39.22 296.84 39.19 295.28 39.22 293.71 39.29 292.15 39.43 290.6 39.6 289.05 39.84 287.52 40.13 285.99 40.47 284.47 40.85 282.98 41.29 281.49 41.78 280.02 42.32 278.58 42.9 277.15 43.54 275.75 44.22 274.37 44.95 273.02 45.72 271.69 46.53 270.4 47.39 269.13 48.3 267.91 49.25 266.71 50.23 265.55 51.25 264.42 52.32 263.33 53.42 262.29 54.55 261.27 55.73 260.31 56.93 259.38 58.16 258.51 59.43 257.67 60.72 256.88 62.04 256.14 63.39 255.44 64.76 254.8 66.15 254.19 67.56 253.64 69 253.14 70.45 252.7 71.91 252.3 73.39 251.96 74.89 251.66 76.39 251.42 77.9 251.23 79.42 251.1 80.94 251.03 82.47 251 84.01 252.63 84.01 254.27 84.01 255.91 84.01 257.54 84.01 259.19 84.01 260.82 84.01 262.46 84.01 264.1 84.01 265.73 84.01 267.37 84.01 269 84.01 270.64 84.01 272.29 84.01 273.92 84.01 273.97 82.47 274.13 80.95 274.4 79.45 274.77 77.96 275.24 76.5 275.82 75.07 276.49 73.69 277.26 72.36 278.12 71.08 279.06 69.86 280.09 68.71 281.2 67.63 282.38 66.63 283.63 65.7 284.93 64.86 286.3 64.11 287.71 63.45 289.16 62.89 290.66 62.43 292.18 62.07 293.72 61.81 295.28 61.65 296.84 61.6 298.41 61.65 299.96 61.81 301.5 62.07 303.02 62.43 304.52 62.89 305.98 63.45 307.39 64.11 308.75 64.86 310.06 65.7 311.31 66.63 312.48 67.63 313.59 68.71 314.63 69.86 315.57 71.08 316.42 72.36 317.19 73.69 317.86 75.07 318.44 76.5 318.92 77.96 319.28 79.45 319.56 80.95 319.71 82.47 319.76 84.01"/></g><g class="cls-9"><polygon class="cls-10" points="297.49 61.61 297.52 60.01 297.57 58.41 297.62 56.81 297.66 55.21 297.71 53.6 297.76 52 297.81 50.4 297.84 48.8 297.89 47.21 297.94 45.61 297.98 44.01 298.03 42.41 298.08 40.81 298.13 39.21 296.56 39.19 295 39.23 293.44 39.31 291.89 39.45 290.35 39.64 288.81 39.88 287.27 40.17 285.76 40.52 284.25 40.91 282.76 41.36 281.28 41.85 279.83 42.39 278.39 42.98 276.97 43.62 275.58 44.3 274.2 45.04 272.87 45.81 271.55 46.63 270.26 47.49 269.01 48.39 267.79 49.34 266.6 50.32 265.44 51.35 264.32 52.42 263.25 53.51 262.2 54.65 261.2 55.82 260.24 57.01 259.33 58.24 258.45 59.51 257.62 60.8 256.84 62.11 256.09 63.46 255.41 64.82 254.76 66.21 254.17 67.63 253.62 69.05 253.13 70.5 252.68 71.96 252.28 73.44 251.95 74.92 251.66 76.41 251.42 77.92 251.23 79.44 251.1 80.95 251.03 82.48 251 84.01 252.63 84.01 254.27 84.01 255.91 84.01 257.54 84.01 259.19 84.01 260.82 84.01 262.46 84.01 264.1 84.01 265.73 84.01 267.37 84.01 269 84.01 270.64 84.01 272.29 84.01 273.92 84.01 273.98 82.44 274.14 80.9 274.41 79.36 274.8 77.86 275.29 76.37 275.89 74.92 276.58 73.53 277.37 72.18 278.26 70.88 279.23 69.65 280.3 68.49 281.44 67.41 282.66 66.41 283.94 65.48 285.29 64.65 286.69 63.91 288.15 63.27 289.64 62.73 291.17 62.3 292.73 61.96 294.3 61.74 295.89 61.62 297.49 61.61"/></g><g class="cls-9"><text class="cls-5" transform="translate(274.26 88.67) scale(1.02 1)">50.89%</text></g><g class="cls-9"><text class="cls-6" transform="translate(251.45 114.29) scale(1.02 1)">Hombres incluyendo</text></g><g class="cls-9"><text class="cls-6" transform="translate(255.4 127.47) scale(1.02 1)">Servicio Doméstico</text></g><g class="cls-11"><polygon class="cls-3" points="439.53 84.01 441.17 84.01 442.81 84.01 444.45 84.01 446.08 84.01 447.72 84.01 449.36 84.01 450.99 84.01 452.63 84.01 454.26 84.01 455.91 84.01 457.55 84.01 459.18 84.01 460.82 84.01 462.45 84.01 462.43 82.47 462.35 80.94 462.22 79.42 462.03 77.9 461.79 76.39 461.49 74.89 461.15 73.39 460.75 71.91 460.31 70.45 459.81 69 459.26 67.56 458.65 66.15 458.01 64.76 457.31 63.39 456.57 62.04 455.78 60.72 454.94 59.43 454.07 58.16 453.13 56.93 452.18 55.73 451.16 54.55 450.12 53.42 449.03 52.32 447.9 51.25 446.74 50.23 445.54 49.25 444.31 48.3 443.05 47.39 441.76 46.53 440.43 45.72 439.08 44.95 437.7 44.22 436.29 43.54 434.87 42.9 433.43 42.32 431.96 41.78 430.47 41.29 428.98 40.85 427.46 40.47 425.93 40.13 424.4 39.84 422.85 39.6 421.3 39.43 419.74 39.29 418.17 39.22 416.6 39.19 415.04 39.22 413.48 39.29 411.92 39.43 410.37 39.6 408.82 39.84 407.29 40.13 405.75 40.47 404.24 40.85 402.74 41.29 401.26 41.78 399.79 42.32 398.34 42.9 396.91 43.54 395.51 44.22 394.14 44.95 392.79 45.72 391.46 46.53 390.17 47.39 388.9 48.3 387.68 49.25 386.48 50.23 385.32 51.25 384.19 52.32 383.1 53.42 382.06 54.55 381.04 55.73 380.08 56.93 379.15 58.16 378.28 59.43 377.44 60.72 376.65 62.04 375.9 63.39 375.2 64.76 374.56 66.15 373.96 67.56 373.41 69 372.91 70.45 372.47 71.91 372.06 73.39 371.72 74.89 371.43 76.39 371.19 77.9 371 79.42 370.87 80.94 370.79 82.47 370.76 84.01 372.4 84.01 374.04 84.01 375.67 84.01 377.31 84.01 378.95 84.01 380.59 84.01 382.23 84.01 383.86 84.01 385.5 84.01 387.13 84.01 388.77 84.01 390.41 84.01 392.05 84.01 393.69 84.01 393.74 82.47 393.89 80.95 394.17 79.45 394.54 77.96 395 76.5 395.58 75.07 396.26 73.69 397.03 72.36 397.88 71.08 398.82 69.86 399.86 68.71 400.97 67.63 402.14 66.63 403.39 65.7 404.7 64.86 406.06 64.11 407.47 63.45 408.93 62.89 410.43 62.43 411.94 62.07 413.49 61.81 415.04 61.65 416.6 61.6 418.17 61.65 419.73 61.81 421.27 62.07 422.79 62.43 424.29 62.89 425.74 63.45 427.15 64.11 428.52 64.86 429.82 65.7 431.07 66.63 432.25 67.63 433.36 68.71 434.39 69.86 435.33 71.08 436.19 72.36 436.96 73.69 437.63 75.07 438.21 76.5 438.68 77.96 439.05 79.45 439.32 80.95 439.48 82.47 439.53 84.01"/></g><g class="cls-11"><polygon class="cls-12" points="415.69 61.62 415.63 60.02 415.56 58.42 415.49 56.82 415.43 55.22 415.36 53.62 415.3 52.02 415.23 50.42 415.17 48.82 415.1 47.22 415.03 45.63 414.97 44.03 414.9 42.43 414.84 40.83 414.77 39.23 413.21 39.31 411.66 39.46 410.12 39.64 408.57 39.89 407.04 40.17 405.52 40.52 404.01 40.92 402.53 41.36 401.05 41.85 399.59 42.39 398.15 42.99 396.74 43.62 395.34 44.3 393.97 45.04 392.63 45.81 391.32 46.63 390.03 47.49 388.77 48.39 387.55 49.34 386.36 50.33 385.21 51.35 384.09 52.42 383.01 53.51 381.97 54.65 380.97 55.82 380.01 57.01 379.1 58.25 378.22 59.51 377.38 60.8 376.6 62.12 375.86 63.46 375.17 64.82 374.52 66.21 373.93 67.63 373.39 69.05 372.9 70.5 372.45 71.96 372.05 73.44 371.71 74.92 371.42 76.41 371.19 77.92 371 79.44 370.87 80.95 370.79 82.48 370.76 84.01 372.4 84.01 374.04 84.01 375.67 84.01 377.31 84.01 378.95 84.01 380.59 84.01 382.23 84.01 383.86 84.01 385.5 84.01 387.13 84.01 388.77 84.01 390.41 84.01 392.05 84.01 393.69 84.01 393.75 82.44 393.9 80.9 394.19 79.36 394.56 77.85 395.06 76.37 395.65 74.92 396.35 73.52 397.15 72.17 398.03 70.87 399.01 69.64 400.07 68.48 401.22 67.4 402.44 66.39 403.73 65.47 405.08 64.64 406.48 63.91 407.93 63.26 409.43 62.72 410.96 62.29 412.52 61.96 414.1 61.73 415.69 61.62"/></g><g class="cls-11"><text class="cls-5" transform="translate(394.03 88.67) scale(1.02 1)">48.72%</text></g><g class="cls-11"><text class="cls-6" transform="translate(373.81 114.29) scale(1.02 1)">Mujeres incluyendo</text></g><g class="cls-11"><text class="cls-6" transform="translate(375.17 127.47) scale(1.02 1)">Servicio Doméstico</text></g><text class="cls-13" transform="translate(0 25.56) scale(1.02 1)">Tercer trimestre 2020</text><g class="cls-14"><text class="cls-15" transform="translate(0 10.4) scale(1.02 1)">Tasa de actividad por sexo</text></g><g class="cls-16"><text class="cls-17" transform="translate(400.18 150.82) scale(1.02 1)">Fuente: EPH-INDEC</text></g></g></g></svg>