<svg height="512pt" viewBox="-146 0 512 512.00026" width="512pt" xmlns="http://www.w3.org/2000/svg"><path d="m159.535156 49.886719c0 27.550781-22.332031 49.886719-49.886718 49.886719-27.550782 0-49.882813-22.335938-49.882813-49.886719s22.332031-49.886719 49.882813-49.886719c27.554687 0 49.886718 22.335938 49.886718 49.886719zm0 0" fill="#8bcaff"/><path d="m109.648438 0c-3.640626 0-7.191407.402344-10.613282 1.144531 22.449219 4.867188 39.269532 24.835938 39.269532 48.742188s-16.820313 43.875-39.269532 48.742187c3.421875.742188 6.96875 1.144532 10.613282 1.144532 27.550781 0 49.886718-22.335938 49.886718-49.886719s-22.335937-49.886719-49.886718-49.886719zm0 0" fill="#60b8ff"/><path d="m160.632812 108.273438h-101.964843c-32.402344 0-58.667969 26.269531-58.667969 58.667968v125.644532c0 10.234374 7.960938 18.949218 18.1875 19.3125 10.738281.382812 19.566406-8.210938 19.566406-18.863282v-115.820312c0-5.671875 4.597656-10.273438 10.269532-10.273438 5.671874 0 10.269531 4.597656 10.269531 10.273438v315.457031c0 10.234375 7.960937 18.953125 18.1875 19.316406 10.742187.378907 19.566406-8.210937 19.566406-18.867187v-136.65625c0-7.511719 6.089844-13.601563 13.601563-13.601563 7.515624 0 13.605468 6.089844 13.605468 13.601563v136.65625c0 10.425781 8.449219 18.878906 18.875 18.878906 10.425782 0 18.875-8.453125 18.875-18.878906v-315.90625c0-5.675782 4.597656-10.273438 10.269532-10.273438 5.671874 0 10.273437 4.597656 10.273437 10.273438v115.820312c0 10.425782 8.449219 18.875 18.875 18.875s18.875-8.449218 18.875-18.875v-126.09375c.003906-32.402344-26.265625-58.667968-58.664063-58.667968zm0 0" fill="#8bcaff"/><g fill="#60b8ff"><path d="m77.308594 358.480469v134.644531c0 6.992188-3.816406 13.078125-9.46875 16.339844.402344.238281.816406.453125 1.234375.660156.164062.078125.328125.15625.492187.230469.441406.199219.882813.386719 1.339844.550781.117188.042969.234375.078125.351562.117188.414063.140624.835938.265624 1.261719.378906.121094.03125.242188.066406.367188.09375.507812.121094 1.023437.21875 1.550781.296875.117188.019531.238281.03125.359375.050781.554687.070312 1.117187.125 1.683594.144531 5.371093.191407 10.261719-1.863281 13.808593-5.292969 2.664063-2.574218 4.570313-5.925781 5.355469-9.6875.261719-1.253906.402344-2.550781.402344-3.882812v-136.660156c0-7.511719 6.089844-13.601563 13.601563-13.601563h-16.726563c-8.621094 0-15.613281 6.992188-15.613281 15.617188zm0 0"/><path d="m142.265625 182.558594v310.5625c0 7.015625-3.832031 13.117187-9.503906 16.375.296875.171875.601562.328125.910156.484375.125.0625.25.121093.375.179687.460937.222656.929687.421875 1.410156.601563.238281.09375.476563.183593.722657.265625.238281.082031.484374.152344.726562.222656.347656.101562.699219.191406 1.054688.273438.171874.039062.34375.082031.515624.117187.492188.09375.992188.167969 1.496094.226563.152344.019531.308594.03125.460938.046874.558594.050782 1.125.085938 1.695312.085938 5.863282 0 11.105469-2.675781 14.566406-6.867188.769532-.933593 1.453126-1.941406 2.03125-3.011718.292969-.535156.558594-1.085938.796876-1.648438.714843-1.695312 1.191406-3.515625 1.386718-5.417968.0625-.636719.097656-1.28125.097656-1.933594v-315.90625c0-5.675782 4.597657-10.273438 10.269532-10.273438h-13.394532c-8.625 0-15.617187 6.992188-15.617187 15.617188zm0 0"/><path d="m48.023438 166.941406c-5.671876 0-10.269532 4.597656-10.269532 10.273438v115.820312c0 10.65625-8.828125 19.246094-19.566406 18.867188-.570312-.019532-1.128906-.078125-1.683594-.148438-.121094-.015625-.242187-.03125-.359375-.046875-.527343-.078125-1.042969-.175781-1.554687-.296875-.121094-.03125-.238282-.066406-.359375-.097656-.429688-.109375-.851563-.238281-1.265625-.375-.117188-.042969-.238282-.074219-.351563-.117188-.457031-.164062-.898437-.351562-1.339843-.550781-.164063-.074219-.328126-.152343-.492188-.234375-.417969-.203125-.832031-.421875-1.234375-.65625 5.652344-3.261718 9.46875-9.347656 9.46875-16.34375v-110.476562c0-8.625 6.992187-15.617188 15.613281-15.617188zm0 0"/><path d="m160.632812 108.273438h-18.738281c32.398438 0 58.667969 26.269531 58.667969 58.667968v126.09375c0 7.015625-3.832031 13.117188-9.507812 16.375 2.761718 1.582032 5.957031 2.503906 9.367187 2.503906 10.425781 0 18.878906-8.453124 18.878906-18.878906v-126.09375c0-32.402344-26.269531-58.667968-58.667969-58.667968zm0 0"/></g></svg>