<svg xmlns="http://www.w3.org/2000/svg" viewBox="0 0 1038.6 838.04"><defs><style>.cls-1,.cls-2,.cls-3,.cls-31{fill:none;stroke-miterlimit:10;}.cls-1{stroke:#13c753;}.cls-2{stroke:#0e9840;}.cls-3{stroke:#0a6a2c;}.cls-11,.cls-4{fill:#053b19;}.cls-10,.cls-14,.cls-19,.cls-20,.cls-23,.cls-26,.cls-28,.cls-5{font-size:20.28px;}.cls-26,.cls-35,.cls-5{fill:#fff;font-family:Raleway-ExtraBold, Raleway;font-weight:800;}.cls-6{letter-spacing:-0.11em;}.cls-7{letter-spacing:-0.01em;}.cls-8{letter-spacing:-0.03em;}.cls-9{letter-spacing:-0.03em;}.cls-10,.cls-19,.cls-38{font-family:OpenSans-Semibold, Open Sans;font-weight:600;}.cls-11{font-size:22.3px;}.cls-11,.cls-14,.cls-20,.cls-23,.cls-28,.cls-39{font-family:OpenSans-BoldItalic, Open Sans;font-weight:700;font-style:italic;}.cls-12,.cls-14{fill:#0a6a2c;}.cls-13{letter-spacing:-0.01em;}.cls-15,.cls-20{fill:#0e9840;}.cls-16{letter-spacing:-0.02em;}.cls-17{letter-spacing:-0.03em;}.cls-18{letter-spacing:-0.03em;}.cls-19,.cls-38{fill:#1d1d1b;}.cls-21{letter-spacing:-0.01em;}.cls-22,.cls-23,.cls-39{fill:#23ea6a;}.cls-24{letter-spacing:-0.01em;}.cls-25,.cls-28{fill:#13c753;}.cls-26,.cls-32{letter-spacing:-0.01em;}.cls-27{letter-spacing:0em;}.cls-29{letter-spacing:-0.01em;}.cls-30{letter-spacing:-0.01em;}.cls-31{stroke:#053b19;}.cls-33{letter-spacing:0em;}.cls-34{letter-spacing:-0.11em;}.cls-35,.cls-38,.cls-39{font-size:19.2px;}.cls-36{letter-spacing:-0.01em;}.cls-37{letter-spacing:-0.03em;}</style></defs><g id="Capa_2" data-name="Capa 2"><g id="Capa_1-2" data-name="Capa 1"><line class="cls-1" x1="352.42" y1="704.41" x2="415.67" y2="777.5"/><line class="cls-1" x1="202.86" y1="704.41" x2="139.61" y2="777.5"/><line class="cls-2" x1="419.41" y1="630.65" x2="335.7" y2="678.98"/><line class="cls-3" x1="236.99" y1="254.84" x2="148.55" y2="200.56"/><path class="cls-4" d="M31.11,367h147.4a0,0,0,0,1,0,0v55.94a7.9,7.9,0,0,1-7.9,7.9H39a7.9,7.9,0,0,1-7.9-7.9V367A0,0,0,0,1,31.11,367Z"/><text class="cls-5" transform="translate(65.34 392.93)"><tspan class="cls-6">T</tspan><tspan class="cls-7" x="10.28" y="0">o</tspan><tspan x="22.51" y="0">ta</tspan><tspan class="cls-8" x="42.54" y="0">l</tspan><tspan x="48.7" y="0" xml:space="preserve"> de </tspan><tspan x="-0.24" y="24.33">muje</tspan><tspan class="cls-9" x="49.23" y="24.33">r</tspan><tspan x="56.81" y="24.33">es</tspan></text><text class="cls-10" transform="translate(67.3 454.93)">160.302</text><text class="cls-11" transform="translate(76.84 358.14)">100%</text><path class="cls-12" d="M234.61,252.31H364.32a0,0,0,0,1,0,0v35.18a7.9,7.9,0,0,1-7.9,7.9H242.51a7.9,7.9,0,0,1-7.9-7.9V252.31A0,0,0,0,1,234.61,252.31Z"/><text class="cls-5" transform="translate(255.18 278.92)">Inacti<tspan class="cls-13" x="55.56" y="0">v</tspan><tspan x="66.57" y="0">as</tspan></text><text class="cls-10" transform="translate(267.75 319.63)">96.116</text><text class="cls-14" transform="translate(279.62 243.55)">60%</text><path class="cls-15" d="M241.38,26.24H434.9a0,0,0,0,1,0,0v90.27a7.9,7.9,0,0,1-7.9,7.9H249.28a7.9,7.9,0,0,1-7.9-7.9V26.24A0,0,0,0,1,241.38,26.24Z"/><text class="cls-5" transform="translate(286 56.71)"><tspan class="cls-8">A</tspan><tspan x="12.96" y="0" xml:space="preserve"> ca</tspan><tspan class="cls-9" x="41.12" y="0">r</tspan><tspan x="48.7" y="0">go de</tspan><tspan x="-27.98" y="24.33">ta</tspan><tspan class="cls-9" x="-7.95" y="24.33">r</tspan><tspan x="-0.37" y="24.33">eas de</tspan><tspan class="cls-8" x="64.11" y="24.33">l</tspan><tspan x="70.28" y="24.33" xml:space="preserve"> hoga</tspan><tspan class="cls-16" x="124.64" y="24.33">r</tspan><tspan class="cls-17" x="-14" y="48.66">y</tspan><tspan x="-3.36" y="48.66" xml:space="preserve"> de</tspan><tspan class="cls-18" x="26.88" y="48.66">l</tspan><tspan x="33.04" y="48.66" xml:space="preserve"> cuidado</tspan></text><text class="cls-19" transform="translate(306.41 148.65)">30.776</text><text class="cls-20" transform="translate(318.29 17.38)">32%</text><path class="cls-15" d="M29,156.12H167.1a0,0,0,0,1,0,0v41.05a7.9,7.9,0,0,1-7.9,7.9H36.94a7.9,7.9,0,0,1-7.9-7.9V156.12A0,0,0,0,1,29,156.12Z"/><text class="cls-5" transform="translate(50.51 186.92)">Jubiladas</text><text class="cls-19" transform="translate(66.35 229.32)">31.057</text><text class="cls-20" transform="translate(78.22 147.23)">32%</text><path class="cls-15" d="M443.29,313.73h108.5a0,0,0,0,1,0,0v36.46a7.9,7.9,0,0,1-7.9,7.9H451.19a7.9,7.9,0,0,1-7.9-7.9V313.73A0,0,0,0,1,443.29,313.73Z"/><text class="cls-5" transform="translate(469.59 341.13)"><tspan class="cls-21">R</tspan><tspan x="13.28" y="0">es</tspan><tspan class="cls-13" x="35.65" y="0">t</tspan><tspan x="43.53" y="0">o</tspan></text><text class="cls-19" transform="translate(471.61 382.19)">1.767</text><text class="cls-20" transform="translate(483.28 305.03)">2%</text><path class="cls-22" d="M360.89,757.47H553.08a0,0,0,0,1,0,0v41.05a7.9,7.9,0,0,1-7.9,7.9H368.78a7.9,7.9,0,0,1-7.9-7.9V757.47A0,0,0,0,1,360.89,757.47Z"/><text class="cls-5" transform="translate(384.98 788.83)"><tspan class="cls-7">N</tspan><tspan x="15.25" y="0">o </tspan><tspan class="cls-9" x="32.34" y="0">r</tspan><tspan x="39.92" y="0">egist</tspan><tspan class="cls-7" x="88.89" y="0">r</tspan><tspan x="96.86" y="0">adas</tspan></text><text class="cls-19" transform="translate(431.05 830.8)">9.838</text><text class="cls-23" transform="translate(437.14 748.64)">26%</text><path class="cls-22" d="M0,757.54H192.19a0,0,0,0,1,0,0V798.6a7.9,7.9,0,0,1-7.9,7.9H7.9A7.9,7.9,0,0,1,0,798.6V757.54A0,0,0,0,1,0,757.54Z"/><text class="cls-5" transform="translate(37.41 789.14)"><tspan class="cls-21">R</tspan><tspan x="13.28" y="0">egist</tspan><tspan class="cls-24" x="62.25" y="0">r</tspan><tspan x="70.22" y="0">adas</tspan></text><text class="cls-19" transform="translate(64.37 830.73)">28.366</text><text class="cls-23" transform="translate(76.25 748.72)">74%</text><path class="cls-25" d="M191.94,664.16H364.15a0,0,0,0,1,0,0v41.05a7.9,7.9,0,0,1-7.9,7.9H199.84a7.9,7.9,0,0,1-7.9-7.9V664.16A0,0,0,0,1,191.94,664.16Z"/><text class="cls-26" transform="translate(220.62 695.94)">A<tspan class="cls-27" x="13.46" y="0">salariadas</tspan></text><text class="cls-19" transform="translate(246.32 737.36)">38.204</text><text class="cls-28" transform="translate(258.2 655.26)">65%</text><text class="cls-10" transform="translate(277.13 567.05)">64.186</text><text class="cls-14" transform="translate(289.01 491.21)">40%</text><path class="cls-12" d="M244.15,499.83H373.56a0,0,0,0,1,0,0v35.08a7.9,7.9,0,0,1-7.9,7.9H252a7.9,7.9,0,0,1-7.9-7.9V499.83a0,0,0,0,1,0,0Z"/><text class="cls-5" transform="translate(273.1 526.46)"><tspan class="cls-29">A</tspan><tspan x="13.3" y="0">cti</tspan><tspan class="cls-30" x="38.48" y="0">v</tspan><tspan x="49.5" y="0">as</tspan></text><line class="cls-31" x1="175.51" y1="369.86" x2="246.26" y2="294.43"/><line class="cls-3" x1="362.29" y1="254.84" x2="451.31" y2="200.2"/><line class="cls-2" x1="546.14" y1="590.67" x2="635.15" y2="536.03"/><line class="cls-3" x1="299.47" y1="220.54" x2="299.47" y2="124.4"/><line class="cls-3" x1="359.58" y1="287.88" x2="443.29" y2="336.21"/><line class="cls-1" x1="798.17" y1="498.29" x2="887.18" y2="443.66"/><line class="cls-1" x1="795.46" y1="560.38" x2="879.17" y2="608.71"/><line class="cls-2" x1="542" y1="629.2" x2="625.71" y2="677.53"/><line class="cls-3" x1="359.58" y1="539.28" x2="447.95" y2="590.3"/><line class="cls-3" x1="254.18" y1="538.56" x2="170.47" y2="586.89"/><line class="cls-31" x1="174.28" y1="425.45" x2="245.03" y2="500.88"/><path class="cls-15" d="M29.64,585.61H211.09a0,0,0,0,1,0,0v41.05a7.9,7.9,0,0,1-7.9,7.9H37.53a7.9,7.9,0,0,1-7.9-7.9V585.61A0,0,0,0,1,29.64,585.61Z"/><text class="cls-5" transform="translate(53.54 616.68)">Desocupadas</text><text class="cls-19" transform="translate(94.43 658.81)">5.096</text><text class="cls-20" transform="translate(106.1 576.73)">8%</text><path class="cls-15" d="M450,172.89H622.16a0,0,0,0,1,0,0v41.05a7.9,7.9,0,0,1-7.9,7.9H457.85a7.9,7.9,0,0,1-7.9-7.9V172.89a0,0,0,0,1,0,0Z"/><text class="cls-5" transform="translate(477.96 202.71)"><tspan class="cls-32">E</tspan><tspan class="cls-27" x="12.02" y="0">studia</tspan><tspan class="cls-33" x="73.62" y="0">n</tspan><tspan class="cls-13" x="85.93" y="0">t</tspan><tspan x="93.82" y="0">es</tspan></text><text class="cls-19" transform="translate(504.33 246.09)">32.516</text><text class="cls-20" transform="translate(516.21 164.07)">34%</text><path class="cls-15" d="M413.07,587.6H551.13a0,0,0,0,1,0,0v41.05a7.9,7.9,0,0,1-7.9,7.9H421a7.9,7.9,0,0,1-7.9-7.9V587.6A0,0,0,0,1,413.07,587.6Z"/><text class="cls-5" transform="translate(432.2 618.71)">Ocupadas</text><text class="cls-19" transform="translate(450.38 660.8)">59.090</text><text class="cls-20" transform="translate(462.25 578.78)">92%</text><path class="cls-25" d="M597.11,491.69H803.94a0,0,0,0,1,0,0v66.17a7.9,7.9,0,0,1-7.9,7.9H605a7.9,7.9,0,0,1-7.9-7.9V491.69A0,0,0,0,1,597.11,491.69Z"/><text class="cls-5" transform="translate(621.78 523.41)"><tspan class="cls-34">T</tspan><tspan class="cls-7" x="10.36" y="0">r</tspan><tspan x="18.33" y="0">abajado</tspan><tspan class="cls-7" x="98.14" y="0">r</tspan><tspan x="106.11" y="0">as en</tspan><tspan x="-11.14" y="24.33">casas particula</tspan><tspan class="cls-9" x="138.68" y="24.33">r</tspan><tspan x="146.26" y="24.33">es</tspan></text><text class="cls-19" transform="translate(674.59 590)">6.690</text><text class="cls-28" transform="translate(680.68 482.85)">11%</text><path class="cls-25" d="M603.76,667.75H791.62a0,0,0,0,1,0,0V708.8a7.9,7.9,0,0,1-7.9,7.9H611.66a7.9,7.9,0,0,1-7.9-7.9V667.75A0,0,0,0,1,603.76,667.75Z"/><text class="cls-5" transform="translate(624.88 699.35)"><tspan class="cls-7">N</tspan><tspan x="15.25" y="0">o asalariadas</tspan></text><text class="cls-19" transform="translate(665.97 740.95)">14.196</text><text class="cls-28" transform="translate(677.85 658.9)">24%</text><path class="cls-22" d="M846.41,428.12H1038.6a0,0,0,0,1,0,0v38.46a7.9,7.9,0,0,1-7.9,7.9H854.31a7.9,7.9,0,0,1-7.9-7.9V428.12A0,0,0,0,1,846.41,428.12Z"/><text class="cls-35" transform="translate(870.51 458.18) scale(1.06 1)"><tspan class="cls-36">N</tspan><tspan x="14.44" y="0">o </tspan><tspan class="cls-37" x="30.63" y="0">r</tspan><tspan x="37.81" y="0">egist</tspan><tspan class="cls-36" x="84.19" y="0">r</tspan><tspan x="91.74" y="0">adas</tspan></text><text class="cls-38" transform="translate(916.57 497.45) scale(1.06 1)">4.680</text><text class="cls-39" transform="translate(922.66 419.82) scale(1.06 1)">70%</text><path class="cls-22" d="M846.41,585.3H1038.6a0,0,0,0,1,0,0v41.05a7.9,7.9,0,0,1-7.9,7.9H854.31a7.9,7.9,0,0,1-7.9-7.9V585.3a0,0,0,0,1,0,0Z"/><text class="cls-5" transform="translate(883.83 616.99)"><tspan class="cls-21">R</tspan><tspan x="13.28" y="0">egist</tspan><tspan class="cls-24" x="62.25" y="0">r</tspan><tspan x="70.22" y="0">adas</tspan></text><text class="cls-19" transform="translate(916.57 658.5)">2.010</text><text class="cls-23" transform="translate(922.66 576.55)">30%</text></g></g></svg>