<svg xmlns="http://www.w3.org/2000/svg" xmlns:xlink="http://www.w3.org/1999/xlink" viewBox="0 0 493.57 160.58"><defs><style>.cls-1,.cls-23,.cls-3,.cls-4{fill:none;}.cls-2{clip-path:url(#clip-path);}.cls-17,.cls-3,.cls-4{stroke:#fff;}.cls-17,.cls-23,.cls-3,.cls-4{stroke-linejoin:round;}.cls-3{stroke-width:0.53px;}.cls-17,.cls-23,.cls-4{stroke-width:1.07px;}.cls-27,.cls-5{fill:#29aee4;}.cls-28,.cls-6{fill:#0c8136;}.cls-18,.cls-24,.cls-25,.cls-26,.cls-27,.cls-28,.cls-7{isolation:isolate;}.cls-7{font-size:11.04px;font-family:ArialMT, Arial;}.cls-8{letter-spacing:-0.06em;}.cls-9{letter-spacing:0.02em;}.cls-10{clip-path:url(#clip-path-16);}.cls-11{clip-path:url(#clip-path-31);}.cls-12{letter-spacing:0.02em;}.cls-13{clip-path:url(#clip-path-46);}.cls-14{letter-spacing:-0.06em;}.cls-15{letter-spacing:0.02em;}.cls-16{clip-path:url(#clip-path-61);}.cls-17{fill:#fff;stroke-linecap:round;}.cls-18,.cls-24{font-size:8.8px;}.cls-18{fill:#1a1a1a;}.cls-18,.cls-27,.cls-28{font-family:OpenSans-Bold, Open Sans;font-weight:700;}.cls-19{clip-path:url(#clip-path-63);}.cls-20{clip-path:url(#clip-path-65);}.cls-21{clip-path:url(#clip-path-67);}.cls-22{clip-path:url(#clip-path-69);}.cls-23{stroke:#333;}.cls-24,.cls-25,.cls-26{font-family:OpenSans-Regular, Open Sans;}.cls-25{font-size:11px;}.cls-26,.cls-27,.cls-28{font-size:13.2px;}</style><clipPath id="clip-path" transform="translate(-5.48 -157.21)"><rect class="cls-1" x="41.08" y="210.31" width="110.25" height="104.74"/></clipPath><clipPath id="clip-path-16" transform="translate(-5.48 -157.21)"><rect class="cls-1" x="156.81" y="210.31" width="110.25" height="104.74"/></clipPath><clipPath id="clip-path-31" transform="translate(-5.48 -157.21)"><rect class="cls-1" x="272.54" y="210.31" width="110.25" height="104.74"/></clipPath><clipPath id="clip-path-46" transform="translate(-5.48 -157.21)"><rect class="cls-1" x="388.27" y="210.31" width="110.25" height="104.74"/></clipPath><clipPath id="clip-path-61" transform="translate(-5.48 -157.21)"><rect class="cls-1" x="41.08" y="193.15" width="110.25" height="17.16"/></clipPath><clipPath id="clip-path-63" transform="translate(-5.48 -157.21)"><rect class="cls-1" x="156.81" y="193.15" width="110.25" height="17.16"/></clipPath><clipPath id="clip-path-65" transform="translate(-5.48 -157.21)"><rect class="cls-1" x="272.54" y="193.15" width="110.25" height="17.16"/></clipPath><clipPath id="clip-path-67" transform="translate(-5.48 -157.21)"><rect class="cls-1" x="388.27" y="193.15" width="110.25" height="17.16"/></clipPath><clipPath id="clip-path-69" transform="translate(-5.48 -157.21)"><rect class="cls-1" width="504" height="504"/></clipPath></defs><g id="Capa_2" data-name="Capa 2"><g id="Capa_1-2" data-name="Capa 1"><g class="cls-2"><line class="cls-3" x1="35.6" y1="143.37" x2="145.85" y2="143.37"/></g><g class="cls-2"><line class="cls-3" x1="35.6" y1="123.95" x2="145.85" y2="123.95"/></g><g class="cls-2"><line class="cls-3" x1="35.6" y1="104.52" x2="145.85" y2="104.52"/></g><g class="cls-2"><line class="cls-3" x1="35.6" y1="85.1" x2="145.85" y2="85.1"/></g><g class="cls-2"><line class="cls-3" x1="35.6" y1="65.68" x2="145.85" y2="65.68"/></g><g class="cls-2"><line class="cls-4" x1="35.6" y1="153.08" x2="145.85" y2="153.08"/></g><g class="cls-2"><line class="cls-4" x1="35.6" y1="133.66" x2="145.85" y2="133.66"/></g><g class="cls-2"><line class="cls-4" x1="35.6" y1="114.23" x2="145.85" y2="114.23"/></g><g class="cls-2"><line class="cls-4" x1="35.6" y1="94.81" x2="145.85" y2="94.81"/></g><g class="cls-2"><line class="cls-4" x1="35.6" y1="75.39" x2="145.85" y2="75.39"/></g><g class="cls-2"><line class="cls-4" x1="35.6" y1="55.97" x2="145.85" y2="55.97"/></g><g class="cls-2"><rect class="cls-5" x="43.12" y="64.81" width="45.1" height="88.27"/></g><g class="cls-2"><rect class="cls-6" x="93.23" y="57.86" width="45.1" height="95.22"/></g><g class="cls-2"><text class="cls-7" transform="translate(51.86 72.71)"><tspan class="cls-8">1</tspan><tspan class="cls-9" x="5.53" y="0">1.3</tspan><tspan x="21.49" y="0">6</tspan></text></g><g class="cls-2"><text class="cls-7" transform="translate(101.97 65.77)">12.26</text></g><g class="cls-10"><line class="cls-3" x1="151.33" y1="143.37" x2="261.58" y2="143.37"/></g><g class="cls-10"><line class="cls-3" x1="151.33" y1="123.95" x2="261.58" y2="123.95"/></g><g class="cls-10"><line class="cls-3" x1="151.33" y1="104.52" x2="261.58" y2="104.52"/></g><g class="cls-10"><line class="cls-3" x1="151.33" y1="85.1" x2="261.58" y2="85.1"/></g><g class="cls-10"><line class="cls-3" x1="151.33" y1="65.68" x2="261.58" y2="65.68"/></g><g class="cls-10"><line class="cls-4" x1="151.33" y1="153.08" x2="261.58" y2="153.08"/></g><g class="cls-10"><line class="cls-4" x1="151.33" y1="133.66" x2="261.58" y2="133.66"/></g><g class="cls-10"><line class="cls-4" x1="151.33" y1="114.23" x2="261.58" y2="114.23"/></g><g class="cls-10"><line class="cls-4" x1="151.33" y1="94.81" x2="261.58" y2="94.81"/></g><g class="cls-10"><line class="cls-4" x1="151.33" y1="75.39" x2="261.58" y2="75.39"/></g><g class="cls-10"><line class="cls-4" x1="151.33" y1="55.97" x2="261.58" y2="55.97"/></g><g class="cls-10"><rect class="cls-5" x="158.85" y="72.16" width="45.1" height="80.91"/></g><g class="cls-10"><rect class="cls-6" x="208.96" y="69.03" width="45.1" height="84.05"/></g><g class="cls-10"><text class="cls-7" transform="translate(167.59 80.07)">10.42</text></g><g class="cls-10"><text class="cls-7" transform="translate(217.7 76.93)">10.82</text></g><g class="cls-11"><line class="cls-3" x1="267.06" y1="143.37" x2="377.31" y2="143.37"/></g><g class="cls-11"><line class="cls-3" x1="267.06" y1="123.95" x2="377.31" y2="123.95"/></g><g class="cls-11"><line class="cls-3" x1="267.06" y1="104.52" x2="377.31" y2="104.52"/></g><g class="cls-11"><line class="cls-3" x1="267.06" y1="85.1" x2="377.31" y2="85.1"/></g><g class="cls-11"><line class="cls-3" x1="267.06" y1="65.68" x2="377.31" y2="65.68"/></g><g class="cls-11"><line class="cls-4" x1="267.06" y1="153.08" x2="377.31" y2="153.08"/></g><g class="cls-11"><line class="cls-4" x1="267.06" y1="133.66" x2="377.31" y2="133.66"/></g><g class="cls-11"><line class="cls-4" x1="267.06" y1="114.23" x2="377.31" y2="114.23"/></g><g class="cls-11"><line class="cls-4" x1="267.06" y1="94.81" x2="377.31" y2="94.81"/></g><g class="cls-11"><line class="cls-4" x1="267.06" y1="75.39" x2="377.31" y2="75.39"/></g><g class="cls-11"><line class="cls-4" x1="267.06" y1="55.97" x2="377.31" y2="55.97"/></g><g class="cls-11"><rect class="cls-5" x="274.58" y="70.62" width="45.1" height="82.46"/></g><g class="cls-11"><rect class="cls-6" x="324.69" y="66.01" width="45.1" height="87.07"/></g><g class="cls-11"><text class="cls-7" transform="translate(283.32 78.52)">10.61</text></g><g class="cls-11"><text class="cls-7" transform="translate(333.43 73.91)"><tspan class="cls-8">1</tspan><tspan class="cls-12" x="5.53" y="0">1.2</tspan><tspan x="21.49" y="0">1</tspan></text></g><g class="cls-13"><line class="cls-3" x1="382.79" y1="143.37" x2="493.04" y2="143.37"/></g><g class="cls-13"><line class="cls-3" x1="382.79" y1="123.95" x2="493.04" y2="123.95"/></g><g class="cls-13"><line class="cls-3" x1="382.79" y1="104.52" x2="493.04" y2="104.52"/></g><g class="cls-13"><line class="cls-3" x1="382.79" y1="85.1" x2="493.04" y2="85.1"/></g><g class="cls-13"><line class="cls-3" x1="382.79" y1="65.68" x2="493.04" y2="65.68"/></g><g class="cls-13"><line class="cls-4" x1="382.79" y1="153.08" x2="493.04" y2="153.08"/></g><g class="cls-13"><line class="cls-4" x1="382.79" y1="133.66" x2="493.04" y2="133.66"/></g><g class="cls-13"><line class="cls-4" x1="382.79" y1="114.23" x2="493.04" y2="114.23"/></g><g class="cls-13"><line class="cls-4" x1="382.79" y1="94.81" x2="493.04" y2="94.81"/></g><g class="cls-13"><line class="cls-4" x1="382.79" y1="75.39" x2="493.04" y2="75.39"/></g><g class="cls-13"><line class="cls-4" x1="382.79" y1="55.97" x2="493.04" y2="55.97"/></g><g class="cls-13"><rect class="cls-5" x="390.31" y="65.14" width="45.1" height="87.94"/></g><g class="cls-13"><rect class="cls-6" x="440.42" y="65.44" width="45.1" height="87.64"/></g><g class="cls-13"><text class="cls-7" transform="translate(399.05 73.04)"><tspan class="cls-8">1</tspan><tspan class="cls-9" x="5.53" y="0">1.3</tspan><tspan x="21.49" y="0">2</tspan></text></g><g class="cls-13"><text class="cls-7" transform="translate(449.16 73.34)"><tspan class="cls-14">1</tspan><tspan class="cls-15" x="5.53" y="0">1.2</tspan><tspan x="21.49" y="0">8</tspan></text></g><g class="cls-16"><rect class="cls-17" x="35.6" y="35.94" width="110.25" height="17.16"/></g><g class="cls-16"><text class="cls-18" transform="translate(67.67 47.66)">Corrientes</text></g><g class="cls-19"><rect class="cls-17" x="151.33" y="35.94" width="110.25" height="17.16"/></g><g class="cls-19"><text class="cls-18" transform="translate(187.43 47.66)">Formosa</text></g><g class="cls-20"><rect class="cls-17" x="267.06" y="35.94" width="110.25" height="17.16"/></g><g class="cls-20"><text class="cls-18" transform="translate(285.42 47.66)">Gran Resistencia</text></g><g class="cls-21"><rect class="cls-17" x="382.79" y="35.94" width="110.25" height="17.16"/></g><g class="cls-21"><text class="cls-18" transform="translate(419.95 47.66)">Posadas</text></g><g class="cls-22"><line class="cls-23" x1="65.67" y1="160.58" x2="65.67" y2="157.84"/></g><g class="cls-22"><line class="cls-23" x1="115.78" y1="160.58" x2="115.78" y2="157.84"/></g><g class="cls-22"><line class="cls-23" x1="181.4" y1="160.58" x2="181.4" y2="157.84"/></g><g class="cls-22"><line class="cls-23" x1="231.51" y1="160.58" x2="231.51" y2="157.84"/></g><g class="cls-22"><line class="cls-23" x1="297.13" y1="160.58" x2="297.13" y2="157.84"/></g><g class="cls-22"><line class="cls-23" x1="347.24" y1="160.58" x2="347.24" y2="157.84"/></g><g class="cls-22"><line class="cls-23" x1="412.86" y1="160.58" x2="412.86" y2="157.84"/></g><g class="cls-22"><line class="cls-23" x1="462.97" y1="160.58" x2="462.97" y2="157.84"/></g><g class="cls-22"><text class="cls-24" transform="translate(18.27 156.22)">0.0</text></g><g class="cls-22"><text class="cls-24" transform="translate(18.27 136.8)">2.5</text></g><g class="cls-22"><text class="cls-24" transform="translate(18.27 117.37)">5.0</text></g><g class="cls-22"><text class="cls-24" transform="translate(18.27 97.95)">7.5</text></g><g class="cls-22"><text class="cls-24" transform="translate(13.23 78.53)">10.0</text></g><g class="cls-22"><text class="cls-24" transform="translate(13.23 59.11)">12.5</text></g><g class="cls-22"><line class="cls-23" x1="32.86" y1="153.08" x2="35.6" y2="153.08"/></g><g class="cls-22"><line class="cls-23" x1="32.86" y1="133.66" x2="35.6" y2="133.66"/></g><g class="cls-22"><line class="cls-23" x1="32.86" y1="114.23" x2="35.6" y2="114.23"/></g><g class="cls-22"><line class="cls-23" x1="32.86" y1="94.81" x2="35.6" y2="94.81"/></g><g class="cls-22"><line class="cls-23" x1="32.86" y1="75.39" x2="35.6" y2="75.39"/></g><g class="cls-22"><line class="cls-23" x1="32.86" y1="55.97" x2="35.6" y2="55.97"/></g><g class="cls-22"><text class="cls-25" transform="translate(0 27.82)">Segundo y Tercer trimestre 2020</text></g><g class="cls-22"><text class="cls-26" transform="translate(0 11.31)">Años</text></g><g class="cls-22"><text class="cls-26" transform="translate(34.15 11.31)">de</text></g><g class="cls-22"><text class="cls-26" transform="translate(53.08 11.31)">educación</text></g><g class="cls-22"><text class="cls-26" transform="translate(119.42 11.31)">promedio</text></g><g class="cls-22"><text class="cls-26" transform="translate(183.39 11.31)">de</text></g><g class="cls-22"><text class="cls-27" transform="translate(202.31 11.31)">Hombres</text></g><g class="cls-22"><text class="cls-26" transform="translate(265.68 11.31)">y</text></g><g class="cls-22"><text class="cls-28" transform="translate(275.76 11.31)">Mujeres</text></g><g class="cls-22"><text class="cls-26" transform="translate(332.49 11.31)">en</text></g><g class="cls-22"><text class="cls-26" transform="translate(351.43 11.31)">el</text></g><g class="cls-22"><text class="cls-26" transform="translate(365.6 11.31)">NEA</text></g></g></g></svg>