<svg xmlns="http://www.w3.org/2000/svg" xmlns:xlink="http://www.w3.org/1999/xlink" viewBox="0 0 432.09 325.07"><defs><style>.cls-1,.cls-12,.cls-5,.cls-6{fill:none;}.cls-2{clip-path:url(#clip-path);}.cls-3{fill:#fff;stroke-linecap:round;}.cls-3,.cls-5,.cls-6{stroke:#fff;}.cls-12,.cls-3,.cls-5,.cls-6{stroke-linejoin:round;}.cls-12,.cls-3,.cls-6{stroke-width:1.07px;}.cls-4{clip-path:url(#clip-path-2);}.cls-5{stroke-width:0.53px;}.cls-16,.cls-7{fill:#0c8136;}.cls-15,.cls-8{fill:#29aee4;}.cls-11,.cls-13,.cls-14,.cls-15,.cls-16,.cls-9{isolation:isolate;}.cls-9{font-size:8.54px;font-family:ArialMT, Arial;}.cls-10{clip-path:url(#clip-path-36);}.cls-11{font-size:8.8px;}.cls-11,.cls-13,.cls-14{font-family:OpenSans-Regular, Open Sans;}.cls-12{stroke:#333;}.cls-13{font-size:11px;}.cls-14,.cls-15,.cls-16{font-size:13.2px;}.cls-15,.cls-16{font-family:OpenSans-Bold, Open Sans;font-weight:700;}</style><clipPath id="clip-path" transform="translate(-46.46 0.54)"><rect class="cls-1" x="46.99" width="431.02" height="324"/></clipPath><clipPath id="clip-path-2" transform="translate(-46.46 0.54)"><rect class="cls-1" x="90.78" y="39.53" width="381.75" height="229.05"/></clipPath><clipPath id="clip-path-36" transform="translate(-46.46 0.54)"><rect class="cls-1" width="525" height="324"/></clipPath></defs><g id="Capa_2" data-name="Capa 2"><g id="Capa_1-2" data-name="Capa 1"><g id="Capa_2-2" data-name="Capa 2"><g id="Capa_1-2-2" data-name="Capa 1-2"><g class="cls-2"><rect class="cls-3" x="0.54" y="0.54" width="431.02" height="324"/></g><g class="cls-4"><line class="cls-5" x1="44.32" y1="257.79" x2="426.07" y2="257.79"/></g><g class="cls-4"><line class="cls-5" x1="44.32" y1="224.75" x2="426.07" y2="224.75"/></g><g class="cls-4"><line class="cls-5" x1="44.32" y1="191.72" x2="426.07" y2="191.72"/></g><g class="cls-4"><line class="cls-5" x1="44.32" y1="158.69" x2="426.07" y2="158.69"/></g><g class="cls-4"><line class="cls-5" x1="44.32" y1="125.66" x2="426.07" y2="125.66"/></g><g class="cls-4"><line class="cls-5" x1="44.32" y1="92.65" x2="426.07" y2="92.65"/></g><g class="cls-4"><line class="cls-5" x1="44.32" y1="59.61" x2="426.07" y2="59.61"/></g><g class="cls-4"><line class="cls-6" x1="44.32" y1="241.28" x2="426.07" y2="241.28"/></g><g class="cls-4"><line class="cls-6" x1="44.32" y1="208.25" x2="426.07" y2="208.25"/></g><g class="cls-4"><line class="cls-6" x1="44.32" y1="175.22" x2="426.07" y2="175.22"/></g><g class="cls-4"><line class="cls-6" x1="44.32" y1="142.19" x2="426.07" y2="142.19"/></g><g class="cls-4"><line class="cls-6" x1="44.32" y1="109.16" x2="426.07" y2="109.16"/></g><g class="cls-4"><line class="cls-6" x1="44.32" y1="76.12" x2="426.07" y2="76.12"/></g><g class="cls-4"><line class="cls-6" x1="44.32" y1="43.09" x2="426.07" y2="43.09"/></g><g class="cls-4"><line class="cls-6" x1="98.85" y1="269.1" x2="98.85" y2="40.06"/></g><g class="cls-4"><line class="cls-6" x1="189.76" y1="269.1" x2="189.76" y2="40.06"/></g><g class="cls-4"><line class="cls-6" x1="280.65" y1="269.1" x2="280.65" y2="40.06"/></g><g class="cls-4"><line class="cls-6" x1="371.53" y1="269.1" x2="371.53" y2="40.06"/></g><g class="cls-4"><rect class="cls-7" x="98.85" y="66.62" width="40.9" height="75.58"/></g><g class="cls-4"><rect class="cls-8" x="57.96" y="142.19" width="40.9" height="52.18"/></g><g class="cls-4"><rect class="cls-7" x="189.76" y="50.47" width="40.9" height="91.72"/></g><g class="cls-4"><rect class="cls-8" x="148.85" y="107.94" width="40.9" height="34.24"/></g><g class="cls-4"><rect class="cls-7" x="280.65" y="93.51" width="40.9" height="48.68"/></g><g class="cls-4"><rect class="cls-8" x="239.75" y="94.97" width="40.9" height="47.23"/></g><g class="cls-4"><rect class="cls-7" x="371.53" y="142.19" width="40.9" height="116.51"/></g><g class="cls-4"><rect class="cls-8" x="330.63" y="108.41" width="40.9" height="33.79"/></g><g class="cls-4"><text class="cls-9" transform="translate(107.1 75.76)">45.76%</text></g><g class="cls-4"><text class="cls-9" transform="translate(60.24 203.54)">-31.59%</text></g><g class="cls-4"><text class="cls-9" transform="translate(198 59.62)">55.54%</text></g><g class="cls-4"><text class="cls-9" transform="translate(152.56 117.11)">20.73%</text></g><g class="cls-4"><text class="cls-9" transform="translate(288.9 102.68)">29.48%</text></g><g class="cls-4"><text class="cls-9" transform="translate(243.44 104.12)">28.60%</text></g><g class="cls-4"><text class="cls-9" transform="translate(378.37 267.85)">-70.55%</text></g><g class="cls-4"><text class="cls-9" transform="translate(334.34 117.57)">20.46%</text></g><g class="cls-10"><text class="cls-11" transform="translate(19.25 244.43)">-60%</text></g><g class="cls-10"><text class="cls-11" transform="translate(19.25 211.39)">-40%</text></g><g class="cls-10"><text class="cls-11" transform="translate(19.25 178.35)">-20%</text></g><g class="cls-10"><text class="cls-11" transform="translate(27.12 145.33)">0%</text></g><g class="cls-10"><text class="cls-11" transform="translate(22.09 112.3)">20%</text></g><g class="cls-10"><text class="cls-11" transform="translate(22.09 79.27)">40%</text></g><g class="cls-10"><text class="cls-11" transform="translate(22.09 46.23)">60%</text></g><g class="cls-10"><line class="cls-12" x1="41.58" y1="241.28" x2="44.32" y2="241.28"/></g><g class="cls-10"><line class="cls-12" x1="41.58" y1="208.25" x2="44.32" y2="208.25"/></g><g class="cls-10"><line class="cls-12" x1="41.58" y1="175.22" x2="44.32" y2="175.22"/></g><g class="cls-10"><line class="cls-12" x1="41.58" y1="142.19" x2="44.32" y2="142.19"/></g><g class="cls-10"><line class="cls-12" x1="41.58" y1="109.16" x2="44.32" y2="109.16"/></g><g class="cls-10"><line class="cls-12" x1="41.58" y1="76.12" x2="44.32" y2="76.12"/></g><g class="cls-10"><line class="cls-12" x1="41.58" y1="43.09" x2="44.32" y2="43.09"/></g><g class="cls-10"><line class="cls-12" x1="98.85" y1="271.85" x2="98.85" y2="269.1"/></g><g class="cls-10"><line class="cls-12" x1="189.76" y1="271.85" x2="189.76" y2="269.1"/></g><g class="cls-10"><line class="cls-12" x1="280.65" y1="271.85" x2="280.65" y2="269.1"/></g><g class="cls-10"><line class="cls-12" x1="371.53" y1="271.85" x2="371.53" y2="269.1"/></g><g class="cls-10"><text class="cls-11" transform="translate(92.63 280.32)">Sin</text></g><g class="cls-10"><text class="cls-11" transform="translate(76.24 289.83)">instrucción</text></g><g class="cls-10"><text class="cls-11" transform="translate(172.08 280.32)">Primario</text></g><g class="cls-10"><text class="cls-11" transform="translate(169.74 289.83)">Completo</text></g><g class="cls-10"><text class="cls-11" transform="translate(257.56 280.32)">Secundario</text></g><g class="cls-10"><text class="cls-11" transform="translate(260.62 289.83)">Completo</text></g><g class="cls-10"><text class="cls-11" transform="translate(326.01 280.32)">Superior/Universitario</text></g><g class="cls-10"><text class="cls-11" transform="translate(352.21 289.83)">completo</text></g><g class="cls-10"><text class="cls-13" transform="translate(6.01 31.94)">Segundo y Tercer trimestre 2020</text></g><g class="cls-10"><text class="cls-14" transform="translate(6.01 15.44)">Brecha</text></g><g class="cls-10"><text class="cls-15" transform="translate(52.51 15.44)">Horaria</text></g><g class="cls-10"><text class="cls-14" transform="translate(106.19 15.44)">y</text></g><g class="cls-10"><text class="cls-16" transform="translate(116.26 15.43)">Ocupacional</text></g><g class="cls-10"><text class="cls-14" transform="translate(205.07 15.44)">por</text></g><g class="cls-10"><text class="cls-14" transform="translate(229.96 15.43)">nivel</text></g><g class="cls-10"><text class="cls-14" transform="translate(262.19 15.43)">educativo</text></g></g></g></g></g></svg>