<svg xmlns="http://www.w3.org/2000/svg" xmlns:xlink="http://www.w3.org/1999/xlink" viewBox="0 0 514.04 288.1"><defs><style>.cls-1,.cls-11,.cls-3,.cls-4,.cls-5{fill:none;}.cls-2{clip-path:url(#clip-path);}.cls-3{stroke:#fff;stroke-width:0.53px;}.cls-11,.cls-3,.cls-4,.cls-5,.cls-6,.cls-7{stroke-linejoin:round;}.cls-4,.cls-5{stroke:#000;}.cls-11,.cls-4,.cls-5{stroke-width:1.07px;}.cls-4{stroke-dasharray:1.42 4.27;}.cls-15,.cls-6{fill:#0c8136;}.cls-6{stroke:#0c8136;}.cls-6,.cls-7{stroke-linecap:round;stroke-width:0.71px;}.cls-14,.cls-7{fill:#29aee4;}.cls-7{stroke:#29aee4;}.cls-10,.cls-12,.cls-13,.cls-14,.cls-15,.cls-16,.cls-8{isolation:isolate;}.cls-8{font-size:8.54px;}.cls-14,.cls-15,.cls-16,.cls-8{font-family:OpenSans-Bold, Open Sans;font-weight:700;}.cls-9{clip-path:url(#clip-path-27);}.cls-10{font-size:8.8px;}.cls-10,.cls-12,.cls-13{font-family:OpenSans-Regular, Open Sans;}.cls-11{stroke:#333;}.cls-12{font-size:11px;}.cls-13,.cls-14,.cls-15,.cls-16{font-size:13.2px;}</style><clipPath id="clip-path" transform="translate(-5.48 -3.59)"><rect class="cls-1" x="79.75" y="39.53" width="439.77" height="238.55"/></clipPath><clipPath id="clip-path-27" transform="translate(-5.48 -3.59)"><rect class="cls-1" width="525" height="324"/></clipPath></defs><g id="Capa_2" data-name="Capa 2"><g id="Capa_1-2" data-name="Capa 1"><g class="cls-2"><line class="cls-3" x1="132.61" y1="274.49" x2="132.61" y2="35.94"/></g><g class="cls-2"><line class="cls-3" x1="206.4" y1="274.49" x2="206.4" y2="35.94"/></g><g class="cls-2"><line class="cls-3" x1="280.19" y1="274.49" x2="280.19" y2="35.94"/></g><g class="cls-2"><line class="cls-3" x1="353.98" y1="274.49" x2="353.98" y2="35.94"/></g><g class="cls-2"><line class="cls-3" x1="427.77" y1="274.49" x2="427.77" y2="35.94"/></g><g class="cls-2"><line class="cls-3" x1="501.55" y1="274.49" x2="501.55" y2="35.94"/></g><g class="cls-2"><line class="cls-4" x1="74.27" y1="240.41" x2="514.04" y2="240.41"/></g><g class="cls-2"><line class="cls-4" x1="74.27" y1="183.61" x2="514.04" y2="183.61"/></g><g class="cls-2"><line class="cls-4" x1="74.27" y1="126.82" x2="514.04" y2="126.82"/></g><g class="cls-2"><line class="cls-4" x1="74.27" y1="70.02" x2="514.04" y2="70.02"/></g><g class="cls-2"><line class="cls-5" x1="94.26" y1="240.41" x2="144.72" y2="240.41"/></g><g class="cls-2"><circle class="cls-6" cx="94.26" cy="240.41" r="3.56"/></g><g class="cls-2"><circle class="cls-7" cx="144.72" cy="240.41" r="3.56"/></g><g class="cls-2"><line class="cls-5" x1="178.21" y1="183.61" x2="206.28" y2="183.61"/></g><g class="cls-2"><circle class="cls-6" cx="178.21" cy="183.61" r="3.56"/></g><g class="cls-2"><circle class="cls-7" cx="206.28" cy="183.61" r="3.56"/></g><g class="cls-2"><line class="cls-5" x1="379.25" y1="126.82" x2="293.77" y2="126.82"/></g><g class="cls-2"><circle class="cls-6" cx="379.25" cy="126.82" r="3.56"/></g><g class="cls-2"><circle class="cls-7" cx="293.77" cy="126.82" r="3.56"/></g><g class="cls-2"><line class="cls-5" x1="253.16" y1="70.02" x2="494.05" y2="70.02"/></g><g class="cls-2"><circle class="cls-6" cx="253.16" cy="70.02" r="3.56"/></g><g class="cls-2"><circle class="cls-7" cx="494.05" cy="70.02" r="3.56"/></g><g class="cls-2"><text class="cls-8" transform="translate(320.33 114.64)">-31.44%</text></g><g class="cls-2"><text class="cls-8" transform="translate(358.8 57.84)">51.02%</text></g><g class="cls-2"><text class="cls-8" transform="translate(104.68 228.24)">41.09%</text></g><g class="cls-2"><text class="cls-8" transform="translate(177.44 171.44)">15.23%</text></g><g class="cls-9"><text class="cls-10" transform="translate(13.23 243.55)">Cuentapropia</text></g><g class="cls-9"><text class="cls-10" transform="translate(13.23 182)">Trabajadores</text></g><g class="cls-9"><text class="cls-10" transform="translate(13.23 191.51)">Asalariados</text></g><g class="cls-9"><text class="cls-10" transform="translate(13.23 129.96)">Jefes</text></g><g class="cls-9"><text class="cls-10" transform="translate(13.23 73.16)">Dirección</text></g><g class="cls-9"><line class="cls-11" x1="71.53" y1="240.41" x2="74.27" y2="240.41"/></g><g class="cls-9"><line class="cls-11" x1="71.53" y1="183.61" x2="74.27" y2="183.61"/></g><g class="cls-9"><line class="cls-11" x1="71.53" y1="126.82" x2="74.27" y2="126.82"/></g><g class="cls-9"><line class="cls-11" x1="71.53" y1="70.02" x2="74.27" y2="70.02"/></g><g class="cls-9"><line class="cls-11" x1="95.72" y1="277.23" x2="95.72" y2="274.49"/></g><g class="cls-9"><line class="cls-11" x1="169.51" y1="277.23" x2="169.51" y2="274.49"/></g><g class="cls-9"><line class="cls-11" x1="243.29" y1="277.23" x2="243.29" y2="274.49"/></g><g class="cls-9"><line class="cls-11" x1="317.08" y1="277.23" x2="317.08" y2="274.49"/></g><g class="cls-9"><line class="cls-11" x1="390.87" y1="277.23" x2="390.87" y2="274.49"/></g><g class="cls-9"><line class="cls-11" x1="464.66" y1="277.23" x2="464.66" y2="274.49"/></g><g class="cls-9"><text class="cls-10" transform="translate(79.54 285.71)">$10,000</text></g><g class="cls-9"><text class="cls-10" transform="translate(153.33 285.71)">$20,000</text></g><g class="cls-9"><text class="cls-10" transform="translate(227.12 285.71)">$30,000</text></g><g class="cls-9"><text class="cls-10" transform="translate(300.91 285.71)">$40,000</text></g><g class="cls-9"><text class="cls-10" transform="translate(374.7 285.71)">$50,000</text></g><g class="cls-9"><text class="cls-10" transform="translate(448.49 285.71)">$60,000</text></g><g class="cls-9"><text class="cls-12" transform="translate(0 27.82)">Segundo y Tercer trimestre 2020</text></g><g class="cls-9"><text class="cls-13" transform="translate(0 11.31)">Salario</text></g><g class="cls-9"><text class="cls-13" transform="translate(45.39 11.31)">promedio</text></g><g class="cls-9"><text class="cls-13" transform="translate(109.36 11.31)">de</text></g><g class="cls-9"><text class="cls-14" transform="translate(128.28 11.31)">Hombres</text></g><g class="cls-9"><text class="cls-13" transform="translate(188.22 11.31)">,</text></g><g class="cls-9"><text class="cls-15" transform="translate(194.89 11.31)">Mujeres</text></g><g class="cls-9"><text class="cls-13" transform="translate(251.62 11.31)">y</text></g><g class="cls-9"><text class="cls-16" transform="translate(261.7 11.31)">brecha</text></g><g class="cls-9"><text class="cls-16" transform="translate(310.71 11.31)">salarial</text></g><g class="cls-9"><text class="cls-13" transform="translate(362.7 11.31)">s/</text></g><g class="cls-9"><text class="cls-13" transform="translate(377.27 11.31)">jerarquía</text></g></g></g></svg>