<svg xmlns="http://www.w3.org/2000/svg" xmlns:xlink="http://www.w3.org/1999/xlink" viewBox="0 0 709.8 426.27"><defs><style>.cls-1,.cls-14,.cls-5,.cls-6,.cls-7{fill:none;}.cls-2,.cls-3{fill:#fff;}.cls-3,.cls-5{stroke:#fff;}.cls-3,.cls-8,.cls-9{stroke-linecap:round;}.cls-14,.cls-3,.cls-5,.cls-6,.cls-7,.cls-8,.cls-9{stroke-linejoin:round;}.cls-14,.cls-3,.cls-6,.cls-7{stroke-width:1.07px;}.cls-4{clip-path:url(#clip-path);}.cls-5{stroke-width:0.53px;}.cls-6,.cls-7{stroke:#000;}.cls-6{stroke-dasharray:1.42 4.27;}.cls-18,.cls-8{fill:#0c8136;}.cls-8{stroke:#0c8136;}.cls-8,.cls-9{stroke-width:0.71px;}.cls-17,.cls-9{fill:#29aee4;}.cls-9{stroke:#29aee4;}.cls-10,.cls-11,.cls-13,.cls-15,.cls-16,.cls-17,.cls-18,.cls-19{isolation:isolate;}.cls-10,.cls-11{font-size:8.54px;}.cls-10,.cls-17,.cls-18,.cls-19{font-family:OpenSans-Bold, Open Sans;font-weight:700;}.cls-11,.cls-13,.cls-15,.cls-16{font-family:OpenSans-Regular, Open Sans;}.cls-12{clip-path:url(#clip-path-33);}.cls-13{font-size:8.8px;}.cls-14{stroke:#333;}.cls-15{font-size:11px;}.cls-16,.cls-17,.cls-18,.cls-19{font-size:13.2px;}</style><clipPath id="clip-path"><rect class="cls-1" x="82.52" y="40.06" width="621.21" height="339.75"/></clipPath><clipPath id="clip-path-33"><rect class="cls-1" x="0.54" y="0.54" width="708.66" height="425.2"/></clipPath></defs><g id="Capa_2" data-name="Capa 2"><g id="Capa_1-2" data-name="Capa 1"><rect class="cls-2" x="0.54" y="0.54" width="708.66" height="425.2"/><rect class="cls-3" x="0.54" y="0.54" width="708.66" height="425.2"/><g class="cls-4"><line class="cls-5" x1="142.81" y1="379.81" x2="142.81" y2="40.06"/></g><g class="cls-4"><line class="cls-5" x1="216.26" y1="379.81" x2="216.26" y2="40.06"/></g><g class="cls-4"><line class="cls-5" x1="289.7" y1="379.81" x2="289.7" y2="40.06"/></g><g class="cls-4"><line class="cls-5" x1="363.14" y1="379.81" x2="363.14" y2="40.06"/></g><g class="cls-4"><line class="cls-5" x1="436.58" y1="379.81" x2="436.58" y2="40.06"/></g><g class="cls-4"><line class="cls-5" x1="510.02" y1="379.81" x2="510.02" y2="40.06"/></g><g class="cls-4"><line class="cls-5" x1="583.46" y1="379.81" x2="583.46" y2="40.06"/></g><g class="cls-4"><line class="cls-5" x1="656.9" y1="379.81" x2="656.9" y2="40.06"/></g><g class="cls-4"><line class="cls-6" x1="82.52" y1="331.27" x2="703.71" y2="331.27"/></g><g class="cls-4"><line class="cls-6" x1="82.52" y1="250.39" x2="703.71" y2="250.39"/></g><g class="cls-4"><line class="cls-6" x1="82.52" y1="169.5" x2="703.71" y2="169.5"/></g><g class="cls-4"><line class="cls-6" x1="82.52" y1="88.59" x2="703.71" y2="88.59"/></g><g class="cls-4"><line class="cls-7" x1="110.74" y1="331.27" x2="214.01" y2="331.27"/></g><g class="cls-4"><circle class="cls-8" cx="110.74" cy="331.27" r="3.56"/></g><g class="cls-4"><circle class="cls-9" cx="214.01" cy="331.27" r="3.56"/></g><g class="cls-4"><line class="cls-7" x1="188.15" y1="250.39" x2="276.74" y2="250.39"/></g><g class="cls-4"><circle class="cls-8" cx="188.15" cy="250.39" r="3.56"/></g><g class="cls-4"><circle class="cls-9" cx="276.74" cy="250.39" r="3.56"/></g><g class="cls-4"><line class="cls-7" x1="325.05" y1="169.5" x2="394.71" y2="169.5"/></g><g class="cls-4"><circle class="cls-8" cx="325.05" cy="169.5" r="3.56"/></g><g class="cls-4"><circle class="cls-9" cx="394.71" cy="169.5" r="3.56"/></g><g class="cls-4"><line class="cls-7" x1="508.7" y1="88.59" x2="675.49" y2="88.59"/></g><g class="cls-4"><circle class="cls-8" cx="508.7" cy="88.59" r="3.56"/></g><g class="cls-4"><circle class="cls-9" cx="675.49" cy="88.59" r="3.56"/></g><g class="cls-4"><text class="cls-10" transform="translate(147.57 313.08)">40.53%</text></g><g class="cls-4"><text class="cls-10" transform="translate(217.64 232.19)">27.90%</text></g><g class="cls-4"><text class="cls-10" transform="translate(345.06 151.29)">16.00%</text></g><g class="cls-4"><text class="cls-10" transform="translate(577.27 70.39)">23.29%</text></g><g class="cls-4"><text class="cls-11" transform="translate(149.14 353.52)">$7,031</text></g><g class="cls-4"><text class="cls-11" transform="translate(219.2 272.62)">$6,031</text></g><g class="cls-4"><text class="cls-11" transform="translate(346.62 191.74)">$4,743</text></g><g class="cls-4"><text class="cls-11" transform="translate(576.39 110.84)">$11,355</text></g><g class="cls-12"><text class="cls-13" transform="translate(19.24 334.42)">No Calificados</text></g><g class="cls-12"><text class="cls-13" transform="translate(19.24 253.52)">Operativos</text></g><g class="cls-12"><text class="cls-13" transform="translate(19.24 172.63)">Técnicos</text></g><g class="cls-12"><text class="cls-13" transform="translate(19.24 91.74)">Profesionales</text></g><g class="cls-12"><line class="cls-14" x1="79.77" y1="331.27" x2="82.52" y2="331.27"/></g><g class="cls-12"><line class="cls-14" x1="79.77" y1="250.39" x2="82.52" y2="250.39"/></g><g class="cls-12"><line class="cls-14" x1="79.77" y1="169.5" x2="82.52" y2="169.5"/></g><g class="cls-12"><line class="cls-14" x1="79.77" y1="88.59" x2="82.52" y2="88.59"/></g><g class="cls-12"><line class="cls-14" x1="106.09" y1="382.55" x2="106.09" y2="379.81"/></g><g class="cls-12"><line class="cls-14" x1="179.54" y1="382.55" x2="179.54" y2="379.81"/></g><g class="cls-12"><line class="cls-14" x1="252.98" y1="382.55" x2="252.98" y2="379.81"/></g><g class="cls-12"><line class="cls-14" x1="326.42" y1="382.55" x2="326.42" y2="379.81"/></g><g class="cls-12"><line class="cls-14" x1="399.86" y1="382.55" x2="399.86" y2="379.81"/></g><g class="cls-12"><line class="cls-14" x1="473.3" y1="382.55" x2="473.3" y2="379.81"/></g><g class="cls-12"><line class="cls-14" x1="546.75" y1="382.55" x2="546.75" y2="379.81"/></g><g class="cls-12"><line class="cls-14" x1="620.19" y1="382.55" x2="620.19" y2="379.81"/></g><g class="cls-12"><line class="cls-14" x1="693.63" y1="382.55" x2="693.63" y2="379.81"/></g><g class="cls-12"><text class="cls-13" transform="translate(89.91 391.03)">$10,000</text></g><g class="cls-12"><text class="cls-13" transform="translate(163.35 391.03)">$15,000</text></g><g class="cls-12"><text class="cls-13" transform="translate(236.81 391.03)">$20,000</text></g><g class="cls-12"><text class="cls-13" transform="translate(310.24 391.03)">$25,000</text></g><g class="cls-12"><text class="cls-13" transform="translate(383.69 391.03)">$30,000</text></g><g class="cls-12"><text class="cls-13" transform="translate(457.12 391.03)">$35,000</text></g><g class="cls-12"><text class="cls-13" transform="translate(530.57 391.03)">$40,000</text></g><g class="cls-12"><text class="cls-13" transform="translate(604 391.03)">$45,000</text></g><g class="cls-12"><text class="cls-13" transform="translate(677.45 391.03)">$50,000</text></g><g class="cls-12"><text class="cls-15" transform="translate(6.02 31.94)">Segundo y Tercer trimestre 2020</text></g><g class="cls-12"><text class="cls-16" transform="translate(6.01 15.43)">Salario</text></g><g class="cls-12"><text class="cls-16" transform="translate(51.4 15.44)">promedio</text></g><g class="cls-12"><text class="cls-16" transform="translate(115.37 15.44)">de</text></g><g class="cls-12"><text class="cls-17" transform="translate(134.3 15.44)">Hombres</text></g><g class="cls-12"><text class="cls-16" transform="translate(194.24 15.43)">,</text></g><g class="cls-12"><text class="cls-18" transform="translate(200.9 15.44)">Mujeres</text></g><g class="cls-12"><text class="cls-16" transform="translate(257.64 15.44)">y</text></g><g class="cls-12"><text class="cls-19" transform="translate(267.71 15.44)">brecha</text></g><g class="cls-12"><text class="cls-19" transform="translate(316.73 15.43)">salarial</text></g><g class="cls-12"><text class="cls-16" transform="translate(368.71 15.44)">s/</text></g><g class="cls-12"><text class="cls-16" transform="translate(383.29 15.43)">calificación</text></g><g class="cls-12"><text class="cls-16" transform="translate(454.16 15.43)">laboral</text></g></g></g></svg>