<svg xmlns="http://www.w3.org/2000/svg" xmlns:xlink="http://www.w3.org/1999/xlink" viewBox="0 0 505.07 201.66"><defs><style>.cls-1,.cls-12,.cls-5,.cls-6,.cls-7{fill:none;}.cls-2{clip-path:url(#clip-path);}.cls-3{fill:#fff;}.cls-3,.cls-5,.cls-6{stroke:#fff;}.cls-3,.cls-9{stroke-linecap:round;}.cls-12,.cls-3,.cls-5,.cls-6,.cls-7,.cls-9{stroke-linejoin:round;}.cls-12,.cls-3,.cls-6{stroke-width:1.07px;}.cls-4{clip-path:url(#clip-path-2);}.cls-5{stroke-width:0.53px;}.cls-7{stroke:#0c8136;stroke-width:3.2px;}.cls-11,.cls-13,.cls-14,.cls-8{isolation:isolate;}.cls-8{font-size:8.54px;font-family:OpenSans-Bold, Open Sans;font-weight:700;}.cls-9{fill:#29aee4;stroke:#29aee4;stroke-width:0.71px;}.cls-10{clip-path:url(#clip-path-22);}.cls-11{font-size:8.8px;}.cls-11,.cls-13,.cls-14{font-family:OpenSans-Regular, Open Sans;}.cls-12{stroke:#333;}.cls-13{font-size:11px;}.cls-14{font-size:13.2px;}</style><clipPath id="clip-path" transform="translate(0.54 -151.16)"><rect class="cls-1" y="151.7" width="504" height="200.59"/></clipPath><clipPath id="clip-path-2" transform="translate(0.54 -151.16)"><rect class="cls-1" x="114.69" y="191.23" width="383.83" height="115.15"/></clipPath><clipPath id="clip-path-22" transform="translate(0.54 -151.16)"><rect class="cls-1" width="504" height="504"/></clipPath></defs><g id="Capa_2" data-name="Capa 2"><g id="Capa_1-2" data-name="Capa 1"><g class="cls-2"><rect class="cls-3" x="0.54" y="0.54" width="504" height="200.59"/></g><g class="cls-4"><line class="cls-5" x1="183.59" y1="155.22" x2="183.59" y2="40.06"/></g><g class="cls-4"><line class="cls-5" x1="285.45" y1="155.22" x2="285.45" y2="40.06"/></g><g class="cls-4"><line class="cls-5" x1="387.3" y1="155.22" x2="387.3" y2="40.06"/></g><g class="cls-4"><line class="cls-5" x1="489.14" y1="155.22" x2="489.14" y2="40.06"/></g><g class="cls-4"><line class="cls-6" x1="115.23" y1="138.76" x2="499.05" y2="138.76"/></g><g class="cls-4"><line class="cls-6" x1="115.23" y1="111.35" x2="499.05" y2="111.35"/></g><g class="cls-4"><line class="cls-6" x1="115.23" y1="83.94" x2="499.05" y2="83.94"/></g><g class="cls-4"><line class="cls-6" x1="115.23" y1="56.51" x2="499.05" y2="56.51"/></g><g class="cls-4"><line class="cls-7" x1="132.67" y1="138.76" x2="461.24" y2="138.76"/></g><g class="cls-4"><line class="cls-7" x1="132.67" y1="111.35" x2="320.17" y2="111.35"/></g><g class="cls-4"><line class="cls-7" x1="132.67" y1="83.94" x2="322.71" y2="83.94"/></g><g class="cls-4"><line class="cls-7" x1="132.67" y1="56.51" x2="319.68" y2="56.51"/></g><g class="cls-4"><text class="cls-8" transform="translate(473.08 141.82)">3.23</text></g><g class="cls-4"><text class="cls-8" transform="translate(332.01 114.4)">1.84</text></g><g class="cls-4"><text class="cls-8" transform="translate(334.55 86.98)">1.87</text></g><g class="cls-4"><text class="cls-8" transform="translate(331.52 59.56)">1.84</text></g><g class="cls-4"><circle class="cls-9" cx="461.24" cy="138.76" r="5.69"/></g><g class="cls-4"><circle class="cls-9" cx="320.17" cy="111.35" r="5.69"/></g><g class="cls-4"><circle class="cls-9" cx="322.71" cy="83.94" r="5.69"/></g><g class="cls-4"><circle class="cls-9" cx="319.68" cy="56.51" r="5.69"/></g><g class="cls-10"><text class="cls-11" transform="translate(97.83 137.16)">Sin</text></g><g class="cls-10"><text class="cls-11" transform="translate(65.04 146.66)">instrucción</text></g><g class="cls-10"><text class="cls-11" transform="translate(74.97 109.74)">Primario</text></g><g class="cls-10"><text class="cls-11" transform="translate(70.26 119.24)">Completo</text></g><g class="cls-10"><text class="cls-11" transform="translate(64.12 82.32)">Secundario</text></g><g class="cls-10"><text class="cls-11" transform="translate(70.26 91.82)">Completo</text></g><g class="cls-10"><text class="cls-11" transform="translate(19.24 54.91)">Superior/Universitario</text></g><g class="cls-10"><text class="cls-11" transform="translate(71.62 64.41)">completo</text></g><g class="cls-10"><line class="cls-12" x1="112.48" y1="138.76" x2="115.23" y2="138.76"/></g><g class="cls-10"><line class="cls-12" x1="112.48" y1="111.35" x2="115.23" y2="111.35"/></g><g class="cls-10"><line class="cls-12" x1="112.48" y1="83.94" x2="115.23" y2="83.94"/></g><g class="cls-10"><line class="cls-12" x1="112.48" y1="56.51" x2="115.23" y2="56.51"/></g><g class="cls-10"><line class="cls-12" x1="132.67" y1="157.95" x2="132.67" y2="155.22"/></g><g class="cls-10"><line class="cls-12" x1="234.53" y1="157.95" x2="234.53" y2="155.22"/></g><g class="cls-10"><line class="cls-12" x1="336.37" y1="157.95" x2="336.37" y2="155.22"/></g><g class="cls-10"><text class="cls-11" transform="translate(130.15 166.42)">0</text></g><g class="cls-10"><text class="cls-11" transform="translate(232.01 166.42)">1</text></g><g class="cls-10"><text class="cls-11" transform="translate(333.86 166.42)">2</text></g><g class="cls-10"><text class="cls-11" transform="translate(435.71 166.42)">3</text></g><g class="cls-10"><text class="cls-13" transform="translate(6.01 31.94)">Segundo y Tercer trimestre 2020</text></g><g class="cls-10"><text class="cls-14" transform="translate(6.01 15.45)">Cantidad de hijos por Mujer s/ nivel educativo alcanzado</text></g></g></g></svg>