<svg xmlns="http://www.w3.org/2000/svg" xmlns:xlink="http://www.w3.org/1999/xlink" viewBox="0 0 526.07 233.77"><defs><style>.cls-1,.cls-12,.cls-5,.cls-6,.cls-7{fill:none;}.cls-2{clip-path:url(#clip-path);}.cls-3{fill:#fff;}.cls-3,.cls-5,.cls-6{stroke:#fff;}.cls-3,.cls-9{stroke-linecap:round;}.cls-12,.cls-3,.cls-5,.cls-6,.cls-7,.cls-9{stroke-linejoin:round;}.cls-12,.cls-3,.cls-6{stroke-width:1.07px;}.cls-4{clip-path:url(#clip-path-2);}.cls-5{stroke-width:0.53px;}.cls-7{stroke:#29aee4;stroke-width:3.2px;}.cls-11,.cls-13,.cls-14,.cls-8{isolation:isolate;}.cls-8{font-size:8.54px;font-family:OpenSans-Bold, Open Sans;font-weight:700;}.cls-9{fill:#0c8136;stroke:#0c8136;stroke-width:2.83px;}.cls-10{clip-path:url(#clip-path-31);}.cls-11{font-size:8.8px;}.cls-11,.cls-13,.cls-14{font-family:OpenSans-Regular, Open Sans;}.cls-12{stroke:#333;}.cls-13{font-size:11px;}.cls-14{font-size:13.2px;}</style><clipPath id="clip-path" transform="translate(0.54 -45.12)"><rect class="cls-1" y="45.65" width="525" height="232.7"/></clipPath><clipPath id="clip-path-2" transform="translate(0.54 -45.12)"><rect class="cls-1" x="28.68" y="85.18" width="490.84" height="147.25"/></clipPath><clipPath id="clip-path-31" transform="translate(0.54 -45.12)"><rect class="cls-1" width="525" height="324"/></clipPath></defs><g id="Capa_2" data-name="Capa 2"><g id="Capa_1-2" data-name="Capa 1"><g class="cls-2"><rect class="cls-3" x="0.54" y="0.54" width="525" height="232.7"/></g><g class="cls-4"><line class="cls-5" x1="29.22" y1="163.88" x2="520.06" y2="163.88"/></g><g class="cls-4"><line class="cls-5" x1="29.22" y1="130.42" x2="520.06" y2="130.42"/></g><g class="cls-4"><line class="cls-5" x1="29.22" y1="96.96" x2="520.06" y2="96.96"/></g><g class="cls-4"><line class="cls-5" x1="29.22" y1="63.49" x2="520.06" y2="63.49"/></g><g class="cls-4"><line class="cls-5" x1="103.24" y1="187.31" x2="103.24" y2="40.06"/></g><g class="cls-4"><line class="cls-5" x1="206.68" y1="187.31" x2="206.68" y2="40.06"/></g><g class="cls-4"><line class="cls-5" x1="310.14" y1="187.31" x2="310.14" y2="40.06"/></g><g class="cls-4"><line class="cls-5" x1="413.58" y1="187.31" x2="413.58" y2="40.06"/></g><g class="cls-4"><line class="cls-5" x1="517.02" y1="187.31" x2="517.02" y2="40.06"/></g><g class="cls-4"><line class="cls-6" x1="29.22" y1="180.63" x2="520.06" y2="180.63"/></g><g class="cls-4"><line class="cls-6" x1="29.22" y1="147.16" x2="520.06" y2="147.16"/></g><g class="cls-4"><line class="cls-6" x1="29.22" y1="113.69" x2="520.06" y2="113.69"/></g><g class="cls-4"><line class="cls-6" x1="29.22" y1="80.22" x2="520.06" y2="80.22"/></g><g class="cls-4"><line class="cls-6" x1="29.22" y1="46.76" x2="520.06" y2="46.76"/></g><g class="cls-4"><line class="cls-7" x1="51.53" y1="180.63" x2="477.05" y2="180.63"/></g><g class="cls-4"><line class="cls-7" x1="51.53" y1="147.16" x2="406.58" y2="147.16"/></g><g class="cls-4"><line class="cls-7" x1="51.53" y1="113.69" x2="299.79" y2="113.69"/></g><g class="cls-4"><line class="cls-7" x1="51.53" y1="80.22" x2="272.43" y2="80.22"/></g><g class="cls-4"><line class="cls-7" x1="51.53" y1="46.76" x2="191.48" y2="46.76"/></g><g class="cls-4"><text class="cls-8" transform="translate(489.21 183.67)">2.06</text></g><g class="cls-4"><text class="cls-8" transform="translate(418.76 150.21)">1.72</text></g><g class="cls-4"><text class="cls-8" transform="translate(314.39 116.73)">1.2</text></g><g class="cls-4"><text class="cls-8" transform="translate(284.61 83.28)">1.07</text></g><g class="cls-4"><text class="cls-8" transform="translate(203.65 49.8)">0.68</text></g><g class="cls-4"><circle class="cls-9" cx="477.05" cy="180.63" r="4.62"/></g><g class="cls-4"><circle class="cls-9" cx="406.58" cy="147.16" r="4.62"/></g><g class="cls-4"><circle class="cls-9" cx="299.79" cy="113.69" r="4.62"/></g><g class="cls-4"><circle class="cls-9" cx="272.43" cy="80.22" r="4.62"/></g><g class="cls-4"><circle class="cls-9" cx="191.48" cy="46.76" r="4.62"/></g><g class="cls-10"><text class="cls-11" transform="translate(19.24 183.77)">1</text></g><g class="cls-10"><text class="cls-11" transform="translate(19.24 150.3)">2</text></g><g class="cls-10"><text class="cls-11" transform="translate(19.24 116.84)">3</text></g><g class="cls-10"><text class="cls-11" transform="translate(19.24 83.36)">4</text></g><g class="cls-10"><text class="cls-11" transform="translate(19.24 49.9)">5</text></g><g class="cls-10"><line class="cls-12" x1="26.48" y1="180.63" x2="29.22" y2="180.63"/></g><g class="cls-10"><line class="cls-12" x1="26.48" y1="147.16" x2="29.22" y2="147.16"/></g><g class="cls-10"><line class="cls-12" x1="26.48" y1="113.69" x2="29.22" y2="113.69"/></g><g class="cls-10"><line class="cls-12" x1="26.48" y1="80.22" x2="29.22" y2="80.22"/></g><g class="cls-10"><line class="cls-12" x1="26.48" y1="46.76" x2="29.22" y2="46.76"/></g><g class="cls-10"><line class="cls-12" x1="51.53" y1="190.05" x2="51.53" y2="187.31"/></g><g class="cls-10"><line class="cls-12" x1="154.96" y1="190.05" x2="154.96" y2="187.31"/></g><g class="cls-10"><line class="cls-12" x1="258.42" y1="190.05" x2="258.42" y2="187.31"/></g><g class="cls-10"><line class="cls-12" x1="361.86" y1="190.05" x2="361.86" y2="187.31"/></g><g class="cls-10"><line class="cls-12" x1="465.3" y1="190.05" x2="465.3" y2="187.31"/></g><g class="cls-10"><text class="cls-11" transform="translate(45.33 198.53)">0.0</text></g><g class="cls-10"><text class="cls-11" transform="translate(148.76 198.53)">0.5</text></g><g class="cls-10"><text class="cls-11" transform="translate(252.2 198.53)">1.0</text></g><g class="cls-10"><text class="cls-11" transform="translate(355.66 198.53)">1.5</text></g><g class="cls-10"><text class="cls-11" transform="translate(459.09 198.53)">2.0</text></g><g class="cls-10"><text class="cls-13" transform="translate(6.02 31.94)">Segundo y Tercer trimestre 2020</text></g><g class="cls-10"><text class="cls-14" transform="translate(6.01 15.44)">Cantidad de hijos por Mujer s/ quintil de IPCF</text></g></g></g></svg>