<svg xmlns="http://www.w3.org/2000/svg" xmlns:xlink="http://www.w3.org/1999/xlink" viewBox="0 0 493.04 216.9"><defs><style>.cls-1,.cls-10,.cls-3,.cls-4,.cls-5{fill:none;}.cls-2{clip-path:url(#clip-path);}.cls-3,.cls-4{stroke:#fff;}.cls-10,.cls-3,.cls-4,.cls-5,.cls-6{stroke-linejoin:round;}.cls-3{stroke-width:0.53px;}.cls-10,.cls-4{stroke-width:1.07px;}.cls-5{stroke:#29aee4;stroke-width:3.2px;}.cls-6{fill:#0c8136;stroke:#0c8136;stroke-linecap:round;stroke-width:0.71px;}.cls-11,.cls-12,.cls-7,.cls-9{isolation:isolate;font-family:OpenSans-Regular, Open Sans;}.cls-7{font-size:11.04px;}.cls-8{clip-path:url(#clip-path-30);}.cls-9{font-size:8.8px;}.cls-10{stroke:#333;}.cls-11{font-size:11px;}.cls-12{font-size:13.2px;}</style><clipPath id="clip-path" transform="translate(-5.48 -127.68)"><rect class="cls-1" x="136.59" y="163.62" width="361.93" height="180.96"/></clipPath><clipPath id="clip-path-30" transform="translate(-5.48 -127.68)"><rect class="cls-1" width="504" height="504"/></clipPath></defs><g id="Capa_2" data-name="Capa 2"><g id="Capa_1-2" data-name="Capa 1"><g class="cls-2"><line class="cls-3" x1="181.84" y1="216.9" x2="181.84" y2="35.94"/></g><g class="cls-2"><line class="cls-3" x1="250.38" y1="216.9" x2="250.38" y2="35.94"/></g><g class="cls-2"><line class="cls-3" x1="318.93" y1="216.9" x2="318.93" y2="35.94"/></g><g class="cls-2"><line class="cls-3" x1="387.48" y1="216.9" x2="387.48" y2="35.94"/></g><g class="cls-2"><line class="cls-3" x1="456.03" y1="216.9" x2="456.03" y2="35.94"/></g><g class="cls-2"><line class="cls-4" x1="131.11" y1="199.39" x2="493.04" y2="199.39"/></g><g class="cls-2"><line class="cls-4" x1="131.11" y1="170.2" x2="493.04" y2="170.2"/></g><g class="cls-2"><line class="cls-4" x1="131.11" y1="141.01" x2="493.04" y2="141.01"/></g><g class="cls-2"><line class="cls-4" x1="131.11" y1="111.83" x2="493.04" y2="111.83"/></g><g class="cls-2"><line class="cls-4" x1="131.11" y1="82.64" x2="493.04" y2="82.64"/></g><g class="cls-2"><line class="cls-4" x1="131.11" y1="53.45" x2="493.04" y2="53.45"/></g><g class="cls-2"><line class="cls-5" x1="147.56" y1="199.39" x2="154.99" y2="199.39"/></g><g class="cls-2"><line class="cls-5" x1="147.56" y1="170.2" x2="188.55" y2="170.2"/></g><g class="cls-2"><line class="cls-5" x1="147.56" y1="141.01" x2="195.33" y2="141.01"/></g><g class="cls-2"><line class="cls-5" x1="147.56" y1="111.83" x2="287.95" y2="111.83"/></g><g class="cls-2"><line class="cls-5" x1="147.56" y1="82.64" x2="307.96" y2="82.64"/></g><g class="cls-2"><line class="cls-5" x1="147.56" y1="53.45" x2="436.08" y2="53.45"/></g><g class="cls-2"><circle class="cls-6" cx="154.99" cy="199.39" r="5.69"/></g><g class="cls-2"><circle class="cls-6" cx="188.55" cy="170.2" r="5.69"/></g><g class="cls-2"><circle class="cls-6" cx="195.33" cy="141.01" r="5.69"/></g><g class="cls-2"><circle class="cls-6" cx="287.95" cy="111.83" r="5.69"/></g><g class="cls-2"><circle class="cls-6" cx="307.96" cy="82.64" r="5.69"/></g><g class="cls-2"><circle class="cls-6" cx="436.08" cy="53.45" r="5.69"/></g><g class="cls-2"><text class="cls-7" transform="translate(166.92 202)">1.08%</text></g><g class="cls-2"><text class="cls-7" transform="translate(200.49 172.81)">5.98%</text></g><g class="cls-2"><text class="cls-7" transform="translate(207.27 143.63)">6.97%</text></g><g class="cls-2"><text class="cls-7" transform="translate(296.73 114.44)">20.48%</text></g><g class="cls-2"><text class="cls-7" transform="translate(316.74 85.25)">23.40%</text></g><g class="cls-2"><text class="cls-7" transform="translate(444.86 56.06)">42.09%</text></g><g class="cls-8"><text class="cls-9" transform="translate(60.35 202.53)">Violencia Sexual</text></g><g class="cls-8"><text class="cls-9" transform="translate(42.63 173.34)">Violencia Económica</text></g><g class="cls-8"><text class="cls-9" transform="translate(29.81 144.15)">Violencia de Restricción</text></g><g class="cls-8"><text class="cls-9" transform="translate(45.98 114.97)">Violencia ambiental</text></g><g class="cls-8"><text class="cls-9" transform="translate(64.97 85.78)">Violencia Física</text></g><g class="cls-8"><text class="cls-9" transform="translate(13.23 56.59)">Violencia Verbal-Psicológica</text></g><g class="cls-8"><line class="cls-10" x1="128.37" y1="199.39" x2="131.11" y2="199.39"/></g><g class="cls-8"><line class="cls-10" x1="128.37" y1="170.2" x2="131.11" y2="170.2"/></g><g class="cls-8"><line class="cls-10" x1="128.37" y1="141.01" x2="131.11" y2="141.01"/></g><g class="cls-8"><line class="cls-10" x1="128.37" y1="111.83" x2="131.11" y2="111.83"/></g><g class="cls-8"><line class="cls-10" x1="128.37" y1="82.64" x2="131.11" y2="82.64"/></g><g class="cls-8"><line class="cls-10" x1="128.37" y1="53.45" x2="131.11" y2="53.45"/></g><g class="cls-8"><text class="cls-11" transform="translate(0 27.82)">2020</text></g><g class="cls-8"><text class="cls-12" transform="translate(0 11.31)">Denuncias por tipo de Violencia de Género</text></g></g></g></svg>