<svg xmlns="http://www.w3.org/2000/svg" xmlns:xlink="http://www.w3.org/1999/xlink" viewBox="0 0 483.26 244.28"><defs><style>.cls-1,.cls-3,.cls-8{fill:none;}.cls-2{clip-path:url(#clip-path);}.cls-3{stroke:#29aee4;stroke-width:3.2px;}.cls-3,.cls-4,.cls-8{stroke-linejoin:round;}.cls-4{fill:#0c8136;stroke:#0c8136;stroke-linecap:round;stroke-width:0.71px;}.cls-10,.cls-5,.cls-7,.cls-9{isolation:isolate;font-family:OpenSans-Regular, Open Sans;}.cls-5{font-size:11.04px;}.cls-6{clip-path:url(#clip-path-37);}.cls-7{font-size:8.8px;}.cls-8{stroke:#000;stroke-width:1.07px;}.cls-9{font-size:11px;}.cls-10{font-size:13.2px;}</style><clipPath id="clip-path" transform="translate(-5.48 -112.25)"><rect class="cls-1" x="74.86" y="148.19" width="423.66" height="211.83"/></clipPath><clipPath id="clip-path-37" transform="translate(-5.48 -112.25)"><rect class="cls-1" width="504" height="504"/></clipPath></defs><g id="Capa_2" data-name="Capa 2"><g id="Capa_1-2" data-name="Capa 1"><g class="cls-2"><line class="cls-3" x1="133.89" y1="237.35" x2="88.64" y2="237.35"/></g><g class="cls-2"><circle class="cls-4" cx="133.89" cy="237.35" r="5.69"/></g><g class="cls-2"><line class="cls-3" x1="241.49" y1="219.98" x2="88.64" y2="219.98"/></g><g class="cls-2"><circle class="cls-4" cx="241.49" cy="219.98" r="5.69"/></g><g class="cls-2"><line class="cls-3" x1="275.68" y1="202.62" x2="88.64" y2="202.62"/></g><g class="cls-2"><circle class="cls-4" cx="275.68" cy="202.62" r="5.69"/></g><g class="cls-2"><line class="cls-3" x1="407.41" y1="185.26" x2="88.64" y2="185.26"/></g><g class="cls-2"><circle class="cls-4" cx="407.41" cy="185.26" r="5.69"/></g><g class="cls-2"><line class="cls-3" x1="387.3" y1="167.89" x2="88.64" y2="167.89"/></g><g class="cls-2"><circle class="cls-4" cx="387.3" cy="167.89" r="5.69"/></g><g class="cls-2"><line class="cls-3" x1="271.66" y1="150.53" x2="88.64" y2="150.53"/></g><g class="cls-2"><circle class="cls-4" cx="271.66" cy="150.53" r="5.69"/></g><g class="cls-2"><line class="cls-3" x1="287.75" y1="133.17" x2="88.64" y2="133.17"/></g><g class="cls-2"><circle class="cls-4" cx="287.75" cy="133.17" r="5.69"/></g><g class="cls-2"><line class="cls-3" x1="214.34" y1="115.8" x2="88.64" y2="115.8"/></g><g class="cls-2"><circle class="cls-4" cx="214.34" cy="115.8" r="5.69"/></g><g class="cls-2"><line class="cls-3" x1="458.7" y1="98.44" x2="88.64" y2="98.44"/></g><g class="cls-2"><circle class="cls-4" cx="458.7" cy="98.44" r="5.69"/></g><g class="cls-2"><line class="cls-3" x1="426.52" y1="81.08" x2="88.64" y2="81.08"/></g><g class="cls-2"><circle class="cls-4" cx="426.52" cy="81.08" r="5.69"/></g><g class="cls-2"><line class="cls-3" x1="333" y1="63.72" x2="88.64" y2="63.72"/></g><g class="cls-2"><circle class="cls-4" cx="333" cy="63.72" r="5.69"/></g><g class="cls-2"><line class="cls-3" x1="198.25" y1="46.35" x2="88.64" y2="46.35"/></g><g class="cls-2"><circle class="cls-4" cx="198.25" cy="46.35" r="5.69"/></g><g class="cls-2"><text class="cls-5" transform="translate(142.66 241.29)">45</text></g><g class="cls-2"><text class="cls-5" transform="translate(247.11 223.92)">152</text></g><g class="cls-2"><text class="cls-5" transform="translate(281.3 206.56)">186</text></g><g class="cls-2"><text class="cls-5" transform="translate(413.03 189.2)">317</text></g><g class="cls-2"><text class="cls-5" transform="translate(392.92 171.83)">297</text></g><g class="cls-2"><text class="cls-5" transform="translate(277.27 154.47)">182</text></g><g class="cls-2"><text class="cls-5" transform="translate(293.36 137.11)">198</text></g><g class="cls-2"><text class="cls-5" transform="translate(219.96 119.75)">125</text></g><g class="cls-2"><text class="cls-5" transform="translate(464.32 102.38)">368</text></g><g class="cls-2"><text class="cls-5" transform="translate(432.14 85.02)">336</text></g><g class="cls-2"><text class="cls-5" transform="translate(338.62 67.66)">243</text></g><g class="cls-2"><text class="cls-5" transform="translate(203.87 50.29)">109</text></g><g class="cls-6"><text class="cls-7" transform="translate(18.7 240.49)">DICIEMBRE</text></g><g class="cls-6"><text class="cls-7" transform="translate(14.4 223.12)">NOVIEMBRE</text></g><g class="cls-6"><text class="cls-7" transform="translate(24.74 205.76)">OCTUBRE</text></g><g class="cls-6"><text class="cls-7" transform="translate(13.23 188.4)">SEPTIEMBRE</text></g><g class="cls-6"><text class="cls-7" transform="translate(29.07 171.03)">AGOSTO</text></g><g class="cls-6"><text class="cls-7" transform="translate(41.82 153.67)">JULIO</text></g><g class="cls-6"><text class="cls-7" transform="translate(39.75 136.31)">JUNIO</text></g><g class="cls-6"><text class="cls-7" transform="translate(39.16 118.95)">MAYO</text></g><g class="cls-6"><text class="cls-7" transform="translate(40.72 101.58)">ABRIL</text></g><g class="cls-6"><text class="cls-7" transform="translate(33.62 84.22)">MARZO</text></g><g class="cls-6"><text class="cls-7" transform="translate(26.69 66.86)">FEBRERO</text></g><g class="cls-6"><text class="cls-7" transform="translate(35.74 49.49)">ENERO</text></g><g class="cls-6"><line class="cls-8" x1="66.64" y1="237.35" x2="69.38" y2="237.35"/></g><g class="cls-6"><line class="cls-8" x1="66.64" y1="219.98" x2="69.38" y2="219.98"/></g><g class="cls-6"><line class="cls-8" x1="66.64" y1="202.62" x2="69.38" y2="202.62"/></g><g class="cls-6"><line class="cls-8" x1="66.64" y1="185.26" x2="69.38" y2="185.26"/></g><g class="cls-6"><line class="cls-8" x1="66.64" y1="167.89" x2="69.38" y2="167.89"/></g><g class="cls-6"><line class="cls-8" x1="66.64" y1="150.53" x2="69.38" y2="150.53"/></g><g class="cls-6"><line class="cls-8" x1="66.64" y1="133.17" x2="69.38" y2="133.17"/></g><g class="cls-6"><line class="cls-8" x1="66.64" y1="115.8" x2="69.38" y2="115.8"/></g><g class="cls-6"><line class="cls-8" x1="66.64" y1="98.44" x2="69.38" y2="98.44"/></g><g class="cls-6"><line class="cls-8" x1="66.64" y1="81.08" x2="69.38" y2="81.08"/></g><g class="cls-6"><line class="cls-8" x1="66.64" y1="63.72" x2="69.38" y2="63.72"/></g><g class="cls-6"><line class="cls-8" x1="66.64" y1="46.35" x2="69.38" y2="46.35"/></g><g class="cls-6"><text class="cls-9" transform="translate(0 27.81)">2020</text></g><g class="cls-6"><text class="cls-10" transform="translate(0 11.31)">Denuncias por violencia de género en la Provincia de Corrientes</text></g></g></g></svg>