<svg xmlns="http://www.w3.org/2000/svg" xmlns:xlink="http://www.w3.org/1999/xlink" viewBox="0 0 493.41 281.04"><defs><style>.cls-1,.cls-10,.cls-3,.cls-7{fill:none;}.cls-2{clip-path:url(#clip-path);}.cls-3{stroke:#fff;stroke-width:0.53px;}.cls-10,.cls-3,.cls-7{stroke-linejoin:round;}.cls-14,.cls-4{fill:#29aee4;}.cls-15,.cls-5{fill:#0c8136;}.cls-11,.cls-12,.cls-13,.cls-14,.cls-15,.cls-6,.cls-9{isolation:isolate;}.cls-6{font-size:11.04px;}.cls-11,.cls-12,.cls-13,.cls-6,.cls-9{font-family:OpenSans-Regular, Open Sans;}.cls-7{stroke:#000;}.cls-10,.cls-7{stroke-width:1.07px;}.cls-8{clip-path:url(#clip-path-41);}.cls-9{font-size:8.8px;}.cls-10{stroke:#333;}.cls-11{font-size:8px;}.cls-12{font-size:11px;}.cls-13,.cls-14,.cls-15{font-size:13.2px;}.cls-14,.cls-15{font-family:OpenSans-Bold, Open Sans;font-weight:700;}</style><clipPath id="clip-path" transform="translate(-4.33 -103.72)"><rect class="cls-1" x="30.85" y="139.66" width="442.31" height="221.15"/></clipPath><clipPath id="clip-path-41" transform="translate(-4.33 -103.72)"><rect class="cls-1" width="504" height="504"/></clipPath></defs><g id="Capa_2" data-name="Capa 2"><g id="Capa_1-2" data-name="Capa 1"><g class="cls-2"><line class="cls-3" x1="26.52" y1="215.21" x2="468.82" y2="215.21"/></g><g class="cls-2"><line class="cls-3" x1="26.52" y1="151.56" x2="468.82" y2="151.56"/></g><g class="cls-2"><line class="cls-3" x1="26.52" y1="87.9" x2="468.82" y2="87.9"/></g><g class="cls-2"><line class="cls-3" x1="44.59" y1="257.09" x2="44.59" y2="35.94"/></g><g class="cls-2"><line class="cls-3" x1="125.82" y1="257.09" x2="125.82" y2="35.94"/></g><g class="cls-2"><line class="cls-3" x1="207.05" y1="257.09" x2="207.05" y2="35.94"/></g><g class="cls-2"><line class="cls-3" x1="288.29" y1="257.09" x2="288.29" y2="35.94"/></g><g class="cls-2"><line class="cls-3" x1="369.52" y1="257.09" x2="369.52" y2="35.94"/></g><g class="cls-2"><line class="cls-3" x1="450.75" y1="257.09" x2="450.75" y2="35.94"/></g><g class="cls-2"><rect class="cls-4" x="48.65" y="138.1" width="36.55" height="108.94"/></g><g class="cls-2"><rect class="cls-5" x="85.21" y="148.95" width="36.55" height="98.09"/></g><g class="cls-2"><rect class="cls-4" x="129.88" y="128.25" width="36.55" height="118.79"/></g><g class="cls-2"><rect class="cls-5" x="166.44" y="168.46" width="36.55" height="78.58"/></g><g class="cls-2"><rect class="cls-4" x="211.12" y="120.41" width="36.55" height="126.63"/></g><g class="cls-2"><rect class="cls-5" x="247.67" y="154.99" width="36.55" height="92.05"/></g><g class="cls-2"><rect class="cls-4" x="292.35" y="119.93" width="36.55" height="127.11"/></g><g class="cls-2"><rect class="cls-5" x="328.9" y="145.08" width="36.55" height="101.96"/></g><g class="cls-2"><rect class="cls-4" x="373.58" y="128.77" width="36.55" height="118.27"/></g><g class="cls-2"><rect class="cls-5" x="410.13" y="154.32" width="36.55" height="92.72"/></g><g class="cls-2"><polygon points="83.25 194.75 87.16 194.75 87.16 190.84 83.25 190.84 83.25 194.75"/></g><g class="cls-2"><polygon points="83.25 194.75 87.16 194.75 87.16 190.84 83.25 190.84 83.25 194.75"/></g><g class="cls-2"><polygon points="164.48 47.95 168.39 47.95 168.39 44.04 164.48 44.04 164.48 47.95"/></g><g class="cls-2"><polygon points="164.48 47.95 168.39 47.95 168.39 44.04 164.48 44.04 164.48 47.95"/></g><g class="cls-2"><polygon points="245.72 76.13 249.62 76.13 249.62 72.22 245.72 72.22 245.72 76.13"/></g><g class="cls-2"><polygon points="245.72 76.13 249.62 76.13 249.62 72.22 245.72 72.22 245.72 76.13"/></g><g class="cls-2"><polygon points="326.95 123.24 330.86 123.24 330.86 119.33 326.95 119.33 326.95 123.24"/></g><g class="cls-2"><polygon points="326.95 123.24 330.86 123.24 330.86 119.33 326.95 119.33 326.95 123.24"/></g><g class="cls-2"><polygon points="408.18 121.21 412.09 121.21 412.09 117.3 408.18 117.3 408.18 121.21"/></g><g class="cls-2"><polygon points="408.18 121.21 412.09 121.21 412.09 117.3 408.18 117.3 408.18 121.21"/></g><g class="cls-2"><text class="cls-6" transform="translate(53.96 142.04)">34.2</text></g><g class="cls-2"><text class="cls-6" transform="translate(94.58 152.89)">30.8</text></g><g class="cls-2"><text class="cls-6" transform="translate(135.19 132.19)">37.3</text></g><g class="cls-2"><text class="cls-6" transform="translate(175.81 172.4)">24.7</text></g><g class="cls-2"><text class="cls-6" transform="translate(216.42 124.35)">39.8</text></g><g class="cls-2"><text class="cls-6" transform="translate(257.04 158.93)">28.9</text></g><g class="cls-2"><text class="cls-6" transform="translate(297.66 123.87)">39.9</text></g><g class="cls-2"><text class="cls-6" transform="translate(342.9 149.02)">32</text></g><g class="cls-2"><text class="cls-6" transform="translate(378.89 132.71)">37.2</text></g><g class="cls-2"><text class="cls-6" transform="translate(419.5 158.26)">29.1</text></g><g class="cls-2"><line class="cls-7" x1="26.52" y1="247.04" x2="468.82" y2="247.04"/></g><g class="cls-8"><text class="cls-9" transform="translate(16.55 250.18)">0</text></g><g class="cls-8"><text class="cls-9" transform="translate(11.52 186.53)">20</text></g><g class="cls-8"><text class="cls-9" transform="translate(11.52 122.87)">40</text></g><g class="cls-8"><text class="cls-9" transform="translate(11.52 59.22)">60</text></g><g class="cls-8"><line class="cls-10" x1="23.78" y1="247.04" x2="26.52" y2="247.04"/></g><g class="cls-8"><line class="cls-10" x1="23.78" y1="183.39" x2="26.52" y2="183.39"/></g><g class="cls-8"><line class="cls-10" x1="23.78" y1="119.73" x2="26.52" y2="119.73"/></g><g class="cls-8"><line class="cls-10" x1="23.78" y1="56.08" x2="26.52" y2="56.08"/></g><g class="cls-8"><line class="cls-10" x1="468.82" y1="247.13" x2="471.56" y2="247.13"/></g><g class="cls-8"><line class="cls-10" x1="468.82" y1="215.25" x2="471.56" y2="215.25"/></g><g class="cls-8"><line class="cls-10" x1="468.82" y1="183.38" x2="471.56" y2="183.38"/></g><g class="cls-8"><line class="cls-10" x1="468.82" y1="151.5" x2="471.56" y2="151.5"/></g><g class="cls-8"><line class="cls-10" x1="468.82" y1="119.84" x2="471.56" y2="119.84"/></g><g class="cls-8"><line class="cls-10" x1="468.82" y1="87.96" x2="471.56" y2="87.96"/></g><g class="cls-8"><line class="cls-10" x1="468.82" y1="56.08" x2="471.56" y2="56.08"/></g><g class="cls-8"><text class="cls-9" transform="translate(473.75 250.27)">0</text></g><g class="cls-8"><text class="cls-9" transform="translate(473.75 218.39)">2</text></g><g class="cls-8"><text class="cls-9" transform="translate(473.75 186.52)">4</text></g><g class="cls-8"><text class="cls-9" transform="translate(473.75 154.64)">6</text></g><g class="cls-8"><text class="cls-9" transform="translate(473.75 122.98)">8</text></g><g class="cls-8"><text class="cls-9" transform="translate(473.75 91.1)">10</text></g><g class="cls-8"><text class="cls-9" transform="translate(473.75 59.23)">12</text></g><g class="cls-8"><line class="cls-10" x1="85.21" y1="259.83" x2="85.21" y2="257.09"/></g><g class="cls-8"><line class="cls-10" x1="166.44" y1="259.83" x2="166.44" y2="257.09"/></g><g class="cls-8"><line class="cls-10" x1="247.67" y1="259.83" x2="247.67" y2="257.09"/></g><g class="cls-8"><line class="cls-10" x1="328.9" y1="259.83" x2="328.9" y2="257.09"/></g><g class="cls-8"><line class="cls-10" x1="410.13" y1="259.83" x2="410.13" y2="257.09"/></g><g class="cls-8"><text class="cls-9" transform="translate(82.69 268.31)">1</text></g><g class="cls-8"><text class="cls-9" transform="translate(163.92 268.31)">2</text></g><g class="cls-8"><text class="cls-9" transform="translate(245.15 268.31)">3</text></g><g class="cls-8"><text class="cls-9" transform="translate(326.39 268.31)">4</text></g><g class="cls-8"><text class="cls-9" transform="translate(407.62 268.31)">5</text></g><g class="cls-8"><text class="cls-11" transform="translate(226.05 278.87)">Quintil IPCF</text></g><g class="cls-8"><text class="cls-11" transform="translate(6.86 197.84) rotate(-90)">Horas trabajadas promedio</text></g><g class="cls-8"><text class="cls-11" transform="translate(486.56 133.46) rotate(90)">Brecha</text></g><g class="cls-8"><text class="cls-12" transform="translate(1.15 27.82)">Segundo y Tercer trimestre 2020</text></g><g class="cls-8"><text class="cls-13" transform="translate(1.15 11.31)">Horas</text></g><g class="cls-8"><text class="cls-13" transform="translate(41.32 11.31)">semanales</text></g><g class="cls-8"><text class="cls-13" transform="translate(110.55 11.31)">trabajadas</text></g><g class="cls-8"><text class="cls-13" transform="translate(179.21 11.31)">de</text></g><g class="cls-8"><text class="cls-14" transform="translate(198.13 11.31)">Hombres</text></g><g class="cls-8"><text class="cls-13" transform="translate(261.5 11.31)">y</text></g><g class="cls-8"><text class="cls-15" transform="translate(271.58 11.31)">Mujeres</text></g><g class="cls-8"><text class="cls-13" transform="translate(328.31 11.31)">por</text></g><g class="cls-8"><text class="cls-13" transform="translate(353.19 11.31)">quintil</text></g><g class="cls-8"><text class="cls-13" transform="translate(395.59 11.31)">de</text></g><g class="cls-8"><text class="cls-13" transform="translate(414.51 11.31)">IPCF</text></g></g></g></svg>