<svg xmlns="http://www.w3.org/2000/svg" xmlns:xlink="http://www.w3.org/1999/xlink" viewBox="0 0 515.07 285.08"><defs><style>.cls-1,.cls-3,.cls-4{fill:none;}.cls-2{clip-path:url(#clip-path);}.cls-3,.cls-4{stroke:#fff;stroke-linejoin:round;}.cls-3{stroke-width:0.53px;}.cls-4,.cls-5,.cls-6,.cls-7,.cls-8{stroke-width:1.07px;}.cls-5{fill:#ed3068;}.cls-5,.cls-6,.cls-7,.cls-8{stroke:#000;stroke-linecap:square;stroke-miterlimit:10;}.cls-6{fill:#ef4275;}.cls-7{fill:#f69cb7;}.cls-8{fill:#f3789d;}.cls-10,.cls-12,.cls-13,.cls-9{isolation:isolate;font-family:OpenSans-Regular, Open Sans;}.cls-9{font-size:14.23px;}.cls-10{font-size:11.04px;}.cls-11{clip-path:url(#clip-path-57);}.cls-12{font-size:11px;}.cls-13{font-size:13.2px;}</style><clipPath id="clip-path" transform="translate(-4.45 -3.59)"><rect class="cls-1" x="21.45" y="39.53" width="498.07" height="249.14"/></clipPath><clipPath id="clip-path-57" transform="translate(-4.45 -3.59)"><rect class="cls-1" width="525" height="324"/></clipPath></defs><g id="Capa_2" data-name="Capa 2"><g id="Capa_1-2" data-name="Capa 1"><g class="cls-2"><line class="cls-3" x1="17" y1="242.87" x2="515.07" y2="242.87"/></g><g class="cls-2"><line class="cls-3" x1="17" y1="181.1" x2="515.07" y2="181.1"/></g><g class="cls-2"><line class="cls-3" x1="17" y1="119.33" x2="515.07" y2="119.33"/></g><g class="cls-2"><line class="cls-3" x1="17" y1="57.56" x2="515.07" y2="57.56"/></g><g class="cls-2"><line class="cls-3" x1="100.02" y1="285.08" x2="100.02" y2="35.94"/></g><g class="cls-2"><line class="cls-3" x1="220.76" y1="285.08" x2="220.76" y2="35.94"/></g><g class="cls-2"><line class="cls-3" x1="341.5" y1="285.08" x2="341.5" y2="35.94"/></g><g class="cls-2"><line class="cls-3" x1="462.25" y1="285.08" x2="462.25" y2="35.94"/></g><g class="cls-2"><line class="cls-4" x1="17" y1="273.76" x2="515.07" y2="273.76"/></g><g class="cls-2"><line class="cls-4" x1="17" y1="211.98" x2="515.07" y2="211.98"/></g><g class="cls-2"><line class="cls-4" x1="17" y1="150.21" x2="515.07" y2="150.21"/></g><g class="cls-2"><line class="cls-4" x1="17" y1="88.44" x2="515.07" y2="88.44"/></g><g class="cls-2"><line class="cls-4" x1="39.64" y1="285.08" x2="39.64" y2="35.94"/></g><g class="cls-2"><line class="cls-4" x1="160.39" y1="285.08" x2="160.39" y2="35.94"/></g><g class="cls-2"><line class="cls-4" x1="281.13" y1="285.08" x2="281.13" y2="35.94"/></g><g class="cls-2"><line class="cls-4" x1="401.87" y1="285.08" x2="401.87" y2="35.94"/></g><g class="cls-2"><rect class="cls-5" x="100.02" y="67.85" width="301.86" height="205.9"/></g><g class="cls-2"><rect class="cls-5" x="100.02" y="67.85" width="301.86" height="205.9"/></g><g class="cls-2"><rect class="cls-5" x="100.02" y="67.85" width="301.86" height="205.9"/></g><g class="cls-2"><rect class="cls-5" x="100.02" y="67.85" width="301.86" height="205.9"/></g><g class="cls-2"><rect class="cls-6" x="100.02" y="170.8" width="150.93" height="102.95"/></g><g class="cls-2"><rect class="cls-6" x="100.02" y="170.8" width="150.93" height="102.95"/></g><g class="cls-2"><rect class="cls-6" x="100.02" y="170.8" width="150.93" height="102.95"/></g><g class="cls-2"><rect class="cls-6" x="100.02" y="170.8" width="150.93" height="102.95"/></g><g class="cls-2"><rect class="cls-7" x="250.94" y="67.85" width="150.93" height="102.95"/></g><g class="cls-2"><rect class="cls-7" x="250.94" y="67.85" width="150.93" height="102.95"/></g><g class="cls-2"><rect class="cls-7" x="250.94" y="67.85" width="150.93" height="102.95"/></g><g class="cls-2"><rect class="cls-7" x="250.94" y="67.85" width="150.93" height="102.95"/></g><g class="cls-2"><rect class="cls-8" x="100.02" y="67.85" width="150.93" height="102.95"/></g><g class="cls-2"><rect class="cls-8" x="100.02" y="67.85" width="150.93" height="102.95"/></g><g class="cls-2"><rect class="cls-8" x="100.02" y="67.85" width="150.93" height="102.95"/></g><g class="cls-2"><rect class="cls-8" x="100.02" y="67.85" width="150.93" height="102.95"/></g><g class="cls-2"><text class="cls-9" transform="translate(151.46 122.7)">11.66%</text></g><g class="cls-2"><text class="cls-9" transform="translate(151.46 122.7)">11.66%</text></g><g class="cls-2"><text class="cls-9" transform="translate(151.46 122.7)">11.66%</text></g><g class="cls-2"><text class="cls-9" transform="translate(151.46 122.7)">11.66%</text></g><g class="cls-2"><text class="cls-9" transform="translate(306.46 122.7)">8.62%</text></g><g class="cls-2"><text class="cls-9" transform="translate(306.46 122.7)">8.62%</text></g><g class="cls-2"><text class="cls-9" transform="translate(306.46 122.7)">8.62%</text></g><g class="cls-2"><text class="cls-9" transform="translate(306.46 122.7)">8.62%</text></g><g class="cls-2"><text class="cls-9" transform="translate(151.46 225.65)">29.00%</text></g><g class="cls-2"><text class="cls-9" transform="translate(151.46 225.65)">29.00%</text></g><g class="cls-2"><text class="cls-9" transform="translate(151.46 225.65)">29.00%</text></g><g class="cls-2"><text class="cls-9" transform="translate(151.46 225.65)">29.00%</text></g><g class="cls-2"><text class="cls-9" transform="translate(302.39 225.65)">50.73%</text></g><g class="cls-2"><text class="cls-9" transform="translate(302.39 225.65)">50.73%</text></g><g class="cls-2"><text class="cls-9" transform="translate(302.39 225.65)">50.73%</text></g><g class="cls-2"><text class="cls-9" transform="translate(302.39 225.65)">50.73%</text></g><g class="cls-2"><text class="cls-10" transform="translate(52.38 115.32)">Jefe de</text></g><g class="cls-2"><text class="cls-10" transform="translate(54.08 131.22)">Hogar</text></g><g class="cls-2"><text class="cls-10" transform="translate(50.4 218.27)">NO Jefe</text></g><g class="cls-2"><text class="cls-10" transform="translate(46.16 234.17)">de Hogar</text></g><g class="cls-2"><text class="cls-10" transform="translate(165.94 43.25)">Jefe</text></g><g class="cls-2"><text class="cls-10" transform="translate(147.21 59.15)">económico</text></g><g class="cls-2"><text class="cls-10" transform="translate(306.98 43.25)">NO Jefe</text></g><g class="cls-2"><text class="cls-10" transform="translate(298.14 59.15)">económico</text></g><g class="cls-11"><text class="cls-12" transform="translate(1.03 27.82)">Segundo y Tercer trimestre 2020</text></g><g class="cls-11"><text class="cls-13" transform="translate(1.03 11.31)">Jefatura de hogar y jefatura económica de las mujeres</text></g></g></g></svg>