<svg xmlns="http://www.w3.org/2000/svg" xmlns:xlink="http://www.w3.org/1999/xlink" viewBox="0 0 494.62 196.28"><defs><style>.cls-1,.cls-3,.cls-4{fill:none;}.cls-2{clip-path:url(#clip-path);}.cls-3,.cls-4{stroke:#fff;stroke-linejoin:round;}.cls-3{stroke-width:0.53px;}.cls-4{stroke-width:1.07px;}.cls-12,.cls-5{fill:#29aee4;}.cls-13,.cls-6{fill:#0c8136;}.cls-10,.cls-11,.cls-12,.cls-13,.cls-7,.cls-9{isolation:isolate;}.cls-7{font-size:8.54px;}.cls-10,.cls-11,.cls-7,.cls-9{font-family:OpenSans-Regular, Open Sans;}.cls-8{clip-path:url(#clip-path-30);}.cls-9{font-size:8.8px;}.cls-10{font-size:11px;}.cls-11,.cls-12,.cls-13{font-size:13.2px;}.cls-12,.cls-13{font-family:OpenSans-Bold, Open Sans;font-weight:700;}</style><clipPath id="clip-path" transform="translate(-3.9 -139.5)"><rect class="cls-1" x="41.08" y="175.44" width="457.44" height="137.23"/></clipPath><clipPath id="clip-path-30" transform="translate(-3.9 -139.5)"><rect class="cls-1" width="504" height="504"/></clipPath></defs><g id="Capa_2" data-name="Capa 2"><g id="Capa_1-2" data-name="Capa 1"><g class="cls-2"><line class="cls-3" x1="37.18" y1="151.34" x2="494.62" y2="151.34"/></g><g class="cls-2"><line class="cls-3" x1="37.18" y1="120.15" x2="494.62" y2="120.15"/></g><g class="cls-2"><line class="cls-3" x1="37.18" y1="88.96" x2="494.62" y2="88.96"/></g><g class="cls-2"><line class="cls-3" x1="37.18" y1="57.77" x2="494.62" y2="57.77"/></g><g class="cls-2"><line class="cls-4" x1="37.18" y1="166.93" x2="494.62" y2="166.93"/></g><g class="cls-2"><line class="cls-4" x1="37.18" y1="135.74" x2="494.62" y2="135.74"/></g><g class="cls-2"><line class="cls-4" x1="37.18" y1="104.55" x2="494.62" y2="104.55"/></g><g class="cls-2"><line class="cls-4" x1="37.18" y1="73.36" x2="494.62" y2="73.36"/></g><g class="cls-2"><line class="cls-4" x1="37.18" y1="42.18" x2="494.62" y2="42.18"/></g><g class="cls-2"><line class="cls-4" x1="102.53" y1="173.17" x2="102.53" y2="35.94"/></g><g class="cls-2"><line class="cls-4" x1="211.44" y1="173.17" x2="211.44" y2="35.94"/></g><g class="cls-2"><line class="cls-4" x1="320.36" y1="173.17" x2="320.36" y2="35.94"/></g><g class="cls-2"><line class="cls-4" x1="429.27" y1="173.17" x2="429.27" y2="35.94"/></g><g class="cls-2"><rect class="cls-5" x="80.75" y="42.18" width="43.57" height="91.53"/></g><g class="cls-2"><rect class="cls-6" x="80.75" y="133.71" width="43.57" height="33.22"/></g><g class="cls-2"><rect class="cls-5" x="189.66" y="42.18" width="43.57" height="97.44"/></g><g class="cls-2"><rect class="cls-6" x="189.66" y="139.62" width="43.57" height="27.32"/></g><g class="cls-2"><rect class="cls-5" x="298.58" y="42.18" width="43.57" height="13.77"/></g><g class="cls-2"><rect class="cls-6" x="298.58" y="55.94" width="43.57" height="110.99"/></g><g class="cls-2"><rect class="cls-5" x="407.49" y="42.18" width="43.57" height="60.11"/></g><g class="cls-2"><rect class="cls-6" x="407.49" y="102.29" width="43.57" height="64.65"/></g><g class="cls-2"><text class="cls-7" transform="translate(90.56 90.99)">73.4%</text></g><g class="cls-2"><text class="cls-7" transform="translate(90.56 153.37)">26.6%</text></g><g class="cls-2"><text class="cls-7" transform="translate(199.47 93.94)">78.1%</text></g><g class="cls-2"><text class="cls-7" transform="translate(199.47 156.32)">21.9%</text></g><g class="cls-2"><text class="cls-7" transform="translate(308.39 52.1)">11.0%</text></g><g class="cls-2"><text class="cls-7" transform="translate(308.39 114.48)">89.0%</text></g><g class="cls-2"><text class="cls-7" transform="translate(417.3 75.28)">48.2%</text></g><g class="cls-2"><text class="cls-7" transform="translate(417.3 137.65)">51.8%</text></g><g class="cls-8"><text class="cls-9" transform="translate(14.81 170.07)">0.00</text></g><g class="cls-8"><text class="cls-9" transform="translate(14.81 138.88)">0.25</text></g><g class="cls-8"><text class="cls-9" transform="translate(14.81 107.69)">0.50</text></g><g class="cls-8"><text class="cls-9" transform="translate(14.81 76.51)">0.75</text></g><g class="cls-8"><text class="cls-9" transform="translate(14.81 45.32)">1.00</text></g><g class="cls-8"><text class="cls-9" transform="translate(81.35 184.38)">Biparental</text></g><g class="cls-8"><text class="cls-9" transform="translate(84.25 193.89)">con hijos</text></g><g class="cls-8"><text class="cls-9" transform="translate(190.26 184.38)">Biparental</text></g><g class="cls-8"><text class="cls-9" transform="translate(194.71 193.89)">sin hijos</text></g><g class="cls-8"><text class="cls-9" transform="translate(291.15 184.38)">Monoparental</text></g><g class="cls-8"><text class="cls-9" transform="translate(417.74 184.38)">Otros</text></g><g class="cls-8"><text class="cls-10" transform="translate(9.43 109.08) rotate(-90)">%</text></g><g class="cls-8"><text class="cls-10" transform="translate(1.58 27.82)">Segundo y Tercer trimestre 2020</text></g><g class="cls-8"><text class="cls-11" transform="translate(1.58 11.31)">Jefatura</text></g><g class="cls-8"><text class="cls-11" transform="translate(53.25 11.31)">de</text></g><g class="cls-8"><text class="cls-11" transform="translate(72.17 11.31)">hogar</text></g><g class="cls-8"><text class="cls-11" transform="translate(111.63 11.31)">de</text></g><g class="cls-8"><text class="cls-12" transform="translate(130.56 11.31)">Hombres</text></g><g class="cls-8"><text class="cls-11" transform="translate(193.93 11.31)">y</text></g><g class="cls-8"><text class="cls-13" transform="translate(204.01 11.31)">Mujeres</text></g><g class="cls-8"><text class="cls-11" transform="translate(260.74 11.31)">por</text></g><g class="cls-8"><text class="cls-11" transform="translate(285.62 11.31)">tipo</text></g><g class="cls-8"><text class="cls-11" transform="translate(313.11 11.31)">de</text></g><g class="cls-8"><text class="cls-11" transform="translate(332.03 11.31)">hogar</text></g></g></g></svg>