<svg xmlns="http://www.w3.org/2000/svg" xmlns:xlink="http://www.w3.org/1999/xlink" viewBox="0 0 505.07 231.78"><defs><style>.cls-1,.cls-5,.cls-6{fill:none;}.cls-2{clip-path:url(#clip-path);}.cls-3{fill:#fff;stroke-linecap:round;}.cls-3,.cls-5,.cls-6{stroke:#fff;stroke-linejoin:round;}.cls-3,.cls-6{stroke-width:1.07px;}.cls-4{clip-path:url(#clip-path-2);}.cls-5{stroke-width:0.53px;}.cls-14,.cls-7{fill:#29aee4;}.cls-15,.cls-8{fill:#0c8136;}.cls-11,.cls-12,.cls-13,.cls-14,.cls-15,.cls-9{isolation:isolate;}.cls-9{font-size:8.54px;}.cls-11,.cls-12,.cls-13,.cls-9{font-family:OpenSans-Regular, Open Sans;}.cls-10{clip-path:url(#clip-path-33);}.cls-11{font-size:8.8px;}.cls-12{font-size:11px;}.cls-13,.cls-14,.cls-15{font-size:13.2px;}.cls-14,.cls-15{font-family:OpenSans-Bold, Open Sans;font-weight:700;}</style><clipPath id="clip-path" transform="translate(0.54 -136.11)"><rect class="cls-1" y="136.65" width="504" height="230.71"/></clipPath><clipPath id="clip-path-2" transform="translate(0.54 -136.11)"><rect class="cls-1" x="45.99" y="176.17" width="452.54" height="135.76"/></clipPath><clipPath id="clip-path-33" transform="translate(0.54 -136.11)"><rect class="cls-1" width="504" height="504"/></clipPath></defs><g id="Capa_2" data-name="Capa 2"><g id="Capa_1-2" data-name="Capa 1"><g class="cls-2"><rect class="cls-3" x="0.54" y="0.54" width="504" height="230.71"/></g><g class="cls-4"><line class="cls-5" x1="46.53" y1="157.31" x2="499.05" y2="157.31"/></g><g class="cls-4"><line class="cls-5" x1="46.53" y1="132.62" x2="499.05" y2="132.62"/></g><g class="cls-4"><line class="cls-5" x1="46.53" y1="107.94" x2="499.05" y2="107.94"/></g><g class="cls-4"><line class="cls-5" x1="46.53" y1="83.26" x2="499.05" y2="83.26"/></g><g class="cls-4"><line class="cls-5" x1="46.53" y1="58.58" x2="499.05" y2="58.58"/></g><g class="cls-4"><line class="cls-6" x1="46.53" y1="169.65" x2="499.05" y2="169.65"/></g><g class="cls-4"><line class="cls-6" x1="46.53" y1="144.96" x2="499.05" y2="144.96"/></g><g class="cls-4"><line class="cls-6" x1="46.53" y1="120.28" x2="499.05" y2="120.28"/></g><g class="cls-4"><line class="cls-6" x1="46.53" y1="95.6" x2="499.05" y2="95.6"/></g><g class="cls-4"><line class="cls-6" x1="46.53" y1="70.92" x2="499.05" y2="70.92"/></g><g class="cls-4"><line class="cls-6" x1="46.53" y1="46.23" x2="499.05" y2="46.23"/></g><g class="cls-4"><line class="cls-6" x1="111.16" y1="175.81" x2="111.16" y2="40.06"/></g><g class="cls-4"><line class="cls-6" x1="218.92" y1="175.81" x2="218.92" y2="40.06"/></g><g class="cls-4"><line class="cls-6" x1="326.67" y1="175.81" x2="326.67" y2="40.06"/></g><g class="cls-4"><line class="cls-6" x1="434.4" y1="175.81" x2="434.4" y2="40.06"/></g><g class="cls-4"><rect class="cls-7" x="89.62" y="46.23" width="43.1" height="90.55"/></g><g class="cls-4"><rect class="cls-8" x="89.62" y="136.79" width="43.1" height="32.87"/></g><g class="cls-4"><rect class="cls-7" x="197.37" y="46.23" width="43.1" height="96.4"/></g><g class="cls-4"><rect class="cls-8" x="197.37" y="142.62" width="43.1" height="27.02"/></g><g class="cls-4"><rect class="cls-7" x="305.11" y="46.23" width="43.1" height="13.62"/></g><g class="cls-4"><rect class="cls-8" x="305.11" y="59.85" width="43.1" height="109.8"/></g><g class="cls-4"><rect class="cls-7" x="412.86" y="46.23" width="43.1" height="59.47"/></g><g class="cls-4"><rect class="cls-8" x="412.86" y="105.7" width="43.1" height="63.95"/></g><g class="cls-4"><text class="cls-9" transform="translate(99.2 94.55)">73.4%</text></g><g class="cls-4"><text class="cls-9" transform="translate(99.2 156.27)">26.6%</text></g><g class="cls-4"><text class="cls-9" transform="translate(206.95 97.47)">78.1%</text></g><g class="cls-4"><text class="cls-9" transform="translate(206.95 159.18)">21.9%</text></g><g class="cls-4"><text class="cls-9" transform="translate(314.7 56.09)">11.0%</text></g><g class="cls-4"><text class="cls-9" transform="translate(314.7 117.8)">89.0%</text></g><g class="cls-4"><text class="cls-9" transform="translate(422.43 79.01)">48.2%</text></g><g class="cls-4"><text class="cls-9" transform="translate(422.43 140.71)">51.8%</text></g><g class="cls-10"><text class="cls-11" transform="translate(29.31 172.78)">0%</text></g><g class="cls-10"><text class="cls-11" transform="translate(24.29 148.11)">20%</text></g><g class="cls-10"><text class="cls-11" transform="translate(24.29 123.42)">40%</text></g><g class="cls-10"><text class="cls-11" transform="translate(24.29 98.73)">60%</text></g><g class="cls-10"><text class="cls-11" transform="translate(24.29 74.05)">80%</text></g><g class="cls-10"><text class="cls-11" transform="translate(19.24 49.36)">100%</text></g><g class="cls-10"><text class="cls-11" transform="translate(98.24 187.04)">Pareja</text></g><g class="cls-10"><text class="cls-11" transform="translate(92.89 196.53)">con hijos</text></g><g class="cls-10"><text class="cls-11" transform="translate(206 187.04)">Pareja</text></g><g class="cls-10"><text class="cls-11" transform="translate(202.18 196.53)">sin hijos</text></g><g class="cls-10"><text class="cls-11" transform="translate(297.46 187.04)">Monoparental</text></g><g class="cls-10"><text class="cls-11" transform="translate(422.87 187.03)">Otros</text></g><g class="cls-10"><text class="cls-12" transform="translate(6.01 31.93)">Segundo y Tercer trimestre 2020</text></g><g class="cls-10"><text class="cls-13" transform="translate(6.01 15.43)">Jefatura</text></g><g class="cls-10"><text class="cls-13" transform="translate(57.69 15.43)">de</text></g><g class="cls-10"><text class="cls-13" transform="translate(76.6 15.44)">hogar</text></g><g class="cls-10"><text class="cls-13" transform="translate(116.06 15.43)">de</text></g><g class="cls-10"><text class="cls-14" transform="translate(135 15.43)">Hombres</text></g><g class="cls-10"><text class="cls-13" transform="translate(198.37 15.43)">y</text></g><g class="cls-10"><text class="cls-15" transform="translate(208.45 15.43)">Mujeres</text></g><g class="cls-10"><text class="cls-13" transform="translate(265.18 15.43)">por</text></g><g class="cls-10"><text class="cls-13" transform="translate(290.05 15.43)">tipo</text></g><g class="cls-10"><text class="cls-13" transform="translate(317.55 15.43)">de</text></g><g class="cls-10"><text class="cls-13" transform="translate(336.46 15.44)">hogar</text></g></g></g></svg>