<svg xmlns="http://www.w3.org/2000/svg" xmlns:xlink="http://www.w3.org/1999/xlink" viewBox="0 0 494.07 322.18"><defs><style>.cls-1,.cls-3,.cls-4{fill:none;}.cls-2{clip-path:url(#clip-path);}.cls-3,.cls-4{stroke:#fff;stroke-linejoin:round;}.cls-3{stroke-width:0.53px;}.cls-4,.cls-5,.cls-6,.cls-7,.cls-8{stroke-width:1.07px;}.cls-5{fill:#13c753;}.cls-5,.cls-6,.cls-7,.cls-8{stroke:#000;stroke-linecap:square;stroke-miterlimit:10;}.cls-6{fill:#0e9840;}.cls-7{fill:#085222;}.cls-8{fill:#0a6a2c;}.cls-10,.cls-12,.cls-13,.cls-9{isolation:isolate;font-family:OpenSans-Regular, Open Sans;}.cls-9{font-size:14.23px;}.cls-10{font-size:11.04px;}.cls-11{clip-path:url(#clip-path-57);}.cls-12{font-size:11px;}.cls-13{font-size:13.2px;}</style><clipPath id="clip-path" transform="translate(-4.45 -75.04)"><rect class="cls-1" x="21.45" y="110.98" width="477.07" height="286.24"/></clipPath><clipPath id="clip-path-57" transform="translate(-4.45 -75.04)"><rect class="cls-1" width="504" height="504"/></clipPath></defs><g id="Capa_2" data-name="Capa 2"><g id="Capa_1-2" data-name="Capa 1"><g class="cls-2"><line class="cls-3" x1="17" y1="272.69" x2="494.07" y2="272.69"/></g><g class="cls-2"><line class="cls-3" x1="17" y1="199.73" x2="494.07" y2="199.73"/></g><g class="cls-2"><line class="cls-3" x1="17" y1="126.77" x2="494.07" y2="126.77"/></g><g class="cls-2"><line class="cls-3" x1="17" y1="53.81" x2="494.07" y2="53.81"/></g><g class="cls-2"><line class="cls-3" x1="96.52" y1="322.18" x2="96.52" y2="35.94"/></g><g class="cls-2"><line class="cls-3" x1="212.17" y1="322.18" x2="212.17" y2="35.94"/></g><g class="cls-2"><line class="cls-3" x1="327.82" y1="322.18" x2="327.82" y2="35.94"/></g><g class="cls-2"><line class="cls-3" x1="443.47" y1="322.18" x2="443.47" y2="35.94"/></g><g class="cls-2"><line class="cls-4" x1="17" y1="309.17" x2="494.07" y2="309.17"/></g><g class="cls-2"><line class="cls-4" x1="17" y1="236.21" x2="494.07" y2="236.21"/></g><g class="cls-2"><line class="cls-4" x1="17" y1="163.25" x2="494.07" y2="163.25"/></g><g class="cls-2"><line class="cls-4" x1="17" y1="90.29" x2="494.07" y2="90.29"/></g><g class="cls-2"><line class="cls-4" x1="38.69" y1="322.18" x2="38.69" y2="35.94"/></g><g class="cls-2"><line class="cls-4" x1="154.34" y1="322.18" x2="154.34" y2="35.94"/></g><g class="cls-2"><line class="cls-4" x1="269.99" y1="322.18" x2="269.99" y2="35.94"/></g><g class="cls-2"><line class="cls-4" x1="385.65" y1="322.18" x2="385.65" y2="35.94"/></g><g class="cls-2"><rect class="cls-5" x="96.52" y="65.97" width="289.13" height="243.19"/></g><g class="cls-2"><rect class="cls-5" x="96.52" y="65.97" width="289.13" height="243.19"/></g><g class="cls-2"><rect class="cls-5" x="96.52" y="65.97" width="289.13" height="243.19"/></g><g class="cls-2"><rect class="cls-5" x="96.52" y="65.97" width="289.13" height="243.19"/></g><g class="cls-2"><rect class="cls-6" x="96.52" y="187.57" width="144.57" height="121.6"/></g><g class="cls-2"><rect class="cls-6" x="96.52" y="187.57" width="144.57" height="121.6"/></g><g class="cls-2"><rect class="cls-6" x="96.52" y="187.57" width="144.57" height="121.6"/></g><g class="cls-2"><rect class="cls-6" x="96.52" y="187.57" width="144.57" height="121.6"/></g><g class="cls-2"><rect class="cls-7" x="241.08" y="65.97" width="144.57" height="121.6"/></g><g class="cls-2"><rect class="cls-7" x="241.08" y="65.97" width="144.57" height="121.6"/></g><g class="cls-2"><rect class="cls-7" x="241.08" y="65.97" width="144.57" height="121.6"/></g><g class="cls-2"><rect class="cls-7" x="241.08" y="65.97" width="144.57" height="121.6"/></g><g class="cls-2"><rect class="cls-8" x="96.52" y="65.97" width="144.57" height="121.6"/></g><g class="cls-2"><rect class="cls-8" x="96.52" y="65.97" width="144.57" height="121.6"/></g><g class="cls-2"><rect class="cls-8" x="96.52" y="65.97" width="144.57" height="121.6"/></g><g class="cls-2"><rect class="cls-8" x="96.52" y="65.97" width="144.57" height="121.6"/></g><g class="cls-2"><text class="cls-9" transform="translate(144.78 130.14)">11.66%</text></g><g class="cls-2"><text class="cls-9" transform="translate(144.78 130.14)">11.66%</text></g><g class="cls-2"><text class="cls-9" transform="translate(144.78 130.14)">11.66%</text></g><g class="cls-2"><text class="cls-9" transform="translate(144.78 130.14)">11.66%</text></g><g class="cls-2"><text class="cls-9" transform="translate(293.41 130.14)">8.62%</text></g><g class="cls-2"><text class="cls-9" transform="translate(293.41 130.14)">8.62%</text></g><g class="cls-2"><text class="cls-9" transform="translate(293.41 130.14)">8.62%</text></g><g class="cls-2"><text class="cls-9" transform="translate(293.41 130.14)">8.62%</text></g><g class="cls-2"><text class="cls-9" transform="translate(144.78 251.74)">29.00%</text></g><g class="cls-2"><text class="cls-9" transform="translate(144.78 251.74)">29.00%</text></g><g class="cls-2"><text class="cls-9" transform="translate(144.78 251.74)">29.00%</text></g><g class="cls-2"><text class="cls-9" transform="translate(144.78 251.74)">29.00%</text></g><g class="cls-2"><text class="cls-9" transform="translate(289.35 251.74)">50.73%</text></g><g class="cls-2"><text class="cls-9" transform="translate(289.35 251.74)">50.73%</text></g><g class="cls-2"><text class="cls-9" transform="translate(289.35 251.74)">50.73%</text></g><g class="cls-2"><text class="cls-9" transform="translate(289.35 251.74)">50.73%</text></g><g class="cls-2"><text class="cls-10" transform="translate(44.39 122.76)">Jefa de</text></g><g class="cls-2"><text class="cls-10" transform="translate(46.07 138.66)">Hogar</text></g><g class="cls-2"><text class="cls-10" transform="translate(42.41 244.36)">NO Jefa</text></g><g class="cls-2"><text class="cls-10" transform="translate(38.15 260.26)">de Hogar</text></g><g class="cls-2"><text class="cls-10" transform="translate(159.29 44.94)">Jefa</text></g><g class="cls-2"><text class="cls-10" transform="translate(140.79 60.84)">económica</text></g><g class="cls-2"><text class="cls-10" transform="translate(293.96 44.94)">NO Jefa</text></g><g class="cls-2"><text class="cls-10" transform="translate(285.35 60.84)">económica</text></g><g class="cls-11"><text class="cls-12" transform="translate(1.03 27.82)">Segundo y Tercer trimestre 2020</text></g><g class="cls-11"><text class="cls-13" transform="translate(1.03 11.31)">Jefatura de hogar y jefatura económica de las mujeres</text></g></g></g></svg>