<svg xmlns="http://www.w3.org/2000/svg" xmlns:xlink="http://www.w3.org/1999/xlink" viewBox="0 0 514.04 133.2"><defs><style>.cls-1,.cls-3,.cls-4{fill:none;}.cls-2{clip-path:url(#clip-path);}.cls-3,.cls-4{stroke:#fff;stroke-linejoin:round;}.cls-3{stroke-width:0.53px;}.cls-4{stroke-width:1.07px;}.cls-12,.cls-5{fill:#29aee4;}.cls-13,.cls-6{fill:#0c8136;}.cls-10,.cls-11,.cls-12,.cls-13,.cls-7,.cls-9{isolation:isolate;}.cls-7{font-size:8.54px;fill:#fff;}.cls-10,.cls-11,.cls-7,.cls-9{font-family:OpenSans-Regular, Open Sans;}.cls-8{clip-path:url(#clip-path-30);}.cls-9{font-size:7.2px;}.cls-10{font-size:10px;}.cls-11,.cls-12,.cls-13{font-size:12px;}.cls-12,.cls-13{font-family:OpenSans-Bold, Open Sans;font-weight:700;}</style><clipPath id="clip-path" transform="translate(-5.48 -88.14)"><rect class="cls-1" x="68.6" y="121.8" width="450.93" height="75.15"/></clipPath><clipPath id="clip-path-30" transform="translate(-5.48 -88.14)"><rect class="cls-1" width="525" height="324"/></clipPath></defs><g id="Capa_2" data-name="Capa 2"><g id="Capa_1-2" data-name="Capa 1"><g class="cls-2"><line class="cls-3" x1="134.85" y1="108.81" x2="134.85" y2="33.66"/></g><g class="cls-2"><line class="cls-3" x1="237.34" y1="108.81" x2="237.34" y2="33.66"/></g><g class="cls-2"><line class="cls-3" x1="339.82" y1="108.81" x2="339.82" y2="33.66"/></g><g class="cls-2"><line class="cls-3" x1="442.3" y1="108.81" x2="442.3" y2="33.66"/></g><g class="cls-2"><line class="cls-4" x1="63.12" y1="98.08" x2="514.04" y2="98.08"/></g><g class="cls-2"><line class="cls-4" x1="63.12" y1="80.18" x2="514.04" y2="80.18"/></g><g class="cls-2"><line class="cls-4" x1="63.12" y1="62.29" x2="514.04" y2="62.29"/></g><g class="cls-2"><line class="cls-4" x1="63.12" y1="44.4" x2="514.04" y2="44.4"/></g><g class="cls-2"><line class="cls-4" x1="83.61" y1="108.81" x2="83.61" y2="33.66"/></g><g class="cls-2"><line class="cls-4" x1="186.09" y1="108.81" x2="186.09" y2="33.66"/></g><g class="cls-2"><line class="cls-4" x1="288.58" y1="108.81" x2="288.58" y2="33.66"/></g><g class="cls-2"><line class="cls-4" x1="391.06" y1="108.81" x2="391.06" y2="33.66"/></g><g class="cls-2"><line class="cls-4" x1="493.54" y1="108.81" x2="493.54" y2="33.66"/></g><g class="cls-2"><rect class="cls-5" x="174.52" y="56.03" width="319.02" height="12.53"/></g><g class="cls-2"><rect class="cls-6" x="83.61" y="56.03" width="90.91" height="12.53"/></g><g class="cls-2"><rect class="cls-5" x="247.79" y="38.13" width="245.76" height="12.53"/></g><g class="cls-2"><rect class="cls-6" x="83.61" y="38.13" width="164.18" height="12.53"/></g><g class="cls-2"><rect class="cls-5" x="241.71" y="91.82" width="251.84" height="12.53"/></g><g class="cls-2"><rect class="cls-6" x="83.61" y="91.82" width="158.1" height="12.53"/></g><g class="cls-2"><rect class="cls-5" x="277.63" y="73.92" width="215.91" height="12.53"/></g><g class="cls-2"><rect class="cls-6" x="83.61" y="73.92" width="194.02" height="12.53"/></g><g class="cls-2"><text class="cls-7" transform="translate(319.62 65.34)">77.82%</text></g><g class="cls-2"><text class="cls-7" transform="translate(114.66 65.34)">22.18%</text></g><g class="cls-2"><text class="cls-7" transform="translate(356.25 47.44)">59.95%</text></g><g class="cls-2"><text class="cls-7" transform="translate(151.29 47.44)">40.05%</text></g><g class="cls-2"><text class="cls-7" transform="translate(353.22 101.13)">61.43%</text></g><g class="cls-2"><text class="cls-7" transform="translate(148.25 101.13)">38.57%</text></g><g class="cls-2"><text class="cls-7" transform="translate(371.18 83.23)">52.67%</text></g><g class="cls-2"><text class="cls-7" transform="translate(166.21 83.23)">47.33%</text></g><g class="cls-8"><text class="cls-9" transform="translate(12.28 100.65)">Cuentapropia</text></g><g class="cls-8"><text class="cls-9" transform="translate(13.84 78.87)">Trabajadores</text></g><g class="cls-8"><text class="cls-9" transform="translate(19.4 86.64)">Asalariados</text></g><g class="cls-8"><text class="cls-9" transform="translate(42.31 64.86)">Jefes</text></g><g class="cls-8"><text class="cls-9" transform="translate(26.69 46.97)">Dirección</text></g><g class="cls-8"><text class="cls-9" transform="translate(76.48 118.89)">0.00</text></g><g class="cls-8"><text class="cls-9" transform="translate(178.96 118.89)">0.25</text></g><g class="cls-8"><text class="cls-9" transform="translate(281.44 118.89)">0.50</text></g><g class="cls-8"><text class="cls-9" transform="translate(383.93 118.89)">0.75</text></g><g class="cls-8"><text class="cls-9" transform="translate(486.41 118.89)">1.00</text></g><g class="cls-8"><text class="cls-10" transform="translate(284.46 130.49)">%</text></g><g class="cls-8"><text class="cls-10" transform="translate(0 25.78)">Segundo y Tercer trimestre 2020</text></g><g class="cls-8"><text class="cls-11" transform="translate(0 10.28)">Ocupación</text></g><g class="cls-8"><text class="cls-11" transform="translate(62.93 10.28)">s/</text></g><g class="cls-8"><text class="cls-11" transform="translate(76.18 10.28)">jerarquia</text></g><g class="cls-8"><text class="cls-11" transform="translate(129.96 10.28)">de</text></g><g class="cls-8"><text class="cls-12" transform="translate(147.16 10.28)">Hombres</text></g><g class="cls-8"><text class="cls-11" transform="translate(204.77 10.28)">y</text></g><g class="cls-8"><text class="cls-13" transform="translate(213.94 10.28)">Mujeres</text></g></g></g></svg>