<svg xmlns="http://www.w3.org/2000/svg" xmlns:xlink="http://www.w3.org/1999/xlink" viewBox="0 0 526.07 156.02"><defs><style>.cls-1,.cls-5,.cls-6{fill:none;}.cls-2{clip-path:url(#clip-path);}.cls-3,.cls-9{fill:#fff;}.cls-3,.cls-5,.cls-6{stroke:#fff;stroke-linejoin:round;}.cls-3{stroke-linecap:round;}.cls-3,.cls-6{stroke-width:1.07px;}.cls-4{clip-path:url(#clip-path-2);}.cls-5{stroke-width:0.53px;}.cls-14,.cls-7{fill:#29aee4;}.cls-15,.cls-8{fill:#0c8136;}.cls-11,.cls-12,.cls-13,.cls-14,.cls-15,.cls-9{isolation:isolate;}.cls-9{font-size:8.54px;}.cls-11,.cls-12,.cls-13,.cls-9{font-family:OpenSans-Regular, Open Sans;}.cls-10{clip-path:url(#clip-path-31);}.cls-11{font-size:7.2px;}.cls-12{font-size:10px;}.cls-13,.cls-14,.cls-15{font-size:12px;}.cls-14,.cls-15{font-family:OpenSans-Bold, Open Sans;font-weight:700;}</style><clipPath id="clip-path" transform="translate(0.54 -83.98)"><rect class="cls-1" y="84.52" width="525" height="154.95"/></clipPath><clipPath id="clip-path-2" transform="translate(0.54 -83.98)"><rect class="cls-1" x="70.42" y="121.95" width="449.1" height="74.85"/></clipPath><clipPath id="clip-path-31" transform="translate(0.54 -83.98)"><rect class="cls-1" width="525" height="324"/></clipPath></defs><g id="Capa_2" data-name="Capa 2"><g id="Capa_1-2" data-name="Capa 1"><g class="cls-2"><rect class="cls-3" x="0.54" y="0.54" width="525" height="154.95"/></g><g class="cls-4"><line class="cls-5" x1="142.4" y1="112.82" x2="142.4" y2="37.97"/></g><g class="cls-4"><line class="cls-5" x1="244.46" y1="112.82" x2="244.46" y2="37.97"/></g><g class="cls-4"><line class="cls-5" x1="346.54" y1="112.82" x2="346.54" y2="37.97"/></g><g class="cls-4"><line class="cls-5" x1="448.61" y1="112.82" x2="448.61" y2="37.97"/></g><g class="cls-4"><line class="cls-6" x1="70.95" y1="102.13" x2="520.06" y2="102.13"/></g><g class="cls-4"><line class="cls-6" x1="70.95" y1="84.3" x2="520.06" y2="84.3"/></g><g class="cls-4"><line class="cls-6" x1="70.95" y1="66.49" x2="520.06" y2="66.49"/></g><g class="cls-4"><line class="cls-6" x1="70.95" y1="48.66" x2="520.06" y2="48.66"/></g><g class="cls-4"><line class="cls-6" x1="91.37" y1="112.82" x2="91.37" y2="37.97"/></g><g class="cls-4"><line class="cls-6" x1="193.43" y1="112.82" x2="193.43" y2="37.97"/></g><g class="cls-4"><line class="cls-6" x1="295.51" y1="112.82" x2="295.51" y2="37.97"/></g><g class="cls-4"><line class="cls-6" x1="397.58" y1="112.82" x2="397.58" y2="37.97"/></g><g class="cls-4"><line class="cls-6" x1="499.64" y1="112.82" x2="499.64" y2="37.97"/></g><g class="cls-4"><rect class="cls-7" x="288.9" y="95.88" width="210.74" height="12.48"/></g><g class="cls-4"><rect class="cls-8" x="91.37" y="95.88" width="197.54" height="12.48"/></g><g class="cls-4"><rect class="cls-7" x="248.09" y="78.07" width="251.55" height="12.48"/></g><g class="cls-4"><rect class="cls-8" x="91.37" y="78.07" width="156.72" height="12.48"/></g><g class="cls-4"><rect class="cls-7" x="308.71" y="60.24" width="190.93" height="12.48"/></g><g class="cls-4"><rect class="cls-8" x="91.37" y="60.24" width="217.34" height="12.48"/></g><g class="cls-4"><rect class="cls-7" x="318.08" y="42.43" width="181.55" height="12.48"/></g><g class="cls-4"><rect class="cls-8" x="91.37" y="42.43" width="226.72" height="12.48"/></g><g class="cls-4"><text class="cls-9" transform="translate(379.86 105.18)">51.62%</text></g><g class="cls-4"><text class="cls-9" transform="translate(175.73 105.18)">48.38%</text></g><g class="cls-4"><text class="cls-9" transform="translate(359.46 87.35)">61.61%</text></g><g class="cls-4"><text class="cls-9" transform="translate(155.31 87.35)">38.39%</text></g><g class="cls-4"><text class="cls-9" transform="translate(389.76 69.53)">46.77%</text></g><g class="cls-4"><text class="cls-9" transform="translate(185.62 69.53)">53.23%</text></g><g class="cls-4"><text class="cls-9" transform="translate(394.46 51.71)">44.47%</text></g><g class="cls-4"><text class="cls-9" transform="translate(190.31 51.71)">55.53%</text></g><g class="cls-10"><text class="cls-11" transform="translate(18.29 104.69)">No Calificados</text></g><g class="cls-10"><text class="cls-11" transform="translate(29.26 86.88)">Operativos</text></g><g class="cls-10"><text class="cls-11" transform="translate(37.12 69.05)">Técnicos</text></g><g class="cls-10"><text class="cls-11" transform="translate(20.6 51.23)">Profesionales</text></g><g class="cls-10"><text class="cls-11" transform="translate(84.24 122.88)">0.00</text></g><g class="cls-10"><text class="cls-11" transform="translate(186.31 122.88)">0.25</text></g><g class="cls-10"><text class="cls-11" transform="translate(288.37 122.88)">0.50</text></g><g class="cls-10"><text class="cls-11" transform="translate(390.43 122.88)">0.75</text></g><g class="cls-10"><text class="cls-11" transform="translate(492.5 122.88)">1.00</text></g><g class="cls-10"><text class="cls-12" transform="translate(291.39 134.49)">%</text></g><g class="cls-10"><text class="cls-12" transform="translate(6.01 30.09)">Segundo y Tercer trimestre 2020</text></g><g class="cls-10"><text class="cls-13" transform="translate(6.01 14.59)">Ocupación</text></g><g class="cls-10"><text class="cls-13" transform="translate(68.95 14.59)">s/</text></g><g class="cls-10"><text class="cls-13" transform="translate(82.2 14.59)">calificación</text></g><g class="cls-10"><text class="cls-13" transform="translate(146.62 14.59)">de</text></g><g class="cls-10"><text class="cls-14" transform="translate(163.81 14.59)">Hombres</text></g><g class="cls-10"><text class="cls-13" transform="translate(221.43 14.59)">y</text></g><g class="cls-10"><text class="cls-15" transform="translate(230.6 14.59)">Mujeres</text></g></g></g></svg>