<svg xmlns="http://www.w3.org/2000/svg" xmlns:xlink="http://www.w3.org/1999/xlink" viewBox="0 0 493.31 117.35"><defs><style>.cls-1,.cls-3,.cls-4{fill:none;}.cls-2{clip-path:url(#clip-path);}.cls-3,.cls-4{stroke:#fff;stroke-linejoin:round;}.cls-3{stroke-width:0.53px;}.cls-4{stroke-width:1.07px;}.cls-12,.cls-5{fill:#29aee4;}.cls-13,.cls-6{fill:#0c8136;}.cls-10,.cls-11,.cls-12,.cls-13,.cls-7,.cls-9{isolation:isolate;}.cls-7{font-size:8.54px;fill:#fff;}.cls-10,.cls-11,.cls-7,.cls-9{font-family:OpenSans-Regular, Open Sans;}.cls-8{clip-path:url(#clip-path-44);}.cls-9{font-size:7.2px;}.cls-10{font-size:10px;}.cls-11,.cls-12,.cls-13{font-size:12px;}.cls-12,.cls-13{font-family:OpenSans-Bold, Open Sans;font-weight:700;}</style><clipPath id="clip-path" transform="translate(-5.48 -179.89)"><rect class="cls-1" x="68.6" y="213.55" width="429.93" height="71.65"/></clipPath><clipPath id="clip-path-44" transform="translate(-5.48 -179.89)"><rect class="cls-1" width="504" height="504"/></clipPath></defs><g id="Capa_2" data-name="Capa 2"><g id="Capa_1-2" data-name="Capa 1"><g class="cls-2"><line class="cls-3" x1="63.12" y1="105.31" x2="63.12" y2="33.66"/></g><g class="cls-2"><line class="cls-3" x1="102.2" y1="105.31" x2="102.2" y2="33.66"/></g><g class="cls-2"><line class="cls-3" x1="141.28" y1="105.31" x2="141.28" y2="33.66"/></g><g class="cls-2"><line class="cls-3" x1="180.37" y1="105.31" x2="180.37" y2="33.66"/></g><g class="cls-2"><line class="cls-3" x1="219.45" y1="105.31" x2="219.45" y2="33.66"/></g><g class="cls-2"><line class="cls-3" x1="258.54" y1="105.31" x2="258.54" y2="33.66"/></g><g class="cls-2"><line class="cls-3" x1="297.62" y1="105.31" x2="297.62" y2="33.66"/></g><g class="cls-2"><line class="cls-3" x1="336.7" y1="105.31" x2="336.7" y2="33.66"/></g><g class="cls-2"><line class="cls-3" x1="375.79" y1="105.31" x2="375.79" y2="33.66"/></g><g class="cls-2"><line class="cls-3" x1="414.87" y1="105.31" x2="414.87" y2="33.66"/></g><g class="cls-2"><line class="cls-3" x1="453.96" y1="105.31" x2="453.96" y2="33.66"/></g><g class="cls-2"><line class="cls-3" x1="493.04" y1="105.31" x2="493.04" y2="33.66"/></g><g class="cls-2"><line class="cls-4" x1="63.12" y1="95.08" x2="493.04" y2="95.08"/></g><g class="cls-2"><line class="cls-4" x1="63.12" y1="78.02" x2="493.04" y2="78.02"/></g><g class="cls-2"><line class="cls-4" x1="63.12" y1="60.96" x2="493.04" y2="60.96"/></g><g class="cls-2"><line class="cls-4" x1="63.12" y1="43.9" x2="493.04" y2="43.9"/></g><g class="cls-2"><line class="cls-4" x1="82.66" y1="105.31" x2="82.66" y2="33.66"/></g><g class="cls-2"><line class="cls-4" x1="121.74" y1="105.31" x2="121.74" y2="33.66"/></g><g class="cls-2"><line class="cls-4" x1="160.83" y1="105.31" x2="160.83" y2="33.66"/></g><g class="cls-2"><line class="cls-4" x1="199.91" y1="105.31" x2="199.91" y2="33.66"/></g><g class="cls-2"><line class="cls-4" x1="238.99" y1="105.31" x2="238.99" y2="33.66"/></g><g class="cls-2"><line class="cls-4" x1="278.08" y1="105.31" x2="278.08" y2="33.66"/></g><g class="cls-2"><line class="cls-4" x1="317.16" y1="105.31" x2="317.16" y2="33.66"/></g><g class="cls-2"><line class="cls-4" x1="356.25" y1="105.31" x2="356.25" y2="33.66"/></g><g class="cls-2"><line class="cls-4" x1="395.33" y1="105.31" x2="395.33" y2="33.66"/></g><g class="cls-2"><line class="cls-4" x1="434.41" y1="105.31" x2="434.41" y2="33.66"/></g><g class="cls-2"><line class="cls-4" x1="473.5" y1="105.31" x2="473.5" y2="33.66"/></g><g class="cls-2"><rect class="cls-5" x="169.34" y="54.99" width="304.16" height="11.94"/></g><g class="cls-2"><rect class="cls-6" x="82.66" y="54.99" width="86.68" height="11.94"/></g><g class="cls-2"><rect class="cls-5" x="239.19" y="37.93" width="234.31" height="11.94"/></g><g class="cls-2"><rect class="cls-6" x="82.66" y="37.93" width="156.53" height="11.94"/></g><g class="cls-2"><rect class="cls-5" x="233.39" y="89.11" width="240.11" height="11.94"/></g><g class="cls-2"><rect class="cls-6" x="82.66" y="89.11" width="150.73" height="11.94"/></g><g class="cls-2"><rect class="cls-5" x="267.64" y="72.05" width="205.85" height="11.94"/></g><g class="cls-2"><rect class="cls-6" x="82.66" y="72.05" width="184.99" height="11.94"/></g><g class="cls-2"><text class="cls-7" transform="translate(307.01 64)">77.82%</text></g><g class="cls-2"><text class="cls-7" transform="translate(111.59 64)">22.18%</text></g><g class="cls-2"><text class="cls-7" transform="translate(341.93 46.94)">59.95%</text></g><g class="cls-2"><text class="cls-7" transform="translate(146.51 46.94)">40.05%</text></g><g class="cls-2"><text class="cls-7" transform="translate(339.03 98.13)">61.43%</text></g><g class="cls-2"><text class="cls-7" transform="translate(143.61 98.13)">38.57%</text></g><g class="cls-2"><text class="cls-7" transform="translate(356.16 81.06)">52.67%</text></g><g class="cls-2"><text class="cls-7" transform="translate(160.74 81.06)">47.33%</text></g><g class="cls-8"><text class="cls-9" transform="translate(12.28 97.65)">Cuentapropia</text></g><g class="cls-8"><text class="cls-9" transform="translate(13.84 76.7)">Trabajadores</text></g><g class="cls-8"><text class="cls-9" transform="translate(19.4 84.48)">Asalariados</text></g><g class="cls-8"><text class="cls-9" transform="translate(42.31 63.53)">Jefes</text></g><g class="cls-8"><text class="cls-9" transform="translate(26.69 46.47)">Dirección</text></g><g class="cls-8"><text class="cls-9" transform="translate(77.64 115.39)">0%</text></g><g class="cls-8"><text class="cls-9" transform="translate(114.66 115.39)">10%</text></g><g class="cls-8"><text class="cls-9" transform="translate(153.75 115.39)">20%</text></g><g class="cls-8"><text class="cls-9" transform="translate(192.83 115.39)">30%</text></g><g class="cls-8"><text class="cls-9" transform="translate(231.91 115.39)">40%</text></g><g class="cls-8"><text class="cls-9" transform="translate(271 115.39)">50%</text></g><g class="cls-8"><text class="cls-9" transform="translate(310.08 115.39)">60%</text></g><g class="cls-8"><text class="cls-9" transform="translate(349.17 115.39)">70%</text></g><g class="cls-8"><text class="cls-9" transform="translate(388.25 115.39)">80%</text></g><g class="cls-8"><text class="cls-9" transform="translate(427.33 115.39)">90%</text></g><g class="cls-8"><text class="cls-9" transform="translate(464.36 115.39)">100%</text></g><g class="cls-8"><text class="cls-10" transform="translate(0 25.78)">Segundo y Tercer trimestre 2020</text></g><g class="cls-8"><text class="cls-11" transform="translate(0 10.28)">Ocupación</text></g><g class="cls-8"><text class="cls-11" transform="translate(62.93 10.28)">s/</text></g><g class="cls-8"><text class="cls-11" transform="translate(76.18 10.28)">jerarquia</text></g><g class="cls-8"><text class="cls-11" transform="translate(129.96 10.28)">de</text></g><g class="cls-8"><text class="cls-12" transform="translate(147.16 10.28)">Hombres</text></g><g class="cls-8"><text class="cls-11" transform="translate(204.77 10.28)">y</text></g><g class="cls-8"><text class="cls-13" transform="translate(213.94 10.28)">Mujeres</text></g></g></g></svg>