<svg xmlns="http://www.w3.org/2000/svg" xmlns:xlink="http://www.w3.org/1999/xlink" viewBox="0 0 505.07 152.83"><defs><style>.cls-1,.cls-5,.cls-6{fill:none;}.cls-2{clip-path:url(#clip-path);}.cls-3,.cls-9{fill:#fff;}.cls-3,.cls-5,.cls-6{stroke:#fff;stroke-linejoin:round;}.cls-3{stroke-linecap:round;}.cls-3,.cls-6{stroke-width:1.07px;}.cls-4{clip-path:url(#clip-path-2);}.cls-5{stroke-width:0.53px;}.cls-14,.cls-7{fill:#29aee4;}.cls-8{fill:#0c8136;}.cls-11,.cls-12,.cls-13,.cls-14,.cls-9{isolation:isolate;}.cls-9{font-size:8.54px;}.cls-11,.cls-12,.cls-13,.cls-9{font-family:OpenSans-Regular, Open Sans;}.cls-10{clip-path:url(#clip-path-45);}.cls-11{font-size:7.2px;}.cls-12{font-size:10px;}.cls-13,.cls-14{font-size:12px;}.cls-14{font-family:OpenSans-Bold, Open Sans;font-weight:700;}</style><clipPath id="clip-path" transform="translate(0.54 -175.58)"><rect class="cls-1" y="176.12" width="504" height="151.76"/></clipPath><clipPath id="clip-path-2" transform="translate(0.54 -175.58)"><rect class="cls-1" x="68.6" y="213.55" width="429.93" height="71.65"/></clipPath><clipPath id="clip-path-45" transform="translate(0.54 -175.58)"><rect class="cls-1" width="504" height="504"/></clipPath></defs><g id="Capa_2" data-name="Capa 2"><g id="Capa_1-2" data-name="Capa 1"><g class="cls-2"><rect class="cls-3" x="0.54" y="0.54" width="504" height="151.76"/></g><g class="cls-4"><line class="cls-5" x1="69.13" y1="109.62" x2="69.13" y2="37.97"/></g><g class="cls-4"><line class="cls-5" x1="108.22" y1="109.62" x2="108.22" y2="37.97"/></g><g class="cls-4"><line class="cls-5" x1="147.29" y1="109.62" x2="147.29" y2="37.97"/></g><g class="cls-4"><line class="cls-5" x1="186.39" y1="109.62" x2="186.39" y2="37.97"/></g><g class="cls-4"><line class="cls-5" x1="225.46" y1="109.62" x2="225.46" y2="37.97"/></g><g class="cls-4"><line class="cls-5" x1="264.55" y1="109.62" x2="264.55" y2="37.97"/></g><g class="cls-4"><line class="cls-5" x1="303.64" y1="109.62" x2="303.64" y2="37.97"/></g><g class="cls-4"><line class="cls-5" x1="342.71" y1="109.62" x2="342.71" y2="37.97"/></g><g class="cls-4"><line class="cls-5" x1="381.8" y1="109.62" x2="381.8" y2="37.97"/></g><g class="cls-4"><line class="cls-5" x1="420.89" y1="109.62" x2="420.89" y2="37.97"/></g><g class="cls-4"><line class="cls-5" x1="459.98" y1="109.62" x2="459.98" y2="37.97"/></g><g class="cls-4"><line class="cls-5" x1="499.05" y1="109.62" x2="499.05" y2="37.97"/></g><g class="cls-4"><line class="cls-6" x1="69.13" y1="99.39" x2="499.05" y2="99.39"/></g><g class="cls-4"><line class="cls-6" x1="69.13" y1="82.33" x2="499.05" y2="82.33"/></g><g class="cls-4"><line class="cls-6" x1="69.13" y1="65.27" x2="499.05" y2="65.27"/></g><g class="cls-4"><line class="cls-6" x1="69.13" y1="48.2" x2="499.05" y2="48.2"/></g><g class="cls-4"><line class="cls-6" x1="88.67" y1="109.62" x2="88.67" y2="37.97"/></g><g class="cls-4"><line class="cls-6" x1="127.76" y1="109.62" x2="127.76" y2="37.97"/></g><g class="cls-4"><line class="cls-6" x1="166.84" y1="109.62" x2="166.84" y2="37.97"/></g><g class="cls-4"><line class="cls-6" x1="205.92" y1="109.62" x2="205.92" y2="37.97"/></g><g class="cls-4"><line class="cls-6" x1="245.01" y1="109.62" x2="245.01" y2="37.97"/></g><g class="cls-4"><line class="cls-6" x1="284.09" y1="109.62" x2="284.09" y2="37.97"/></g><g class="cls-4"><line class="cls-6" x1="323.18" y1="109.62" x2="323.18" y2="37.97"/></g><g class="cls-4"><line class="cls-6" x1="362.27" y1="109.62" x2="362.27" y2="37.97"/></g><g class="cls-4"><line class="cls-6" x1="401.34" y1="109.62" x2="401.34" y2="37.97"/></g><g class="cls-4"><line class="cls-6" x1="440.43" y1="109.62" x2="440.43" y2="37.97"/></g><g class="cls-4"><line class="cls-6" x1="479.52" y1="109.62" x2="479.52" y2="37.97"/></g><g class="cls-4"><rect class="cls-7" x="175.36" y="59.3" width="304.16" height="11.94"/></g><g class="cls-4"><rect class="cls-8" x="88.67" y="59.3" width="86.68" height="11.94"/></g><g class="cls-4"><rect class="cls-7" x="245.2" y="42.24" width="234.31" height="11.94"/></g><g class="cls-4"><rect class="cls-8" x="88.67" y="42.24" width="156.53" height="11.94"/></g><g class="cls-4"><rect class="cls-7" x="239.4" y="93.42" width="240.11" height="11.94"/></g><g class="cls-4"><rect class="cls-8" x="88.67" y="93.42" width="150.73" height="11.94"/></g><g class="cls-4"><rect class="cls-7" x="273.65" y="76.36" width="205.85" height="11.94"/></g><g class="cls-4"><rect class="cls-8" x="88.67" y="76.36" width="184.99" height="11.94"/></g><g class="cls-4"><text class="cls-9" transform="translate(313.02 68.31)">77.82%</text></g><g class="cls-4"><text class="cls-9" transform="translate(117.61 68.31)">22.18%</text></g><g class="cls-4"><text class="cls-9" transform="translate(347.95 51.25)">59.95%</text></g><g class="cls-4"><text class="cls-9" transform="translate(152.53 51.25)">40.05%</text></g><g class="cls-4"><text class="cls-9" transform="translate(345.05 102.44)">61.43%</text></g><g class="cls-4"><text class="cls-9" transform="translate(149.62 102.44)">38.57%</text></g><g class="cls-4"><text class="cls-9" transform="translate(362.18 85.37)">52.67%</text></g><g class="cls-4"><text class="cls-9" transform="translate(166.76 85.37)">47.33%</text></g><g class="cls-10"><text class="cls-11" transform="translate(18.3 101.96)">Cuentapropia</text></g><g class="cls-10"><text class="cls-11" transform="translate(19.86 81)">Trabajadores</text></g><g class="cls-10"><text class="cls-11" transform="translate(25.42 88.79)">Asalariados</text></g><g class="cls-10"><text class="cls-11" transform="translate(48.33 67.83)">Jefes</text></g><g class="cls-10"><text class="cls-11" transform="translate(32.7 50.77)">Dirección</text></g><g class="cls-10"><text class="cls-11" transform="translate(83.65 119.7)">0%</text></g><g class="cls-10"><text class="cls-11" transform="translate(120.67 119.7)">10%</text></g><g class="cls-10"><text class="cls-11" transform="translate(159.76 119.7)">20%</text></g><g class="cls-10"><text class="cls-11" transform="translate(198.84 119.7)">30%</text></g><g class="cls-10"><text class="cls-11" transform="translate(237.93 119.7)">40%</text></g><g class="cls-10"><text class="cls-11" transform="translate(277.02 119.7)">50%</text></g><g class="cls-10"><text class="cls-11" transform="translate(316.09 119.7)">60%</text></g><g class="cls-10"><text class="cls-11" transform="translate(355.18 119.7)">70%</text></g><g class="cls-10"><text class="cls-11" transform="translate(394.27 119.7)">80%</text></g><g class="cls-10"><text class="cls-11" transform="translate(433.34 119.7)">90%</text></g><g class="cls-10"><text class="cls-11" transform="translate(470.37 119.7)">100%</text></g><g class="cls-10"><text class="cls-12" transform="translate(6.01 30.08)">Segundo y Tercer trimestre 2020</text></g><g class="cls-10"><text class="cls-13" transform="translate(6.02 14.58)">Ocupación</text></g><g class="cls-10"><text class="cls-13" transform="translate(68.95 14.58)">s/</text></g><g class="cls-10"><text class="cls-13" transform="translate(82.2 14.58)">jerarquia</text></g><g class="cls-10"><text class="cls-13" transform="translate(135.97 14.58)">de</text></g><g class="cls-10"><text class="cls-14" transform="translate(153.17 14.58)">Hombres</text></g><g class="cls-10"><text class="cls-13" transform="translate(210.79 14.58)">y</text></g></g></g></svg>