<svg xmlns="http://www.w3.org/2000/svg" xmlns:xlink="http://www.w3.org/1999/xlink" viewBox="0 0 505.07 152.52"><defs><style>.cls-1,.cls-5,.cls-6{fill:none;}.cls-2{clip-path:url(#clip-path);}.cls-3,.cls-9{fill:#fff;}.cls-3,.cls-5,.cls-6{stroke:#fff;stroke-linejoin:round;}.cls-3{stroke-linecap:round;}.cls-3,.cls-6{stroke-width:1.07px;}.cls-4{clip-path:url(#clip-path-2);}.cls-5{stroke-width:0.53px;}.cls-14,.cls-7{fill:#29aee4;}.cls-15,.cls-8{fill:#0c8136;}.cls-11,.cls-12,.cls-13,.cls-14,.cls-15,.cls-9{isolation:isolate;}.cls-9{font-size:8.54px;}.cls-11,.cls-12,.cls-13,.cls-9{font-family:OpenSans-Regular, Open Sans;}.cls-10{clip-path:url(#clip-path-45);}.cls-11{font-size:7.2px;}.cls-12{font-size:10px;}.cls-13,.cls-14,.cls-15{font-size:12px;}.cls-14,.cls-15{font-family:OpenSans-Bold, Open Sans;font-weight:700;}</style><clipPath id="clip-path" transform="translate(0.54 -175.74)"><rect class="cls-1" y="176.27" width="504" height="151.45"/></clipPath><clipPath id="clip-path-2" transform="translate(0.54 -175.74)"><rect class="cls-1" x="70.42" y="213.7" width="428.1" height="71.35"/></clipPath><clipPath id="clip-path-45" transform="translate(0.54 -175.74)"><rect class="cls-1" width="504" height="504"/></clipPath></defs><g id="Capa_2" data-name="Capa 2"><g id="Capa_1-2" data-name="Capa 1"><g class="cls-2"><rect class="cls-3" x="0.54" y="0.54" width="504" height="151.45"/></g><g class="cls-4"><line class="cls-5" x1="70.95" y1="109.31" x2="70.95" y2="37.96"/></g><g class="cls-4"><line class="cls-5" x1="109.87" y1="109.31" x2="109.87" y2="37.96"/></g><g class="cls-4"><line class="cls-5" x1="148.79" y1="109.31" x2="148.79" y2="37.96"/></g><g class="cls-4"><line class="cls-5" x1="187.7" y1="109.31" x2="187.7" y2="37.96"/></g><g class="cls-4"><line class="cls-5" x1="226.62" y1="109.31" x2="226.62" y2="37.96"/></g><g class="cls-4"><line class="cls-5" x1="265.55" y1="109.31" x2="265.55" y2="37.96"/></g><g class="cls-4"><line class="cls-5" x1="304.46" y1="109.31" x2="304.46" y2="37.96"/></g><g class="cls-4"><line class="cls-5" x1="343.39" y1="109.31" x2="343.39" y2="37.96"/></g><g class="cls-4"><line class="cls-5" x1="382.3" y1="109.31" x2="382.3" y2="37.96"/></g><g class="cls-4"><line class="cls-5" x1="421.21" y1="109.31" x2="421.21" y2="37.96"/></g><g class="cls-4"><line class="cls-5" x1="460.14" y1="109.31" x2="460.14" y2="37.96"/></g><g class="cls-4"><line class="cls-5" x1="499.05" y1="109.31" x2="499.05" y2="37.96"/></g><g class="cls-4"><line class="cls-6" x1="70.95" y1="99.12" x2="499.05" y2="99.12"/></g><g class="cls-4"><line class="cls-6" x1="70.95" y1="82.13" x2="499.05" y2="82.13"/></g><g class="cls-4"><line class="cls-6" x1="70.95" y1="65.15" x2="499.05" y2="65.15"/></g><g class="cls-4"><line class="cls-6" x1="70.95" y1="48.16" x2="499.05" y2="48.16"/></g><g class="cls-4"><line class="cls-6" x1="90.41" y1="109.31" x2="90.41" y2="37.96"/></g><g class="cls-4"><line class="cls-6" x1="129.32" y1="109.31" x2="129.32" y2="37.96"/></g><g class="cls-4"><line class="cls-6" x1="168.25" y1="109.31" x2="168.25" y2="37.96"/></g><g class="cls-4"><line class="cls-6" x1="207.17" y1="109.31" x2="207.17" y2="37.96"/></g><g class="cls-4"><line class="cls-6" x1="246.09" y1="109.31" x2="246.09" y2="37.96"/></g><g class="cls-4"><line class="cls-6" x1="285.01" y1="109.31" x2="285.01" y2="37.96"/></g><g class="cls-4"><line class="cls-6" x1="323.93" y1="109.31" x2="323.93" y2="37.96"/></g><g class="cls-4"><line class="cls-6" x1="362.84" y1="109.31" x2="362.84" y2="37.96"/></g><g class="cls-4"><line class="cls-6" x1="401.76" y1="109.31" x2="401.76" y2="37.96"/></g><g class="cls-4"><line class="cls-6" x1="440.68" y1="109.31" x2="440.68" y2="37.96"/></g><g class="cls-4"><line class="cls-6" x1="479.59" y1="109.31" x2="479.59" y2="37.96"/></g><g class="cls-4"><rect class="cls-7" x="278.71" y="93.17" width="200.89" height="11.89"/></g><g class="cls-4"><rect class="cls-8" x="90.41" y="93.17" width="188.3" height="11.89"/></g><g class="cls-4"><rect class="cls-7" x="239.81" y="76.19" width="239.79" height="11.89"/></g><g class="cls-4"><rect class="cls-8" x="90.41" y="76.19" width="149.4" height="11.89"/></g><g class="cls-4"><rect class="cls-7" x="297.59" y="59.2" width="182.01" height="11.89"/></g><g class="cls-4"><rect class="cls-8" x="90.41" y="59.2" width="207.18" height="11.89"/></g><g class="cls-4"><rect class="cls-7" x="306.54" y="42.21" width="173.06" height="11.89"/></g><g class="cls-4"><rect class="cls-8" x="90.41" y="42.21" width="216.12" height="11.89"/></g><g class="cls-4"><text class="cls-9" transform="translate(364.74 102.18)">51.62%</text></g><g class="cls-4"><text class="cls-9" transform="translate(170.15 102.18)">48.38%</text></g><g class="cls-4"><text class="cls-9" transform="translate(345.3 85.19)">61.61%</text></g><g class="cls-4"><text class="cls-9" transform="translate(150.7 85.19)">38.39%</text></g><g class="cls-4"><text class="cls-9" transform="translate(374.18 68.19)">46.77%</text></g><g class="cls-4"><text class="cls-9" transform="translate(179.59 68.19)">53.23%</text></g><g class="cls-4"><text class="cls-9" transform="translate(378.65 51.2)">44.47%</text></g><g class="cls-4"><text class="cls-9" transform="translate(184.06 51.2)">55.53%</text></g><g class="cls-10"><text class="cls-11" transform="translate(18.3 101.69)">No Calificados</text></g><g class="cls-10"><text class="cls-11" transform="translate(29.26 84.7)">Operativos</text></g><g class="cls-10"><text class="cls-11" transform="translate(37.12 67.72)">Técnicos</text></g><g class="cls-10"><text class="cls-11" transform="translate(20.6 50.74)">Profesionales</text></g><g class="cls-10"><text class="cls-11" transform="translate(85.39 119.38)">0%</text></g><g class="cls-10"><text class="cls-11" transform="translate(122.24 119.38)">10%</text></g><g class="cls-10"><text class="cls-11" transform="translate(161.17 119.38)">20%</text></g><g class="cls-10"><text class="cls-11" transform="translate(200.09 119.38)">30%</text></g><g class="cls-10"><text class="cls-11" transform="translate(239.01 119.38)">40%</text></g><g class="cls-10"><text class="cls-11" transform="translate(277.93 119.38)">50%</text></g><g class="cls-10"><text class="cls-11" transform="translate(316.84 119.38)">60%</text></g><g class="cls-10"><text class="cls-11" transform="translate(355.77 119.38)">70%</text></g><g class="cls-10"><text class="cls-11" transform="translate(394.68 119.38)">80%</text></g><g class="cls-10"><text class="cls-11" transform="translate(433.59 119.38)">90%</text></g><g class="cls-10"><text class="cls-11" transform="translate(470.45 119.38)">100%</text></g><g class="cls-10"><text class="cls-12" transform="translate(6.01 30.09)">Segundo y Tercer trimestre 2020</text></g><g class="cls-10"><text class="cls-13" transform="translate(6.01 14.59)">Ocupación</text></g><g class="cls-10"><text class="cls-13" transform="translate(68.95 14.59)">s/</text></g><g class="cls-10"><text class="cls-13" transform="translate(82.2 14.59)">calificación</text></g><g class="cls-10"><text class="cls-13" transform="translate(146.62 14.59)">de</text></g><g class="cls-10"><text class="cls-14" transform="translate(163.81 14.59)">Hombres</text></g><g class="cls-10"><text class="cls-13" transform="translate(221.43 14.59)">y</text></g><g class="cls-10"><text class="cls-15" transform="translate(230.6 14.59)">Mujeres</text></g></g></g></svg>