<svg xmlns="http://www.w3.org/2000/svg" xmlns:xlink="http://www.w3.org/1999/xlink" viewBox="0 0 491.81 141.39"><defs><style>.cls-1{fill:none;}.cls-2{clip-path:url(#clip-path);}.cls-3{fill:#d3d3d3;}.cls-4{fill:#29aee4;}.cls-14,.cls-15,.cls-5,.cls-6{isolation:isolate;font-family:OpenSans-Regular, Open Sans;}.cls-5{font-size:14.23px;}.cls-6{font-size:9.96px;}.cls-7{clip-path:url(#clip-path-5);}.cls-8{fill:#0c8136;}.cls-9{clip-path:url(#clip-path-9);}.cls-10{fill:#e22172;}.cls-11{clip-path:url(#clip-path-14);}.cls-12{fill:#f4a018;}.cls-13{clip-path:url(#clip-path-19);}.cls-14{font-size:11px;}.cls-15{font-size:13.2px;}</style><clipPath id="clip-path" transform="translate(0 -170.69)"><rect class="cls-1" y="201.14" width="121.89" height="121.89"/></clipPath><clipPath id="clip-path-5" transform="translate(0 -170.69)"><rect class="cls-1" x="127.37" y="201.14" width="121.89" height="121.89"/></clipPath><clipPath id="clip-path-9" transform="translate(0 -170.69)"><rect class="cls-1" x="254.74" y="201.14" width="121.89" height="121.89"/></clipPath><clipPath id="clip-path-14" transform="translate(0 -170.69)"><rect class="cls-1" x="382.11" y="201.14" width="121.89" height="121.89"/></clipPath><clipPath id="clip-path-19" transform="translate(0 -170.69)"><rect class="cls-1" width="504" height="504"/></clipPath></defs><g id="Capa_2" data-name="Capa 2"><g id="Capa_1-2" data-name="Capa 1"><g class="cls-2"><polygon class="cls-3" points="85.32 91.4 87.06 91.4 88.81 91.4 90.55 91.4 92.29 91.4 94.03 91.4 95.77 91.4 97.51 91.4 99.25 91.4 100.99 91.4 102.74 91.4 104.48 91.4 106.22 91.4 107.96 91.4 109.7 91.4 109.67 89.73 109.59 88.07 109.45 86.41 109.25 84.76 108.99 83.11 108.68 81.48 108.32 79.85 107.89 78.24 107.42 76.65 106.89 75.07 106.3 73.51 105.66 71.97 104.98 70.46 104.24 68.97 103.44 67.5 102.6 66.06 101.71 64.66 100.78 63.28 99.79 61.94 98.77 60.63 97.69 59.35 96.58 58.12 95.42 56.92 94.22 55.76 92.99 54.65 91.71 53.58 90.41 52.55 89.06 51.56 87.69 50.63 86.28 49.74 84.84 48.9 83.38 48.11 81.89 47.37 80.37 46.68 78.83 46.04 77.27 45.46 75.69 44.92 74.1 44.45 72.49 44.03 70.86 43.66 69.23 43.35 67.58 43.09 65.93 42.9 64.27 42.75 62.61 42.67 60.95 42.64 59.28 42.67 57.62 42.75 55.96 42.9 54.31 43.09 52.66 43.35 51.03 43.66 49.4 44.03 47.79 44.45 46.2 44.92 44.62 45.46 43.06 46.04 41.52 46.68 40.01 47.37 38.51 48.11 37.05 48.9 35.61 49.74 34.2 50.63 32.83 51.56 31.48 52.55 30.18 53.58 28.9 54.65 27.67 55.76 26.47 56.92 25.31 58.12 24.2 59.35 23.12 60.63 22.1 61.94 21.11 63.28 20.18 64.66 19.29 66.06 18.45 67.5 17.66 68.97 16.91 70.46 16.23 71.97 15.59 73.51 15 75.07 14.47 76.65 14 78.24 13.58 79.85 13.21 81.48 12.9 83.11 12.64 84.76 12.44 86.41 12.3 88.07 12.22 89.73 12.19 91.4 13.93 91.4 15.67 91.4 17.41 91.4 19.15 91.4 20.9 91.4 22.64 91.4 24.38 91.4 26.12 91.4 27.86 91.4 29.6 91.4 31.34 91.4 33.08 91.4 34.83 91.4 36.57 91.4 36.62 89.73 36.79 88.08 37.08 86.44 37.47 84.82 37.97 83.23 38.59 81.68 39.3 80.18 40.12 78.73 41.03 77.34 42.03 76.01 43.13 74.76 44.31 73.58 45.56 72.49 46.89 71.48 48.28 70.57 49.73 69.75 51.23 69.04 52.78 68.43 54.37 67.92 55.99 67.53 57.63 67.25 59.28 67.08 60.95 67.02 62.61 67.08 64.26 67.25 65.91 67.53 67.52 67.92 69.11 68.43 70.66 69.04 72.16 69.75 73.61 70.57 75 71.48 76.33 72.49 77.58 73.58 78.76 74.76 79.86 76.01 80.86 77.34 81.77 78.73 82.59 80.18 83.31 81.68 83.92 83.23 84.42 84.82 84.81 86.44 85.1 88.08 85.27 89.73 85.32 91.4"/></g><g class="cls-2"><polygon class="cls-4" points="56.37 67.45 56.05 65.74 55.72 64.03 55.39 62.32 55.07 60.61 54.74 58.9 54.41 57.19 54.09 55.48 53.76 53.77 53.43 52.06 53.11 50.35 52.78 48.64 52.45 46.93 52.13 45.22 51.8 43.51 50.15 43.85 48.52 44.25 46.89 44.71 45.29 45.22 43.7 45.79 42.14 46.41 40.6 47.09 39.08 47.82 37.58 48.6 36.12 49.43 34.69 50.32 33.28 51.25 31.91 52.23 30.58 53.25 29.28 54.33 28.01 55.44 26.79 56.6 25.61 57.8 24.47 59.04 23.38 60.32 22.32 61.64 21.32 62.99 20.36 64.38 19.45 65.79 18.59 67.24 17.78 68.72 17.03 70.22 16.32 71.75 15.67 73.31 15.07 74.88 14.53 76.48 14.04 78.09 13.61 79.72 13.23 81.36 12.91 83.01 12.65 84.68 12.45 86.35 12.31 88.03 12.22 89.71 12.19 91.4 13.93 91.4 15.67 91.4 17.41 91.4 19.15 91.4 20.9 91.4 22.64 91.4 24.38 91.4 26.12 91.4 27.86 91.4 29.6 91.4 31.34 91.4 33.08 91.4 34.83 91.4 36.57 91.4 36.63 89.71 36.8 88.04 37.09 86.38 37.49 84.74 38.01 83.14 38.63 81.58 39.36 80.06 40.2 78.6 41.13 77.19 42.16 75.86 43.28 74.6 44.48 73.42 45.76 72.32 47.11 71.32 48.53 70.41 50.01 69.61 51.54 68.9 53.12 68.31 54.73 67.82 56.37 67.45"/></g><g class="cls-2"><text class="cls-5" transform="translate(36.93 96.47)">43.99%</text></g><g class="cls-2"><text class="cls-6" transform="translate(39.38 131.52)">Hombres</text></g><g class="cls-7"><polygon class="cls-3" points="212.69 91.4 214.43 91.4 216.18 91.4 217.92 91.4 219.66 91.4 221.4 91.4 223.14 91.4 224.88 91.4 226.62 91.4 228.36 91.4 230.11 91.4 231.85 91.4 233.59 91.4 235.33 91.4 237.07 91.4 237.04 89.73 236.96 88.07 236.82 86.41 236.62 84.76 236.36 83.11 236.05 81.48 235.68 79.85 235.26 78.24 234.79 76.65 234.26 75.07 233.67 73.51 233.03 71.97 232.35 70.46 231.6 68.97 230.81 67.5 229.97 66.06 229.08 64.66 228.15 63.28 227.16 61.94 226.14 60.63 225.06 59.35 223.95 58.12 222.79 56.92 221.59 55.76 220.36 54.65 219.08 53.58 217.78 52.55 216.43 51.56 215.06 50.63 213.65 49.74 212.21 48.9 210.75 48.11 209.26 47.37 207.74 46.68 206.2 46.04 204.64 45.46 203.06 44.92 201.47 44.45 199.86 44.03 198.23 43.66 196.6 43.35 194.95 43.09 193.3 42.9 191.64 42.75 189.98 42.67 188.32 42.64 186.65 42.67 184.99 42.75 183.33 42.9 181.68 43.09 180.03 43.35 178.4 43.66 176.77 44.03 175.16 44.45 173.57 44.92 171.99 45.46 170.43 46.04 168.89 46.68 167.38 47.37 165.88 48.11 164.42 48.9 162.98 49.74 161.57 50.63 160.2 51.56 158.85 52.55 157.55 53.58 156.27 54.65 155.04 55.76 153.84 56.92 152.68 58.12 151.57 59.35 150.49 60.63 149.47 61.94 148.48 63.28 147.55 64.66 146.66 66.06 145.82 67.5 145.03 68.97 144.28 70.46 143.6 71.97 142.96 73.51 142.37 75.07 141.84 76.65 141.37 78.24 140.95 79.85 140.58 81.48 140.27 83.11 140.01 84.76 139.81 86.41 139.67 88.07 139.59 89.73 139.56 91.4 141.3 91.4 143.04 91.4 144.78 91.4 146.52 91.4 148.27 91.4 150.01 91.4 151.75 91.4 153.49 91.4 155.23 91.4 156.97 91.4 158.71 91.4 160.45 91.4 162.2 91.4 163.94 91.4 163.99 89.73 164.16 88.08 164.45 86.44 164.84 84.82 165.34 83.23 165.96 81.68 166.67 80.18 167.49 78.73 168.4 77.34 169.4 76.01 170.5 74.76 171.68 73.58 172.93 72.49 174.26 71.48 175.65 70.57 177.1 69.75 178.6 69.04 180.15 68.43 181.74 67.92 183.36 67.53 185 67.25 186.65 67.08 188.32 67.02 189.98 67.08 191.63 67.25 193.27 67.53 194.89 67.92 196.48 68.43 198.03 69.04 199.53 69.75 200.98 70.57 202.37 71.48 203.7 72.49 204.95 73.58 206.13 74.76 207.23 76.01 208.23 77.34 209.14 78.73 209.96 80.18 210.67 81.68 211.29 83.23 211.79 84.82 212.18 86.44 212.47 88.08 212.64 89.73 212.69 91.4"/></g><g class="cls-7"><polygon class="cls-8" points="175.46 70.68 174.54 69.21 173.62 67.73 172.7 66.25 171.78 64.77 170.87 63.29 169.95 61.81 169.03 60.33 168.11 58.85 167.19 57.37 166.27 55.89 165.35 54.41 164.44 52.93 163.52 51.45 162.6 49.97 161.21 50.87 159.86 51.81 158.53 52.79 157.24 53.82 155.99 54.9 154.77 56.01 153.6 57.16 152.46 58.36 151.36 59.59 150.31 60.86 149.29 62.16 148.33 63.5 147.41 64.87 146.53 66.27 145.71 67.7 144.93 69.15 144.2 70.63 143.52 72.14 142.9 73.66 142.32 75.21 141.8 76.78 141.33 78.36 140.92 79.95 140.56 81.56 140.26 83.19 140 84.82 139.81 86.45 139.67 88.1 139.59 89.75 139.56 91.4 141.3 91.4 143.04 91.4 144.78 91.4 146.52 91.4 148.27 91.4 150.01 91.4 151.75 91.4 153.49 91.4 155.23 91.4 156.97 91.4 158.71 91.4 160.45 91.4 162.2 91.4 163.94 91.4 163.99 89.75 164.16 88.11 164.44 86.48 164.82 84.88 165.32 83.3 165.92 81.77 166.62 80.27 167.42 78.83 168.32 77.45 169.31 76.13 170.39 74.88 171.54 73.7 172.78 72.61 174.09 71.6 175.46 70.68"/></g><g class="cls-7"><text class="cls-5" transform="translate(164.3 96.47)">32.32%</text></g><g class="cls-7"><text class="cls-6" transform="translate(169.51 131.52)">Mujeres</text></g><g class="cls-9"><polygon class="cls-3" points="340.06 91.4 341.8 91.4 343.55 91.4 345.29 91.4 347.03 91.4 348.77 91.4 350.51 91.4 352.25 91.4 353.99 91.4 355.73 91.4 357.48 91.4 359.22 91.4 360.96 91.4 362.7 91.4 364.44 91.4 364.41 89.73 364.33 88.07 364.19 86.41 363.99 84.76 363.73 83.11 363.42 81.48 363.05 79.85 362.63 78.24 362.16 76.65 361.63 75.07 361.04 73.51 360.4 71.97 359.72 70.46 358.97 68.97 358.18 67.5 357.34 66.06 356.45 64.66 355.52 63.28 354.53 61.94 353.51 60.63 352.43 59.35 351.32 58.12 350.16 56.92 348.96 55.76 347.73 54.65 346.45 53.58 345.15 52.55 343.8 51.56 342.43 50.63 341.02 49.74 339.58 48.9 338.12 48.11 336.62 47.37 335.11 46.68 333.57 46.04 332.01 45.46 330.43 44.92 328.84 44.45 327.23 44.03 325.6 43.66 323.97 43.35 322.32 43.09 320.67 42.9 319.01 42.75 317.35 42.67 315.68 42.64 314.02 42.67 312.36 42.75 310.7 42.9 309.05 43.09 307.4 43.35 305.77 43.66 304.14 44.03 302.53 44.45 300.94 44.92 299.36 45.46 297.8 46.04 296.26 46.68 294.74 47.37 293.25 48.11 291.79 48.9 290.35 49.74 288.94 50.63 287.57 51.56 286.22 52.55 284.92 53.58 283.64 54.65 282.41 55.76 281.21 56.92 280.05 58.12 278.94 59.35 277.86 60.63 276.84 61.94 275.85 63.28 274.92 64.66 274.03 66.06 273.19 67.5 272.4 68.97 271.65 70.46 270.97 71.97 270.33 73.51 269.74 75.07 269.21 76.65 268.74 78.24 268.32 79.85 267.95 81.48 267.64 83.11 267.38 84.76 267.18 86.41 267.04 88.07 266.96 89.73 266.93 91.4 268.67 91.4 270.41 91.4 272.15 91.4 273.89 91.4 275.64 91.4 277.38 91.4 279.12 91.4 280.86 91.4 282.6 91.4 284.34 91.4 286.08 91.4 287.82 91.4 289.57 91.4 291.31 91.4 291.36 89.73 291.53 88.08 291.82 86.44 292.21 84.82 292.71 83.23 293.33 81.68 294.04 80.18 294.86 78.73 295.77 77.34 296.77 76.01 297.87 74.76 299.05 73.58 300.3 72.49 301.63 71.48 303.02 70.57 304.47 69.75 305.97 69.04 307.52 68.43 309.11 67.92 310.73 67.53 312.37 67.25 314.02 67.08 315.68 67.02 317.35 67.08 319 67.25 320.64 67.53 322.26 67.92 323.85 68.43 325.4 69.04 326.9 69.75 328.35 70.57 329.74 71.48 331.07 72.49 332.32 73.58 333.5 74.76 334.6 76.01 335.6 77.34 336.51 78.73 337.33 80.18 338.04 81.68 338.66 83.23 339.16 84.82 339.55 86.44 339.84 88.08 340.01 89.73 340.06 91.4"/></g><g class="cls-9"><polygon class="cls-10" points="315.77 67.02 315.78 65.28 315.78 63.54 315.79 61.79 315.8 60.05 315.8 58.31 315.81 56.57 315.81 54.83 315.82 53.09 315.83 51.35 315.83 49.61 315.84 47.86 315.84 46.12 315.85 44.38 315.86 42.64 314.19 42.66 312.52 42.74 310.86 42.88 309.2 43.07 307.55 43.32 305.91 43.63 304.28 43.99 302.67 44.41 301.07 44.88 299.48 45.41 297.92 45.99 296.38 46.63 294.86 47.31 293.36 48.05 291.89 48.84 290.45 49.68 289.04 50.57 287.65 51.5 286.31 52.49 284.99 53.51 283.71 54.59 282.47 55.7 281.27 56.86 280.11 58.06 278.99 59.29 277.91 60.57 276.88 61.88 275.89 63.22 274.95 64.6 274.06 66.01 273.21 67.45 272.42 68.92 271.68 70.41 270.98 71.93 270.34 73.47 269.76 75.03 269.22 76.61 268.74 78.21 268.32 79.83 267.95 81.45 267.64 83.09 267.38 84.74 267.19 86.4 267.04 88.06 266.96 89.73 266.93 91.4 268.67 91.4 270.41 91.4 272.15 91.4 273.89 91.4 275.64 91.4 277.38 91.4 279.12 91.4 280.86 91.4 282.6 91.4 284.34 91.4 286.08 91.4 287.82 91.4 289.57 91.4 291.31 91.4 291.36 89.73 291.53 88.07 291.82 86.43 292.21 84.8 292.72 83.21 293.33 81.66 294.05 80.16 294.87 78.7 295.79 77.31 296.8 75.98 297.9 74.73 299.08 73.55 300.34 72.46 301.67 71.45 303.07 70.54 304.52 69.72 306.03 69.01 307.58 68.4 309.18 67.9 310.8 67.51 312.44 67.23 314.1 67.07 315.77 67.02"/></g><g class="cls-9"><text class="cls-5" transform="translate(291.67 96.47)">50.11%</text></g><g class="cls-9"><text class="cls-6" transform="translate(267.41 124.35)">Hombres incluyendo</text></g><g class="cls-9"><text class="cls-6" transform="translate(276.83 138.69)">Amas/os de casa</text></g><g class="cls-11"><polygon class="cls-3" points="467.43 91.4 469.17 91.4 470.92 91.4 472.66 91.4 474.4 91.4 476.14 91.4 477.88 91.4 479.62 91.4 481.36 91.4 483.1 91.4 484.85 91.4 486.59 91.4 488.33 91.4 490.07 91.4 491.81 91.4 491.78 89.73 491.7 88.07 491.56 86.41 491.36 84.76 491.1 83.11 490.79 81.48 490.42 79.85 490 78.24 489.53 76.65 489 75.07 488.41 73.51 487.77 71.97 487.09 70.46 486.34 68.97 485.55 67.5 484.71 66.06 483.82 64.66 482.89 63.28 481.9 61.94 480.88 60.63 479.8 59.35 478.69 58.12 477.53 56.92 476.33 55.76 475.1 54.65 473.82 53.58 472.52 52.55 471.17 51.56 469.8 50.63 468.39 49.74 466.95 48.9 465.49 48.11 463.99 47.37 462.48 46.68 460.94 46.04 459.38 45.46 457.8 44.92 456.21 44.45 454.6 44.03 452.97 43.66 451.34 43.35 449.69 43.09 448.04 42.9 446.38 42.75 444.72 42.67 443.05 42.64 441.39 42.67 439.73 42.75 438.07 42.9 436.42 43.09 434.77 43.35 433.14 43.66 431.51 44.03 429.9 44.45 428.31 44.92 426.73 45.46 425.17 46.04 423.63 46.68 422.11 47.37 420.62 48.11 419.16 48.9 417.72 49.74 416.31 50.63 414.94 51.56 413.59 52.55 412.29 53.58 411.01 54.65 409.78 55.76 408.58 56.92 407.42 58.12 406.31 59.35 405.23 60.63 404.21 61.94 403.22 63.28 402.29 64.66 401.4 66.06 400.56 67.5 399.76 68.97 399.02 70.46 398.34 71.97 397.7 73.51 397.11 75.07 396.58 76.65 396.11 78.24 395.68 79.85 395.32 81.48 395.01 83.11 394.75 84.76 394.55 86.41 394.41 88.07 394.33 89.73 394.3 91.4 396.04 91.4 397.78 91.4 399.52 91.4 401.26 91.4 403.01 91.4 404.75 91.4 406.49 91.4 408.23 91.4 409.97 91.4 411.71 91.4 413.45 91.4 415.19 91.4 416.94 91.4 418.68 91.4 418.73 89.73 418.9 88.08 419.19 86.44 419.58 84.82 420.08 83.23 420.69 81.68 421.41 80.18 422.23 78.73 423.14 77.34 424.14 76.01 425.24 74.76 426.42 73.58 427.67 72.49 429 71.48 430.39 70.57 431.84 69.75 433.34 69.04 434.89 68.43 436.48 67.92 438.09 67.53 439.74 67.25 441.39 67.08 443.05 67.02 444.72 67.08 446.37 67.25 448.01 67.53 449.63 67.92 451.22 68.43 452.77 69.04 454.27 69.75 455.72 70.57 457.11 71.48 458.44 72.49 459.69 73.58 460.87 74.76 461.97 76.01 462.97 77.34 463.88 78.73 464.7 80.18 465.41 81.68 466.03 83.23 466.53 84.82 466.92 86.44 467.21 88.08 467.38 89.73 467.43 91.4"/></g><g class="cls-11"><polygon class="cls-12" points="441.38 67.08 441.26 65.34 441.14 63.6 441.02 61.86 440.9 60.13 440.78 58.39 440.66 56.65 440.54 54.92 440.42 53.18 440.3 51.44 440.18 49.7 440.06 47.97 439.94 46.23 439.82 44.49 439.7 42.76 438.05 42.9 436.39 43.1 434.75 43.35 433.11 43.66 431.49 44.03 429.88 44.45 428.29 44.93 426.71 45.46 425.15 46.05 423.61 46.68 422.1 47.37 420.61 48.11 419.14 48.91 417.71 49.75 416.3 50.64 414.93 51.57 413.58 52.56 412.27 53.58 411 54.66 409.77 55.77 408.57 56.93 407.41 58.13 406.3 59.36 405.23 60.64 404.2 61.94 403.22 63.29 402.28 64.66 401.39 66.07 400.55 67.51 399.76 68.97 399.02 70.46 398.33 71.98 397.7 73.52 397.11 75.07 396.58 76.65 396.11 78.25 395.68 79.86 395.32 81.48 395.01 83.11 394.75 84.76 394.55 86.41 394.41 88.07 394.33 89.73 394.3 91.4 396.04 91.4 397.78 91.4 399.52 91.4 401.26 91.4 403.01 91.4 404.75 91.4 406.49 91.4 408.23 91.4 409.97 91.4 411.71 91.4 413.45 91.4 415.19 91.4 416.94 91.4 418.68 91.4 418.73 89.73 418.9 88.08 419.19 86.44 419.58 84.82 420.08 83.24 420.69 81.69 421.41 80.18 422.22 78.73 423.14 77.34 424.14 76.02 425.23 74.76 426.41 73.58 427.66 72.49 428.99 71.48 430.38 70.57 431.83 69.76 433.33 69.04 434.88 68.43 436.47 67.93 438.08 67.53 439.72 67.25 441.38 67.08"/></g><g class="cls-11"><text class="cls-5" transform="translate(419.04 96.47)">47.81%</text></g><g class="cls-11"><text class="cls-6" transform="translate(397.54 124.35)">Mujeres incluyendo</text></g><g class="cls-11"><text class="cls-6" transform="translate(404.2 138.69)">Amas/os de casa</text></g><g class="cls-13"><text class="cls-14" transform="translate(0 27.81)">Segundo y Tercer trimestre del 2020</text></g><g class="cls-13"><text class="cls-15" transform="translate(0 11.31)">Tasa de actividad por sexo</text></g></g></g></svg>