<svg xmlns="http://www.w3.org/2000/svg" xmlns:xlink="http://www.w3.org/1999/xlink" viewBox="0 0 495.44 291.21"><defs><style>.cls-1,.cls-21,.cls-55,.cls-57{fill:none;}.cls-2{clip-path:url(#clip-path);}.cls-3{fill:#349a96;stroke:#349a96;}.cls-10,.cls-11,.cls-12,.cls-13,.cls-14,.cls-15,.cls-16,.cls-17,.cls-18,.cls-19,.cls-20,.cls-3,.cls-4,.cls-5,.cls-6,.cls-7,.cls-8,.cls-9{fill-opacity:0.7;stroke-linecap:round;stroke-opacity:0.7;stroke-width:0.71px;}.cls-10,.cls-11,.cls-12,.cls-13,.cls-14,.cls-15,.cls-16,.cls-17,.cls-18,.cls-19,.cls-20,.cls-21,.cls-3,.cls-4,.cls-5,.cls-55,.cls-57,.cls-6,.cls-7,.cls-8,.cls-9{stroke-linejoin:round;}.cls-4{fill:#34a4bb;stroke:#34a4bb;}.cls-5{fill:#359ea5;stroke:#359ea5;}.cls-6{fill:#359da0;stroke:#359da0;}.cls-7{fill:#349992;stroke:#349992;}.cls-8{fill:#349994;stroke:#349994;}.cls-9{fill:#2aade2;stroke:#2aade2;}.cls-10{fill:#0c8136;stroke:#0c8136;}.cls-11{fill:#1e874d;stroke:#1e874d;}.cls-12{fill:#33988f;stroke:#33988f;}.cls-13{fill:#359da1;stroke:#359da1;}.cls-14{fill:#35a0ae;stroke:#35a0ae;}.cls-15{fill:#35a2b5;stroke:#35a2b5;}.cls-16{fill:#298d64;stroke:#298d64;}.cls-17{fill:#359ea6;stroke:#359ea6;}.cls-18{fill:#2c8f6d;stroke:#2c8f6d;}.cls-19{fill:#29aee4;stroke:#29aee4;}.cls-20{fill:#2bade0;stroke:#2bade0;}.cls-21,.cls-55{stroke:#000;}.cls-21,.cls-55,.cls-57{stroke-width:1.07px;}.cls-21{stroke-dasharray:1.42 4.27;}.cls-22,.cls-56,.cls-58,.cls-59,.cls-60{isolation:isolate;}.cls-22{font-size:5.69px;font-family:ArialMT, Arial;}.cls-23{letter-spacing:-0.11em;}.cls-24{letter-spacing:0.24em;}.cls-25{letter-spacing:-0.11em;}.cls-26{letter-spacing:0.21em;}.cls-27{letter-spacing:-0.02em;}.cls-28{letter-spacing:0.11em;}.cls-29{letter-spacing:-0.06em;}.cls-30{letter-spacing:-0.02em;}.cls-31{letter-spacing:0.12em;}.cls-32{letter-spacing:0.15em;}.cls-33{letter-spacing:0em;}.cls-34{letter-spacing:-0.09em;}.cls-35{letter-spacing:0.15em;}.cls-36{letter-spacing:0.02em;}.cls-37{letter-spacing:0.19em;}.cls-38{letter-spacing:0.23em;}.cls-39{letter-spacing:-0.07em;}.cls-40{letter-spacing:0.23em;}.cls-41{letter-spacing:-0.06em;}.cls-42{letter-spacing:0.16em;}.cls-43{letter-spacing:0.19em;}.cls-44{letter-spacing:0.13em;}.cls-45{letter-spacing:0.16em;}.cls-46{letter-spacing:0.08em;}.cls-47{letter-spacing:0.11em;}.cls-48{letter-spacing:0.03em;}.cls-49{letter-spacing:0.05em;}.cls-50{letter-spacing:-0.09em;}.cls-51{letter-spacing:0.06em;}.cls-52{letter-spacing:0.2em;}.cls-53{letter-spacing:0.13em;}.cls-54{clip-path:url(#clip-path-41);}.cls-56{font-size:8.8px;}.cls-56,.cls-58,.cls-59,.cls-60{font-family:OpenSans-Regular, Open Sans;}.cls-57{stroke:#333;}.cls-58{font-size:8px;}.cls-59{font-size:11px;}.cls-60{font-size:13.2px;}</style><clipPath id="clip-path" transform="translate(-4.33 -98.64)"><rect class="cls-1" x="35.88" y="134.58" width="462.64" height="231.32"/></clipPath><clipPath id="clip-path-41" transform="translate(-4.33 -98.64)"><rect class="cls-1" width="504" height="504"/></clipPath></defs><g id="Capa_2" data-name="Capa 2"><g id="Capa_1-2" data-name="Capa 1"><g class="cls-2"><circle class="cls-3" cx="238.73" cy="174.99" r="2.74"/></g><g class="cls-2"><circle class="cls-4" cx="149.12" cy="225.65" r="3.34"/></g><g class="cls-2"><circle class="cls-5" cx="200.9" cy="125.63" r="5.31"/></g><g class="cls-2"><circle class="cls-6" cx="212.51" cy="227.48" r="3.74"/></g><g class="cls-2"><circle class="cls-7" cx="247.59" cy="256.74" r="2.18"/></g><g class="cls-2"><circle class="cls-8" cx="243.49" cy="224.12" r="6.76"/></g><g class="cls-2"><circle class="cls-9" cx="57.35" cy="222.19" r="4.72"/></g><g class="cls-2"><circle class="cls-10" cx="473.16" cy="221.4" r="3.99"/></g><g class="cls-2"><circle class="cls-11" cx="419.07" cy="92.87" r="4.64"/></g><g class="cls-2"><circle class="cls-12" cx="255.43" cy="46.45" r="2.76"/></g><g class="cls-2"><circle class="cls-13" cx="210.42" cy="248.87" r="3.78"/></g><g class="cls-2"><circle class="cls-14" cx="180.52" cy="112.69" r="2.07"/></g><g class="cls-2"><circle class="cls-15" cx="163.51" cy="60.64" r="1.71"/></g><g class="cls-2"><circle class="cls-16" cx="360.5" cy="228.21" r="2.62"/></g><g class="cls-2"><circle class="cls-17" cx="199.24" cy="208.25" r="3.39"/></g><g class="cls-2"><circle class="cls-18" cx="338.9" cy="183.6" r="4.38"/></g><g class="cls-2"><circle class="cls-19" cx="52.58" cy="201.36" r="2.76"/></g><g class="cls-2"><circle class="cls-19" cx="52.58" cy="210.51" r="1.42"/></g><g class="cls-2"><circle class="cls-20" cx="66.43" cy="284.89" r="3.74" transform="translate(-19.99 -94.53) rotate(-3.17)"/></g><g class="cls-2"><line class="cls-21" x1="31.55" y1="204.8" x2="494.19" y2="204.8"/></g><g class="cls-2"><line class="cls-21" x1="269.65" y1="267.26" x2="269.65" y2="35.94"/></g><g class="cls-2"><text class="cls-22" transform="translate(213.03 170.44)">AC<tspan class="cls-23" x="7.9" y="0">T</tspan><tspan x="10.75" y="0">.</tspan><tspan class="cls-24" x="12.33" y="0"> </tspan><tspan x="15.3" y="0">PRO</tspan><tspan class="cls-25" x="27.63" y="0">F</tspan><tspan x="30.47" y="0">.,</tspan><tspan class="cls-24" x="33.64" y="0"> </tspan><tspan x="36.61" y="0">CIEN</tspan><tspan class="cls-23" x="50.2" y="0">T</tspan><tspan x="53.05" y="0">,</tspan><tspan class="cls-26" x="54.63" y="0"> </tspan><tspan class="cls-27" x="57.4" y="0">Y</tspan><tspan class="cls-26" x="61.1" y="0"> </tspan><tspan x="63.87" y="0">TÉC.</tspan></text></g><g class="cls-2"><text class="cls-22" transform="translate(119.07 221.3)">AC<tspan class="cls-23" x="7.9" y="0">T</tspan><tspan x="10.75" y="0">.</tspan><tspan class="cls-28" x="12.33" y="0"> </tspan><tspan x="14.55" y="0">ADMIN.</tspan></text></g><g class="cls-2"><text class="cls-22" transform="translate(193.64 121.25)">ADM. PÚBLIC<tspan class="cls-29" x="36.36" y="0">A</tspan></text></g><g class="cls-2"><text class="cls-22" transform="translate(110.97 234.09)">ALOJAMIEN<tspan class="cls-30" x="32.25" y="0">T</tspan><tspan x="35.63" y="0">O</tspan><tspan class="cls-31" x="40.05" y="0"> </tspan><tspan class="cls-30" x="42.33" y="0">Y</tspan><tspan class="cls-32" x="46.03" y="0"> </tspan><tspan class="cls-33" x="48.47" y="0">SE</tspan><tspan class="cls-27" x="56.06" y="0">R</tspan><tspan class="cls-34" x="60.07" y="0">V</tspan><tspan x="63.34" y="0">.DE</tspan><tspan class="cls-35" x="72.83" y="0"> </tspan><tspan x="75.27" y="0">COMIDAS</tspan></text></g><g class="cls-2"><text class="cls-22" transform="translate(252.7 263.66)">A<tspan class="cls-30" x="3.8" y="0">R</tspan><tspan x="7.8" y="0">TES,</tspan><tspan class="cls-36" x="20.45" y="0"> </tspan><tspan class="cls-33" x="22.14" y="0">ENTR. </tspan><tspan class="cls-30" x="40.79" y="0">Y</tspan><tspan class="cls-36" x="44.48" y="0"> </tspan><tspan class="cls-33" x="46.17" y="0">REC.</tspan></text></g><g class="cls-2"><text class="cls-22" transform="translate(206.52 219.71)">COMERCIO<tspan class="cls-37" x="31.3" y="0"> </tspan><tspan class="cls-27" x="33.99" y="0">Y</tspan><tspan class="cls-38" x="37.68" y="0"> </tspan><tspan x="40.55" y="0">RE</tspan><tspan class="cls-39" x="48.46" y="0">P</tspan><tspan x="51.83" y="0">ARACION</tspan><tspan class="cls-40" x="77.76" y="0"> </tspan><tspan x="80.63" y="0">VEHIC.</tspan></text></g><g class="cls-2"><text class="cls-22" transform="translate(46.87 230.39)">CONSTRUCCIÓN</text></g><g class="cls-2"><text class="cls-22" transform="translate(433.64 217.01)">EMPLEADOS. DOM.</text></g><g class="cls-2"><text class="cls-22" transform="translate(388.95 101.27)">ENSEÑANZ<tspan class="cls-29" x="30.98" y="0">A</tspan></text></g><g class="cls-2"><text class="cls-22" transform="translate(260.39 43.62)">FINANCIER<tspan class="cls-41" x="30.66" y="0">A</tspan><tspan class="cls-42" x="34.15" y="0"> </tspan><tspan class="cls-27" x="36.64" y="0">Y</tspan><tspan class="cls-43" x="40.34" y="0"> </tspan><tspan x="43.01" y="0">SEGUROS</tspan></text></g><g class="cls-2"><text class="cls-22" transform="translate(182.28 244.5)">INDUSTRI<tspan class="cls-29" x="26.87" y="0">A</tspan></text></g><g class="cls-2"><text class="cls-22" transform="translate(146.3 108.06)">INFORMACIÓN<tspan class="cls-44" x="40.46" y="0"> </tspan><tspan class="cls-27" x="42.81" y="0">Y</tspan><tspan class="cls-45" x="46.5" y="0"> </tspan><tspan x="49.01" y="0">COMUNICACIÓN</tspan></text></g><g class="cls-2"><text class="cls-22" transform="translate(155.27 56.25)">INMOBILIARIAS</text></g><g class="cls-2"><text class="cls-22" transform="translate(321.71 236.62)">ORG.<tspan class="cls-46" x="14.54" y="0"> </tspan><tspan x="16.55" y="0">EXTR</tspan><tspan class="cls-39" x="31.73" y="0">A</tspan><tspan x="35.1" y="0">TERR.</tspan></text></g><g class="cls-2"><text class="cls-22" transform="translate(167.01 203.87)">OTROS<tspan class="cls-47" x="20.23" y="0"> </tspan><tspan x="22.44" y="0">SE</tspan><tspan class="cls-30" x="30.03" y="0">R</tspan><tspan class="cls-34" x="34.04" y="0">V</tspan><tspan x="37.31" y="0">.</tspan></text></g><g class="cls-2"><text class="cls-22" transform="translate(323.27 179.25)">SALUD<tspan class="cls-48" x="18.97" y="0"> </tspan><tspan class="cls-27" x="20.72" y="0">Y</tspan><tspan class="cls-49" x="24.41" y="0"> </tspan><tspan x="26.28" y="0">SE</tspan><tspan class="cls-27" x="33.87" y="0">R</tspan><tspan class="cls-50" x="37.87" y="0">V</tspan><tspan x="41.15" y="0">.</tspan><tspan class="cls-49" x="42.73" y="0"> </tspan><tspan x="44.59" y="0">SOC</tspan></text></g><g class="cls-2"><text class="cls-22" transform="translate(46.55 197)">SUMIN.<tspan class="cls-51" x="19.92" y="0"> </tspan><tspan x="21.81" y="0">AGU</tspan><tspan class="cls-41" x="34.14" y="0">A</tspan></text></g><g class="cls-2"><text class="cls-22" transform="translate(57.64 217.82)">SUMIN. ENERGI<tspan class="cls-41" x="43.31" y="0">A</tspan></text></g><g class="cls-2"><text class="cls-22" transform="translate(35.15 181.9)">TRANSPO<tspan class="cls-30" x="27.51" y="0">R</tspan><tspan x="31.51" y="0">TE</tspan><tspan class="cls-52" x="38.78" y="0"> </tspan><tspan class="cls-27" x="41.51" y="0">Y</tspan><tspan class="cls-53" x="45.2" y="0"> </tspan><tspan x="47.54" y="0">ALMACENAMIEN</tspan><tspan class="cls-27" x="93.06" y="0">T</tspan><tspan x="96.44" y="0">O</tspan></text></g><g class="cls-54"><line class="cls-55" x1="31.55" y1="267.26" x2="31.55" y2="35.94"/></g><g class="cls-54"><text class="cls-56" transform="translate(11.52 248.25)">100</text></g><g class="cls-54"><text class="cls-56" transform="translate(11.52 204.51)">150</text></g><g class="cls-54"><text class="cls-56" transform="translate(11.52 160.78)">200</text></g><g class="cls-54"><text class="cls-56" transform="translate(11.52 117.04)">250</text></g><g class="cls-54"><text class="cls-56" transform="translate(11.52 73.3)">300</text></g><g class="cls-54"><line class="cls-57" x1="28.81" y1="245.11" x2="31.55" y2="245.11"/></g><g class="cls-54"><line class="cls-57" x1="28.81" y1="201.37" x2="31.55" y2="201.37"/></g><g class="cls-54"><line class="cls-57" x1="28.81" y1="157.63" x2="31.55" y2="157.63"/></g><g class="cls-54"><line class="cls-57" x1="28.81" y1="113.9" x2="31.55" y2="113.9"/></g><g class="cls-54"><line class="cls-57" x1="28.81" y1="70.16" x2="31.55" y2="70.16"/></g><g class="cls-54"><line class="cls-55" x1="31.55" y1="267.26" x2="494.19" y2="267.26"/></g><g class="cls-54"><line class="cls-57" x1="52.58" y1="270" x2="52.58" y2="267.26"/></g><g class="cls-54"><line class="cls-57" x1="161.11" y1="270" x2="161.11" y2="267.26"/></g><g class="cls-54"><line class="cls-57" x1="269.65" y1="270" x2="269.65" y2="267.26"/></g><g class="cls-54"><line class="cls-57" x1="378.18" y1="270" x2="378.18" y2="267.26"/></g><g class="cls-54"><line class="cls-57" x1="486.72" y1="270" x2="486.72" y2="267.26"/></g><g class="cls-54"><text class="cls-56" transform="translate(43.86 278.47)">0.00</text></g><g class="cls-54"><text class="cls-56" transform="translate(152.39 278.47)">0.25</text></g><g class="cls-54"><text class="cls-56" transform="translate(260.93 278.47)">0.50</text></g><g class="cls-54"><text class="cls-56" transform="translate(369.46 278.47)">0.75</text></g><g class="cls-54"><text class="cls-56" transform="translate(478 278.47)">1.00</text></g><g class="cls-54"><text class="cls-58" transform="translate(223.84 289.04)">Tasa de feminización</text></g><g class="cls-54"><text class="cls-58" transform="translate(6.86 195.11) rotate(-90)">Ing. promedio por hora</text></g><g class="cls-54"><text class="cls-59" transform="translate(1.15 27.81)">Segundo y Tercer trimestre 2020</text></g><g class="cls-54"><text class="cls-60" transform="translate(1.15 11.31)">Tasa de feminización e ingreso por hora promedio por sector de actividad</text></g></g></g></svg>