<svg xmlns="http://www.w3.org/2000/svg" xmlns:xlink="http://www.w3.org/1999/xlink" viewBox="0 0 493.42 282.65"><defs><style>.cls-1{fill:none;}.cls-2{clip-path:url(#clip-path);}.cls-3{fill:#ebebeb;}.cls-4{fill:#e22172;}.cls-4,.cls-5,.cls-6,.cls-7,.cls-8,.cls-9{stroke:#bebebe;stroke-linecap:round;stroke-linejoin:round;stroke-width:0.38px;}.cls-5{fill:#29aee4;}.cls-6{fill:#f4a018;}.cls-7{fill:#0c8136;}.cls-8{fill:#c85687;}.cls-9{fill:#428cb4;}.cls-10,.cls-11,.cls-12,.cls-13,.cls-15,.cls-16{isolation:isolate;font-family:OpenSans-Regular, Open Sans;}.cls-10{font-size:18px;}.cls-11{font-size:14.76px;}.cls-12{font-size:15.31px;}.cls-13{font-size:2.55px;}.cls-14{clip-path:url(#clip-path-14);}.cls-15{font-size:11px;}.cls-16{font-size:13.2px;}</style><clipPath id="clip-path" transform="translate(-5.29 -102.89)"><rect class="cls-1" x="5.48" y="138.83" width="493.04" height="246.52"/></clipPath><clipPath id="clip-path-14" transform="translate(-5.29 -102.89)"><rect class="cls-1" width="504" height="504"/></clipPath></defs><g id="Capa_2" data-name="Capa 2"><g id="Capa_1-2" data-name="Capa 1"><g class="cls-2"><rect class="cls-3" x="0.19" y="35.94" width="493.04" height="246.52"/></g><g class="cls-2"><polygon class="cls-4" points="0.19 282.46 361.79 282.46 361.79 282.46 361.79 282.46 361.79 282.46 361.79 282.46 361.79 282.46 361.79 282.46 361.79 282.46 361.79 282.46 361.79 282.46 361.79 282.46 361.79 282.46 361.79 282.46 361.79 131.31 361.79 131.31 361.79 131.31 361.79 131.31 361.79 131.31 361.79 131.31 361.79 131.31 361.79 131.31 361.79 131.31 361.79 131.31 361.79 131.31 361.79 131.31 0.19 131.31 0.19 131.31 0.19 131.31 0.19 131.31 0.19 131.31 0.19 131.31 0.19 131.31 0.19 131.31 0.19 131.31 0.19 131.31 0.19 131.31 0.19 131.31 0.19 131.31 0.19 282.46 0.19 282.46 0.19 282.46 0.19 282.46 0.19 282.46 0.19 282.46 0.19 282.46 0.19 282.46 0.19 282.46 0.19 282.46 0.19 282.46 0.19 282.46"/></g><g class="cls-2"><polygon class="cls-5" points="0.19 131.31 361.79 131.31 361.79 131.31 361.79 131.31 361.79 131.31 361.79 131.31 361.79 131.31 361.79 131.31 361.79 131.31 361.79 131.31 361.79 131.31 361.79 131.31 361.79 131.31 361.79 131.31 361.79 35.94 361.79 35.94 361.79 35.94 361.79 35.94 361.79 35.94 361.79 35.94 361.79 35.94 361.79 35.94 361.79 35.94 361.79 35.94 361.79 35.94 361.79 35.94 0.19 35.94 0.19 35.94 0.19 35.94 0.19 35.94 0.19 35.94 0.19 35.94 0.19 35.94 0.19 35.94 0.19 35.94 0.19 35.94 0.19 35.94 0.19 35.94 0.19 35.94 0.19 131.31 0.19 131.31 0.19 131.31 0.19 131.31 0.19 131.31 0.19 131.31 0.19 131.31 0.19 131.31 0.19 131.31 0.19 131.31 0.19 131.31 0.19 131.31"/></g><g class="cls-2"><polygon class="cls-6" points="361.79 282.46 493.23 282.46 493.23 282.46 493.23 282.46 493.23 282.46 493.23 282.46 493.23 282.46 493.23 282.46 493.23 282.46 493.23 282.46 493.23 282.46 493.23 282.46 493.23 282.46 493.23 282.46 493.23 170.58 493.23 170.58 493.23 170.58 493.23 170.58 493.23 170.58 493.23 170.58 493.23 170.58 493.23 170.58 493.23 170.58 493.23 170.58 493.23 170.58 493.23 170.58 361.79 170.58 361.79 170.58 361.79 170.58 361.79 170.58 361.79 170.58 361.79 170.58 361.79 170.58 361.79 170.58 361.79 170.58 361.79 170.58 361.79 170.58 361.79 170.58 361.79 170.58 361.79 282.46 361.79 282.46 361.79 282.46 361.79 282.46 361.79 282.46 361.79 282.46 361.79 282.46 361.79 282.46 361.79 282.46 361.79 282.46 361.79 282.46 361.79 282.46"/></g><g class="cls-2"><polygon class="cls-7" points="361.79 170.58 493.23 170.58 493.23 170.58 493.23 170.58 493.23 170.58 493.23 170.58 493.23 170.58 493.23 170.58 493.23 170.58 493.23 170.58 493.23 170.58 493.23 170.58 493.23 170.58 493.23 170.58 493.23 65.64 493.23 65.64 493.23 65.64 493.23 65.64 493.23 65.64 493.23 65.64 493.23 65.64 493.23 65.64 493.23 65.64 493.23 65.64 493.23 65.64 493.23 65.64 361.79 65.64 361.79 65.64 361.79 65.64 361.79 65.64 361.79 65.64 361.79 65.64 361.79 65.64 361.79 65.64 361.79 65.64 361.79 65.64 361.79 65.64 361.79 65.64 361.79 65.64 361.79 170.58 361.79 170.58 361.79 170.58 361.79 170.58 361.79 170.58 361.79 170.58 361.79 170.58 361.79 170.58 361.79 170.58 361.79 170.58 361.79 170.58 361.79 170.58"/></g><g class="cls-2"><polygon class="cls-8" points="361.79 65.64 466.94 65.64 466.94 65.64 466.94 65.64 466.94 65.64 466.94 65.64 466.94 65.64 466.94 65.64 466.94 65.64 466.94 65.64 466.94 65.64 466.94 65.64 466.94 65.64 466.94 65.64 466.94 35.94 466.94 35.94 466.94 35.94 466.94 35.94 466.94 35.94 466.94 35.94 466.94 35.94 466.94 35.94 466.94 35.94 466.94 35.94 466.94 35.94 466.94 35.94 361.79 35.94 361.79 35.94 361.79 35.94 361.79 35.94 361.79 35.94 361.79 35.94 361.79 35.94 361.79 35.94 361.79 35.94 361.79 35.94 361.79 35.94 361.79 35.94 361.79 35.94 361.79 65.64 361.79 65.64 361.79 65.64 361.79 65.64 361.79 65.64 361.79 65.64 361.79 65.64 361.79 65.64 361.79 65.64 361.79 65.64 361.79 65.64 361.79 65.64"/></g><g class="cls-2"><polygon class="cls-9" points="466.94 65.64 493.23 65.64 493.23 65.64 493.23 65.64 493.23 65.64 493.23 65.64 493.23 65.64 493.23 65.64 493.23 65.64 493.23 65.64 493.23 65.64 493.23 65.64 493.23 65.64 493.23 65.64 493.23 35.94 493.23 35.94 493.23 35.94 493.23 35.94 493.23 35.94 493.23 35.94 493.23 35.94 493.23 35.94 493.23 35.94 493.23 35.94 493.23 35.94 493.23 35.94 466.94 35.94 466.94 35.94 466.94 35.94 466.94 35.94 466.94 35.94 466.94 35.94 466.94 35.94 466.94 35.94 466.94 35.94 466.94 35.94 466.94 35.94 466.94 35.94 466.94 35.94 466.94 65.64 466.94 65.64 466.94 65.64 466.94 65.64 466.94 65.64 466.94 65.64 466.94 65.64 466.94 65.64 466.94 65.64 466.94 65.64 466.94 65.64 466.94 65.64"/></g><g class="cls-2"><text class="cls-10" transform="translate(3.02 146.99)">Ex Pareja | 44.97%</text></g><g class="cls-2"><text class="cls-10" transform="translate(3.02 51.62)">Concubino | 28.37%</text></g><g class="cls-2"><text class="cls-10" transform="translate(364.62 186.27)">Filial | 12.10%</text></g><g class="cls-2"><text class="cls-11" transform="translate(364.62 79.01)">Cónyuge | 11.35%</text></g><g class="cls-2"><text class="cls-12" transform="translate(364.62 49.7)">Otros | 2.57%</text></g><g class="cls-2"><text class="cls-13" transform="translate(469.78 40.59)">Fraternal | 0.64%</text></g><g class="cls-14"><text class="cls-15" transform="translate(0.19 27.81)">2020</text></g><g class="cls-14"><text class="cls-16" transform="translate(0.19 11.31)">Relación del victimario con la víctima en las denuncias por Violencia de Género</text></g></g></g></svg>