<svg xmlns="http://www.w3.org/2000/svg" xmlns:xlink="http://www.w3.org/1999/xlink" viewBox="0 0 487.57 345.19"><defs><style>.cls-1{fill:none;}.cls-2{clip-path:url(#clip-path);}.cls-3{fill:#d3d3d3;}.cls-4{fill:#29aee4;}.cls-18,.cls-19,.cls-5,.cls-6{isolation:isolate;font-family:OpenSans-Regular, Open Sans;}.cls-5{font-size:14.23px;}.cls-6{font-size:9.96px;}.cls-7{clip-path:url(#clip-path-6);}.cls-8{fill:#f4a018;}.cls-9{clip-path:url(#clip-path-11);}.cls-10{fill:#0c8136;}.cls-11{clip-path:url(#clip-path-16);}.cls-12{fill:#428cb4;}.cls-13{clip-path:url(#clip-path-21);}.cls-14{fill:#e22172;}.cls-15{clip-path:url(#clip-path-26);}.cls-16{fill:#c85687;}.cls-17{clip-path:url(#clip-path-30);}.cls-18{font-size:11px;}.cls-19{font-size:13.2px;}</style><clipPath id="clip-path" transform="translate(0 -64.54)"><rect class="cls-1" y="95" width="164.35" height="164.35"/></clipPath><clipPath id="clip-path-6" transform="translate(0 -64.54)"><rect class="cls-1" y="264.83" width="164.35" height="164.35"/></clipPath><clipPath id="clip-path-11" transform="translate(0 -64.54)"><rect class="cls-1" x="169.83" y="95" width="164.35" height="164.35"/></clipPath><clipPath id="clip-path-16" transform="translate(0 -64.54)"><rect class="cls-1" x="169.83" y="264.83" width="164.35" height="164.35"/></clipPath><clipPath id="clip-path-21" transform="translate(0 -64.54)"><rect class="cls-1" x="339.65" y="95" width="164.35" height="164.35"/></clipPath><clipPath id="clip-path-26" transform="translate(0 -64.54)"><rect class="cls-1" x="339.65" y="264.83" width="164.35" height="164.35"/></clipPath><clipPath id="clip-path-30" transform="translate(0 -64.54)"><rect class="cls-1" width="504" height="504"/></clipPath></defs><g id="Capa_2" data-name="Capa 2"><g id="Capa_1-2" data-name="Capa 1"><g class="cls-2"><polygon class="cls-3" points="115.04 112.63 117.39 112.63 119.74 112.63 122.09 112.63 124.43 112.63 126.78 112.63 129.13 112.63 131.48 112.63 133.83 112.63 136.17 112.63 138.52 112.63 140.87 112.63 143.22 112.63 145.56 112.63 147.91 112.63 147.87 110.39 147.76 108.15 147.57 105.91 147.3 103.68 146.96 101.46 146.54 99.26 146.04 97.07 145.47 94.9 144.83 92.75 144.12 90.62 143.33 88.52 142.47 86.44 141.54 84.4 140.54 82.39 139.48 80.41 138.34 78.48 137.14 76.58 135.88 74.72 134.55 72.91 133.17 71.15 131.72 69.43 130.22 67.76 128.66 66.15 127.04 64.59 125.38 63.08 123.66 61.64 121.9 60.25 120.08 58.93 118.23 57.66 116.33 56.46 114.39 55.33 112.42 54.26 110.41 53.27 108.36 52.34 106.29 51.48 104.19 50.69 102.06 49.97 99.91 49.33 97.74 48.76 95.55 48.27 93.34 47.85 91.12 47.51 88.9 47.24 86.66 47.05 84.42 46.93 82.17 46.89 79.93 46.93 77.69 47.05 75.45 47.24 73.22 47.51 71 47.85 68.8 48.27 66.61 48.76 64.44 49.33 62.29 49.97 60.16 50.69 58.06 51.48 55.98 52.34 53.94 53.27 51.93 54.26 49.95 55.33 48.02 56.46 46.12 57.66 44.26 58.93 42.45 60.25 40.69 61.64 38.97 63.08 37.3 64.59 35.69 66.15 34.13 67.76 32.63 69.43 31.18 71.15 29.79 72.91 28.47 74.72 27.2 76.58 26 78.48 24.87 80.41 23.8 82.39 22.81 84.4 21.88 86.44 21.02 88.52 20.23 90.62 19.51 92.75 18.87 94.9 18.3 97.07 17.81 99.26 17.39 101.46 17.05 103.68 16.78 105.91 16.59 108.15 16.47 110.39 16.43 112.63 18.78 112.63 21.13 112.63 23.48 112.63 25.83 112.63 28.17 112.63 30.52 112.63 32.87 112.63 35.22 112.63 37.57 112.63 39.91 112.63 42.26 112.63 44.61 112.63 46.96 112.63 49.3 112.63 49.38 110.39 49.61 108.16 49.99 105.95 50.52 103.77 51.2 101.63 52.03 99.54 52.99 97.51 54.09 95.55 55.32 93.68 56.68 91.89 58.15 90.2 59.74 88.61 61.43 87.14 63.22 85.78 65.1 84.55 67.05 83.45 69.08 82.48 71.17 81.66 73.31 80.98 75.49 80.45 77.7 80.07 79.93 79.84 82.17 79.76 84.42 79.84 86.65 80.07 88.86 80.45 91.04 80.98 93.18 81.66 95.27 82.48 97.3 83.45 99.25 84.55 101.13 85.78 102.92 87.14 104.61 88.61 106.2 90.2 107.67 91.89 109.03 93.68 110.26 95.55 111.36 97.51 112.32 99.54 113.15 101.63 113.82 103.77 114.36 105.95 114.74 108.16 114.97 110.39 115.04 112.63"/></g><g class="cls-2"><polygon class="cls-4" points="49.33 111.42 46.98 111.33 44.63 111.24 42.29 111.16 39.94 111.07 37.6 110.98 35.25 110.9 32.9 110.81 30.56 110.72 28.21 110.64 25.86 110.55 23.52 110.46 21.17 110.38 18.83 110.29 16.48 110.2 16.43 112.63 18.78 112.63 21.13 112.63 23.48 112.63 25.83 112.63 28.17 112.63 30.52 112.63 32.87 112.63 35.22 112.63 37.57 112.63 39.91 112.63 42.26 112.63 44.61 112.63 46.96 112.63 49.3 112.63 49.33 111.42"/></g><g class="cls-2"><text class="cls-5" transform="translate(62.22 117.71)">1.18%</text></g><g class="cls-2"><text class="cls-6" transform="translate(55.74 158.32)">Menor a 18</text></g><g class="cls-2"><text class="cls-6" transform="translate(70.97 172.66)">años</text></g><g class="cls-7"><polygon class="cls-3" points="115.04 282.46 117.39 282.46 119.74 282.46 122.09 282.46 124.43 282.46 126.78 282.46 129.13 282.46 131.48 282.46 133.83 282.46 136.17 282.46 138.52 282.46 140.87 282.46 143.22 282.46 145.56 282.46 147.91 282.46 147.87 280.22 147.76 277.97 147.57 275.74 147.3 273.51 146.96 271.29 146.54 269.08 146.04 266.89 145.47 264.72 144.83 262.57 144.12 260.44 143.33 258.34 142.47 256.27 141.54 254.23 140.54 252.22 139.48 250.24 138.34 248.3 137.14 246.4 135.88 244.55 134.55 242.74 133.17 240.97 131.72 239.26 130.22 237.59 128.66 235.98 127.04 234.42 125.38 232.91 123.66 231.47 121.9 230.08 120.08 228.75 118.23 227.49 116.33 226.29 114.39 225.16 112.42 224.09 110.41 223.09 108.36 222.16 106.29 221.3 104.19 220.52 102.06 219.8 99.91 219.16 97.74 218.59 95.55 218.1 93.34 217.68 91.12 217.33 88.9 217.07 86.66 216.87 84.42 216.76 82.17 216.72 79.93 216.76 77.69 216.87 75.45 217.07 73.22 217.33 71 217.68 68.8 218.1 66.61 218.59 64.44 219.16 62.29 219.8 60.16 220.52 58.06 221.3 55.98 222.16 53.94 223.09 51.93 224.09 49.95 225.16 48.02 226.29 46.12 227.49 44.26 228.75 42.45 230.08 40.69 231.47 38.97 232.91 37.3 234.42 35.69 235.98 34.13 237.59 32.63 239.26 31.18 240.97 29.79 242.74 28.47 244.55 27.2 246.4 26 248.3 24.87 250.24 23.8 252.22 22.81 254.23 21.88 256.27 21.02 258.34 20.23 260.44 19.51 262.57 18.87 264.72 18.3 266.89 17.81 269.08 17.39 271.29 17.05 273.51 16.78 275.74 16.59 277.97 16.47 280.22 16.43 282.46 18.78 282.46 21.13 282.46 23.48 282.46 25.83 282.46 28.17 282.46 30.52 282.46 32.87 282.46 35.22 282.46 37.57 282.46 39.91 282.46 42.26 282.46 44.61 282.46 46.96 282.46 49.3 282.46 49.38 280.22 49.61 277.98 49.99 275.77 50.52 273.59 51.2 271.45 52.03 269.36 52.99 267.34 54.09 265.38 55.32 263.5 56.68 261.72 58.15 260.02 59.74 258.44 61.43 256.96 63.22 255.61 65.1 254.38 67.05 253.28 69.08 252.31 71.17 251.49 73.31 250.81 75.49 250.28 77.7 249.9 79.93 249.67 82.17 249.59 84.42 249.67 86.65 249.9 88.86 250.28 91.04 250.81 93.18 251.49 95.27 252.31 97.3 253.28 99.25 254.38 101.13 255.61 102.92 256.96 104.61 258.44 106.2 260.02 107.67 261.72 109.03 263.5 110.26 265.38 111.36 267.34 112.32 269.36 113.15 271.45 113.82 273.59 114.36 275.77 114.74 277.98 114.97 280.22 115.04 282.46"/></g><g class="cls-7"><polygon class="cls-8" points="54.71 264.39 52.75 263.1 50.79 261.81 48.83 260.52 46.87 259.23 44.91 257.94 42.95 256.65 40.98 255.36 39.02 254.07 37.06 252.78 35.1 251.49 33.14 250.2 31.18 248.91 29.22 247.62 27.25 246.33 26.05 248.23 24.91 250.17 23.84 252.15 22.84 254.16 21.9 256.21 21.04 258.29 20.25 260.39 19.53 262.53 18.88 264.68 18.31 266.86 17.82 269.05 17.4 271.26 17.05 273.49 16.78 275.72 16.59 277.96 16.47 280.21 16.43 282.46 18.78 282.46 21.13 282.46 23.48 282.46 25.83 282.46 28.17 282.46 30.52 282.46 32.87 282.46 35.22 282.46 37.57 282.46 39.91 282.46 42.26 282.46 44.61 282.46 46.96 282.46 49.3 282.46 49.39 280.07 49.65 277.69 50.08 275.34 50.69 273.03 51.45 270.77 52.39 268.57 53.47 266.44 54.71 264.39"/></g><g class="cls-7"><text class="cls-5" transform="translate(58.16 287.54)">18.52%</text></g><g class="cls-7"><text class="cls-6" transform="translate(65.43 328.15)">40 a 50</text></g><g class="cls-7"><text class="cls-6" transform="translate(70.97 342.49)">años</text></g><g class="cls-9"><polygon class="cls-3" points="284.87 112.63 287.22 112.63 289.57 112.63 291.91 112.63 294.26 112.63 296.61 112.63 298.96 112.63 301.3 112.63 303.65 112.63 306 112.63 308.35 112.63 310.7 112.63 313.04 112.63 315.39 112.63 317.74 112.63 317.7 110.39 317.59 108.15 317.39 105.91 317.13 103.68 316.78 101.46 316.36 99.26 315.87 97.07 315.3 94.9 314.66 92.75 313.94 90.62 313.16 88.52 312.3 86.44 311.37 84.4 310.37 82.39 309.3 80.41 308.17 78.48 306.97 76.58 305.71 74.72 304.38 72.91 302.99 71.15 301.55 69.43 300.04 67.76 298.48 66.15 296.87 64.59 295.2 63.08 293.49 61.64 291.72 60.25 289.91 58.93 288.05 57.66 286.16 56.46 284.22 55.33 282.24 54.26 280.23 53.27 278.19 52.34 276.12 51.48 274.01 50.69 271.89 49.97 269.74 49.33 267.56 48.76 265.37 48.27 263.17 47.85 260.95 47.51 258.72 47.24 256.49 47.05 254.24 46.93 252 46.89 249.76 46.93 247.51 47.05 245.28 47.24 243.05 47.51 240.83 47.85 238.63 48.27 236.44 48.76 234.26 49.33 232.11 49.97 229.99 50.69 227.88 51.48 225.81 52.34 223.77 53.27 221.76 54.26 219.78 55.33 217.84 56.46 215.95 57.66 214.09 58.93 212.28 60.25 210.51 61.64 208.8 63.08 207.13 64.59 205.52 66.15 203.96 67.76 202.45 69.43 201.01 71.15 199.62 72.91 198.29 74.72 197.03 76.58 195.83 78.48 194.7 80.41 193.63 82.39 192.63 84.4 191.7 86.44 190.84 88.52 190.06 90.62 189.34 92.75 188.7 94.9 188.13 97.07 187.64 99.26 187.22 101.46 186.87 103.68 186.61 105.91 186.41 108.15 186.3 110.39 186.26 112.63 188.61 112.63 190.96 112.63 193.3 112.63 195.65 112.63 198 112.63 200.35 112.63 202.7 112.63 205.04 112.63 207.39 112.63 209.74 112.63 212.09 112.63 214.43 112.63 216.78 112.63 219.13 112.63 219.21 110.39 219.44 108.16 219.82 105.95 220.35 103.77 221.03 101.63 221.85 99.54 222.82 97.51 223.92 95.55 225.15 93.68 226.5 91.89 227.98 90.2 229.56 88.61 231.26 87.14 233.04 85.78 234.92 84.55 236.88 83.45 238.9 82.48 240.99 81.66 243.13 80.98 245.31 80.45 247.52 80.07 249.76 79.84 252 79.76 254.24 79.84 256.48 80.07 258.69 80.45 260.87 80.98 263.01 81.66 265.1 82.48 267.12 83.45 269.08 84.55 270.96 85.78 272.74 87.14 274.44 88.61 276.02 90.2 277.5 91.89 278.85 93.68 280.08 95.55 281.18 97.51 282.15 99.54 282.97 101.63 283.65 103.77 284.18 105.95 284.56 108.16 284.79 110.39 284.87 112.63"/></g><g class="cls-9"><polygon class="cls-10" points="236.6 83.6 235.5 81.52 234.4 79.45 233.3 77.37 232.2 75.3 231.1 73.23 230 71.15 228.9 69.08 227.8 67 226.69 64.93 225.59 62.86 224.49 60.78 223.39 58.71 222.29 56.63 221.19 54.56 219.25 55.63 217.34 56.78 215.47 57.98 213.64 59.25 211.85 60.58 210.11 61.97 208.42 63.41 206.78 64.91 205.19 66.47 203.66 68.08 202.18 69.74 200.76 71.45 199.39 73.21 198.09 75.01 196.85 76.86 195.67 78.75 194.55 80.67 193.5 82.64 192.52 84.63 191.61 86.66 190.76 88.72 189.99 90.81 189.29 92.92 188.66 95.05 188.1 97.2 187.61 99.37 187.2 101.56 186.86 103.76 186.6 105.97 186.41 108.19 186.3 110.41 186.26 112.63 188.61 112.63 190.96 112.63 193.3 112.63 195.65 112.63 198 112.63 200.35 112.63 202.7 112.63 205.04 112.63 207.39 112.63 209.74 112.63 212.09 112.63 214.43 112.63 216.78 112.63 219.13 112.63 219.21 110.41 219.43 108.2 219.81 106 220.33 103.84 221 101.72 221.8 99.65 222.75 97.63 223.83 95.69 225.04 93.82 226.38 92.04 227.83 90.36 229.39 88.77 231.06 87.3 232.82 85.94 234.67 84.7 236.6 83.6"/></g><g class="cls-9"><text class="cls-5" transform="translate(227.98 117.71)">34.48%</text></g><g class="cls-9"><text class="cls-6" transform="translate(235.26 158.32)">18 a 28</text></g><g class="cls-9"><text class="cls-6" transform="translate(240.79 172.66)">años</text></g><g class="cls-11"><polygon class="cls-3" points="284.87 282.46 287.22 282.46 289.57 282.46 291.91 282.46 294.26 282.46 296.61 282.46 298.96 282.46 301.3 282.46 303.65 282.46 306 282.46 308.35 282.46 310.7 282.46 313.04 282.46 315.39 282.46 317.74 282.46 317.7 280.22 317.59 277.97 317.39 275.74 317.13 273.51 316.78 271.29 316.36 269.08 315.87 266.89 315.3 264.72 314.66 262.57 313.94 260.44 313.16 258.34 312.3 256.27 311.37 254.23 310.37 252.22 309.3 250.24 308.17 248.3 306.97 246.4 305.71 244.55 304.38 242.74 302.99 240.97 301.55 239.26 300.04 237.59 298.48 235.98 296.87 234.42 295.2 232.91 293.49 231.47 291.72 230.08 289.91 228.75 288.05 227.49 286.16 226.29 284.22 225.16 282.24 224.09 280.23 223.09 278.19 222.16 276.12 221.3 274.01 220.52 271.89 219.8 269.74 219.16 267.56 218.59 265.37 218.1 263.17 217.68 260.95 217.33 258.72 217.07 256.49 216.87 254.24 216.76 252 216.72 249.76 216.76 247.51 216.87 245.28 217.07 243.05 217.33 240.83 217.68 238.63 218.1 236.44 218.59 234.26 219.16 232.11 219.8 229.99 220.52 227.88 221.3 225.81 222.16 223.77 223.09 221.76 224.09 219.78 225.16 217.84 226.29 215.95 227.49 214.09 228.75 212.28 230.08 210.51 231.47 208.8 232.91 207.13 234.42 205.52 235.98 203.96 237.59 202.45 239.26 201.01 240.97 199.62 242.74 198.29 244.55 197.03 246.4 195.83 248.3 194.7 250.24 193.63 252.22 192.63 254.23 191.7 256.27 190.84 258.34 190.06 260.44 189.34 262.57 188.7 264.72 188.13 266.89 187.64 269.08 187.22 271.29 186.87 273.51 186.61 275.74 186.41 277.97 186.3 280.22 186.26 282.46 188.61 282.46 190.96 282.46 193.3 282.46 195.65 282.46 198 282.46 200.35 282.46 202.7 282.46 205.04 282.46 207.39 282.46 209.74 282.46 212.09 282.46 214.43 282.46 216.78 282.46 219.13 282.46 219.21 280.22 219.44 277.98 219.82 275.77 220.35 273.59 221.03 271.45 221.85 269.36 222.82 267.34 223.92 265.38 225.15 263.5 226.5 261.72 227.98 260.02 229.56 258.44 231.26 256.96 233.04 255.61 234.92 254.38 236.88 253.28 238.9 252.31 240.99 251.49 243.13 250.81 245.31 250.28 247.52 249.9 249.76 249.67 252 249.59 254.24 249.67 256.48 249.9 258.69 250.28 260.87 250.81 263.01 251.49 265.1 252.31 267.12 253.28 269.08 254.38 270.96 255.61 272.74 256.96 274.44 258.44 276.02 260.02 277.5 261.72 278.85 263.5 280.08 265.38 281.18 267.34 282.15 269.36 282.97 271.45 283.65 273.59 284.18 275.77 284.56 277.98 284.79 280.22 284.87 282.46"/></g><g class="cls-11"><polygon class="cls-12" points="220.12 274.47 217.84 273.9 215.56 273.33 213.28 272.76 211.01 272.19 208.73 271.62 206.45 271.05 204.17 270.47 201.9 269.9 199.62 269.33 197.34 268.76 195.07 268.19 192.79 267.62 190.51 267.05 188.23 266.48 187.71 268.73 187.27 270.99 186.91 273.27 186.62 275.55 186.42 277.85 186.3 280.15 186.26 282.46 188.61 282.46 190.96 282.46 193.3 282.46 195.65 282.46 198 282.46 200.35 282.46 202.7 282.46 205.04 282.46 207.39 282.46 209.74 282.46 212.09 282.46 214.43 282.46 216.78 282.46 219.13 282.46 219.24 279.77 219.57 277.1 220.12 274.47"/></g><g class="cls-11"><text class="cls-5" transform="translate(232.05 287.54)">7.82%</text></g><g class="cls-11"><text class="cls-6" transform="translate(235.26 328.15)">51 a 61</text></g><g class="cls-11"><text class="cls-6" transform="translate(240.79 342.49)">años</text></g><g class="cls-13"><polygon class="cls-3" points="454.7 112.63 457.04 112.63 459.39 112.63 461.74 112.63 464.09 112.63 466.43 112.63 468.78 112.63 471.13 112.63 473.48 112.63 475.83 112.63 478.17 112.63 480.52 112.63 482.87 112.63 485.22 112.63 487.57 112.63 487.53 110.39 487.41 108.15 487.22 105.91 486.95 103.68 486.61 101.46 486.19 99.26 485.7 97.07 485.13 94.9 484.49 92.75 483.77 90.62 482.98 88.52 482.12 86.44 481.19 84.4 480.2 82.39 479.13 80.41 478 78.48 476.8 76.58 475.53 74.72 474.21 72.91 472.82 71.15 471.37 69.43 469.87 67.76 468.31 66.15 466.7 64.59 465.03 63.08 463.31 61.64 461.55 60.25 459.74 58.93 457.88 57.66 455.98 56.46 454.05 55.33 452.07 54.26 450.06 53.27 448.02 52.34 445.94 51.48 443.84 50.69 441.71 49.97 439.56 49.33 437.39 48.76 435.2 48.27 433 47.85 430.78 47.51 428.55 47.24 426.31 47.05 424.07 46.93 421.83 46.89 419.58 46.93 417.34 47.05 415.1 47.24 412.88 47.51 410.66 47.85 408.45 48.27 406.26 48.76 404.09 49.33 401.94 49.97 399.81 50.69 397.71 51.48 395.64 52.34 393.59 53.27 391.58 54.26 389.61 55.33 387.67 56.46 385.77 57.66 383.92 58.93 382.1 60.25 380.34 61.64 378.62 63.08 376.96 64.59 375.34 66.15 373.78 67.76 372.28 69.43 370.83 71.15 369.45 72.91 368.12 74.72 366.86 76.58 365.66 78.48 364.52 80.41 363.46 82.39 362.46 84.4 361.53 86.44 360.67 88.52 359.88 90.62 359.17 92.75 358.53 94.9 357.96 97.07 357.46 99.26 357.04 101.46 356.7 103.68 356.43 105.91 356.24 108.15 356.13 110.39 356.09 112.63 358.44 112.63 360.78 112.63 363.13 112.63 365.48 112.63 367.83 112.63 370.17 112.63 372.52 112.63 374.87 112.63 377.22 112.63 379.57 112.63 381.91 112.63 384.26 112.63 386.61 112.63 388.96 112.63 389.03 110.39 389.26 108.16 389.64 105.95 390.18 103.77 390.85 101.63 391.68 99.54 392.64 97.51 393.74 95.55 394.97 93.68 396.33 91.89 397.8 90.2 399.39 88.61 401.08 87.14 402.87 85.78 404.75 84.55 406.7 83.45 408.73 82.48 410.82 81.66 412.96 80.98 415.14 80.45 417.35 80.07 419.58 79.84 421.83 79.76 424.07 79.84 426.3 80.07 428.51 80.45 430.69 80.98 432.83 81.66 434.92 82.48 436.95 83.45 438.9 84.55 440.78 85.78 442.57 87.14 444.26 88.61 445.85 90.2 447.32 91.89 448.68 93.68 449.91 95.55 451.01 97.51 451.97 99.54 452.8 101.63 453.48 103.77 454.01 105.95 454.39 108.16 454.62 110.39 454.7 112.63"/></g><g class="cls-13"><polygon class="cls-14" points="404.41 84.76 403.17 82.76 401.92 80.77 400.68 78.78 399.44 76.79 398.19 74.8 396.95 72.81 395.71 70.82 394.46 68.83 393.22 66.83 391.97 64.84 390.73 62.85 389.49 60.86 388.24 58.87 387 56.88 385.07 58.13 383.19 59.44 381.36 60.82 379.58 62.27 377.84 63.77 376.17 65.34 374.54 66.96 372.98 68.64 371.47 70.37 370.03 72.16 368.65 73.99 367.33 75.87 366.08 77.79 364.9 79.76 363.78 81.77 362.74 83.81 361.77 85.89 360.88 88 360.05 90.15 359.31 92.32 358.64 94.51 358.04 96.73 357.52 98.96 357.09 101.22 356.73 103.48 356.45 105.76 356.25 108.05 356.13 110.34 356.09 112.63 358.44 112.63 360.78 112.63 363.13 112.63 365.48 112.63 367.83 112.63 370.17 112.63 372.52 112.63 374.87 112.63 377.22 112.63 379.57 112.63 381.91 112.63 384.26 112.63 386.61 112.63 388.96 112.63 389.04 110.26 389.3 107.9 389.73 105.56 390.32 103.26 391.08 101.01 392 98.81 393.08 96.7 394.31 94.66 395.68 92.72 397.18 90.88 398.82 89.16 400.58 87.56 402.44 86.09 404.41 84.76"/></g><g class="cls-13"><text class="cls-5" transform="translate(397.81 117.71)">32.23%</text></g><g class="cls-13"><text class="cls-6" transform="translate(405.08 158.32)">29 a 39</text></g><g class="cls-13"><text class="cls-6" transform="translate(410.62 172.66)">años</text></g><g class="cls-15"><polygon class="cls-3" points="454.7 282.46 457.04 282.46 459.39 282.46 461.74 282.46 464.09 282.46 466.43 282.46 468.78 282.46 471.13 282.46 473.48 282.46 475.83 282.46 478.17 282.46 480.52 282.46 482.87 282.46 485.22 282.46 487.57 282.46 487.53 280.22 487.41 277.97 487.22 275.74 486.95 273.51 486.61 271.29 486.19 269.08 485.7 266.89 485.13 264.72 484.49 262.57 483.77 260.44 482.98 258.34 482.12 256.27 481.19 254.23 480.2 252.22 479.13 250.24 478 248.3 476.8 246.4 475.53 244.55 474.21 242.74 472.82 240.97 471.37 239.26 469.87 237.59 468.31 235.98 466.7 234.42 465.03 232.91 463.31 231.47 461.55 230.08 459.74 228.75 457.88 227.49 455.98 226.29 454.05 225.16 452.07 224.09 450.06 223.09 448.02 222.16 445.94 221.3 443.84 220.52 441.71 219.8 439.56 219.16 437.39 218.59 435.2 218.1 433 217.68 430.78 217.33 428.55 217.07 426.31 216.87 424.07 216.76 421.83 216.72 419.58 216.76 417.34 216.87 415.1 217.07 412.88 217.33 410.66 217.68 408.45 218.1 406.26 218.59 404.09 219.16 401.94 219.8 399.81 220.52 397.71 221.3 395.64 222.16 393.59 223.09 391.58 224.09 389.61 225.16 387.67 226.29 385.77 227.49 383.92 228.75 382.1 230.08 380.34 231.47 378.62 232.91 376.96 234.42 375.34 235.98 373.78 237.59 372.28 239.26 370.83 240.97 369.45 242.74 368.12 244.55 366.86 246.4 365.66 248.3 364.52 250.24 363.46 252.22 362.46 254.23 361.53 256.27 360.67 258.34 359.88 260.44 359.17 262.57 358.53 264.72 357.96 266.89 357.46 269.08 357.04 271.29 356.7 273.51 356.43 275.74 356.24 277.97 356.13 280.22 356.09 282.46 358.44 282.46 360.78 282.46 363.13 282.46 365.48 282.46 367.83 282.46 370.17 282.46 372.52 282.46 374.87 282.46 377.22 282.46 379.57 282.46 381.91 282.46 384.26 282.46 386.61 282.46 388.96 282.46 389.03 280.22 389.26 277.98 389.64 275.77 390.18 273.59 390.85 271.45 391.68 269.36 392.64 267.34 393.74 265.38 394.97 263.5 396.33 261.72 397.8 260.02 399.39 258.44 401.08 256.96 402.87 255.61 404.75 254.38 406.7 253.28 408.73 252.31 410.82 251.49 412.96 250.81 415.14 250.28 417.35 249.9 419.58 249.67 421.83 249.59 424.07 249.67 426.3 249.9 428.51 250.28 430.69 250.81 432.83 251.49 434.92 252.31 436.95 253.28 438.9 254.38 440.78 255.61 442.57 256.96 444.26 258.44 445.85 260.02 447.32 261.72 448.68 263.5 449.91 265.38 451.01 267.34 451.97 269.36 452.8 271.45 453.48 273.59 454.01 275.77 454.39 277.98 454.62 280.22 454.7 282.46"/></g><g class="cls-15"><polygon class="cls-16" points="389.5 276.52 387.19 276.1 384.88 275.67 382.57 275.25 380.26 274.83 377.95 274.4 375.64 273.98 373.33 273.55 371.02 273.13 368.72 272.71 366.41 272.28 364.1 271.86 361.79 271.43 359.48 271.01 357.17 270.58 356.78 272.94 356.48 275.31 356.26 277.69 356.13 280.07 356.09 282.46 358.44 282.46 360.78 282.46 363.13 282.46 365.48 282.46 367.83 282.46 370.17 282.46 372.52 282.46 374.87 282.46 377.22 282.46 379.57 282.46 381.91 282.46 384.26 282.46 386.61 282.46 388.96 282.46 389.09 279.48 389.5 276.52"/></g><g class="cls-15"><text class="cls-5" transform="translate(401.88 287.54)">5.78%</text></g><g class="cls-15"><text class="cls-6" transform="translate(400.78 335.32)">+61 años</text></g><g class="cls-17"><text class="cls-18" transform="translate(0 27.82)">2020</text></g><g class="cls-17"><text class="cls-19" transform="translate(0 11.31)">Denuncias por Violencia de Género S/ edad de la víctima</text></g></g></g></svg>